<?xml version="1.0" standalone="no"?>
<!DOCTYPE svg PUBLIC "-//W3C//DTD SVG 1.1//EN" "http://www.w3.org/Graphics/SVG/1.1/DTD/svg11.dtd" >
<svg>
<metadata>
Created by FontForge 20090622 at Mon Nov  2 14:50:15 2015
 By deploy user
Copyright (C) 2001, 2008 Hoefler &#38; Frere-Jones. http://www.typography.com
</metadata>
<defs>
<font id="Gotham-ThinItalic" horiz-adv-x="600" >
  <font-face 
    font-family="Gotham Thin"
    font-weight="250"
    font-style="italic"
    font-stretch="normal"
    units-per-em="1000"
    panose-1="0 0 0 0 0 0 0 0 0 0"
    ascent="800"
    descent="-200"
    x-height="500"
    cap-height="700"
    bbox="-295 -200 1218 968"
    underline-thickness="50"
    underline-position="-50"
    slope="-15"
    unicode-range="U+0020-U+FB04"
  />
<missing-glyph horiz-adv-x="500" 
d="M0 -200v1000h500v-1000h-500zM50 -76l172 376l-172 376v-752zM71 -150h358l-179 390zM250 360l179 390h-358zM450 -76v752l-172 -376z" />
    <glyph glyph-name="f_f" unicode="ff" horiz-adv-x="650" 
d="M46 0l129 481h-79l5 19h79l22 81q20 74 56 110q39 39 101 39q48 0 86 -22l-6 -20q-33 21 -81 21q-101 0 -134 -125l-23 -84h183l-5 -19h-183l-129 -481h-21zM371 0l129 481h-79l5 19h79l22 81q20 74 56 110q39 39 101 39q48 0 86 -22l-6 -20q-33 21 -81 21
q-101 0 -134 -125l-23 -84h183l-5 -19h-183l-129 -481h-21z" />
    <glyph glyph-name="fi" unicode="fi" horiz-adv-x="545" 
d="M46 0l129 481h-79l5 19h79l22 81q20 74 56 110q39 39 101 39q48 0 86 -22l-6 -20q-33 21 -81 21q-101 0 -134 -125l-23 -84h183l-5 -19h-183l-129 -481h-21zM356 0l134 500h21l-134 -500h-21zM523 643l16 57h31l-16 -57h-31z" />
    <glyph glyph-name="fl" unicode="fl" horiz-adv-x="544" 
d="M46 0l129 481h-79l5 19h79l22 81q20 74 56 110q39 39 101 39q48 0 86 -22l-6 -20q-33 21 -81 21q-101 0 -134 -125l-23 -84h183l-5 -19h-183l-129 -481h-21zM356 0l196 730h21l-196 -730h-21z" />
    <glyph glyph-name="f_f_i" unicode="ffi" horiz-adv-x="870" 
d="M46 0l129 481h-79l5 19h79l22 81q20 74 56 110q39 39 101 39q48 0 86 -22l-6 -20q-33 21 -81 21q-101 0 -134 -125l-23 -84h183l-5 -19h-183l-129 -481h-21zM371 0l129 481h-79l5 19h79l22 81q20 74 56 110q39 39 101 39q48 0 86 -22l-6 -20q-33 21 -81 21
q-101 0 -134 -125l-23 -84h183l-5 -19h-183l-129 -481h-21zM681 0l134 500h21l-134 -500h-21zM848 643l16 57h31l-16 -57h-31z" />
    <glyph glyph-name="f_f_l" unicode="ffl" horiz-adv-x="869" 
d="M46 0l129 481h-79l5 19h79l22 81q20 74 56 110q39 39 101 39q48 0 86 -22l-6 -20q-33 21 -81 21q-101 0 -134 -125l-23 -84h183l-5 -19h-183l-129 -481h-21zM371 0l129 481h-79l5 19h79l22 81q20 74 56 110q39 39 101 39q48 0 86 -22l-6 -20q-33 21 -81 21
q-101 0 -134 -125l-23 -84h183l-5 -19h-183l-129 -481h-21zM681 0l196 730h21l-196 -730h-21z" />
    <glyph glyph-name=".notdef" horiz-adv-x="500" 
d="M0 -200v1000h500v-1000h-500zM50 -76l172 376l-172 376v-752zM71 -150h358l-179 390zM250 360l179 390h-358zM450 -76v752l-172 -376z" />
    <glyph glyph-name=".null" horiz-adv-x="0" 
 />
    <glyph glyph-name="nonmarkingreturn" horiz-adv-x="333" 
 />
    <glyph glyph-name="space" unicode=" " horiz-adv-x="280" 
 />
    <glyph glyph-name="exclam" unicode="!" horiz-adv-x="194" 
d="M74 183l104 409l29 108h22l-29 -108l-116 -409h-10zM12 0l14 52h36l-14 -52h-36z" />
    <glyph glyph-name="quotedbl" unicode="&#x22;" horiz-adv-x="304" 
d="M93 446l103 254h25v-2l-116 -252h-12zM221 446l103 254h25v-2l-116 -252h-12z" />
    <glyph glyph-name="numbersign" unicode="#" horiz-adv-x="660" 
d="M99 0l70 201h-114l5 19h116l93 266h-127l5 19h128l68 195h20l-68 -195h239l68 195h20l-68 -195h114l-5 -19h-116l-92 -266h126l-5 -19h-128l-70 -201h-20l70 201h-239l-70 -201h-20zM196 220h239l93 266h-240z" />
    <glyph glyph-name="dollar" unicode="$" horiz-adv-x="622" 
d="M436 758h19l-17 -64q104 -21 170 -92l-15 -14q-68 70 -160 88l-84 -313q44 -17 71.5 -30.5t56 -34.5t42 -49.5t13.5 -65.5q0 -71 -61.5 -127t-174.5 -56q-16 0 -44 2l-27 -100h-19l28 103q-130 21 -211 121l16 14q72 -95 200 -117l88 328q-35 13 -57 23t-49 25.5t-42 32
t-25.5 40t-10.5 51.5q0 70 62.5 123.5t170.5 53.5q22 0 44 -3zM510 182q0 62 -40 96t-126 66l-87 -324q26 -2 41 -2q101 0 156.5 50.5t55.5 113.5zM165 524q0 -59 40 -90.5t127 -63.5l83 309q-21 3 -41 3q-96 0 -152.5 -48t-56.5 -110z" />
    <glyph glyph-name="percent" unicode="%" horiz-adv-x="824" 
d="M238 346q-59 0 -96.5 42t-37.5 106q0 94 67 161q53 53 119 53q59 0 96.5 -42t37.5 -106q0 -94 -67 -161q-53 -53 -119 -53zM584 -8q-59 0 -96.5 42t-37.5 106q0 94 67 161q53 53 119 53q59 0 96.5 -42t37.5 -106q0 -94 -67 -161q-53 -53 -119 -53zM585 12q57 0 102 45
q61 61 61 148q0 56 -31.5 92.5t-81.5 36.5q-57 0 -102 -45q-61 -61 -61 -148q0 -56 31.5 -92.5t81.5 -36.5zM239 366q57 0 102 45q61 61 61 148q0 56 -31.5 92.5t-81.5 36.5q-57 0 -102 -45q-61 -61 -61 -148q0 -56 31.5 -92.5t81.5 -36.5zM75 0l698 700h26l-698 -700h-26z
" />
    <glyph glyph-name="ampersand" unicode="&#x26;" horiz-adv-x="676" 
d="M623 326l18 -10q-67 -109 -133 -183l93 -131l-15 -11l-92 129q-132 -130 -266 -130q-80 0 -136.5 46.5t-56.5 125.5q0 52 22.5 93t64 68t82 43t94.5 30q-59 86 -59 146q0 74 52.5 122t130.5 48q64 0 105.5 -37.5t41.5 -93.5q0 -73 -63.5 -119t-177.5 -77l169 -236
q56 62 126 177zM229 10q131 0 254 125l-174 246q-43 -11 -75.5 -22.5t-67.5 -30t-57.5 -40.5t-37 -54t-14.5 -71q0 -71 50 -112t122 -41zM261 544q0 -64 57 -144q110 29 169.5 71t59.5 109q0 48 -35 80t-91 32q-68 0 -114 -42t-46 -106z" />
    <glyph glyph-name="quotesingle" unicode="'" horiz-adv-x="176" 
d="M93 446l103 254h25v-2l-116 -252h-12z" />
    <glyph glyph-name="parenleft" unicode="(" horiz-adv-x="390" 
d="M268 -130q-179 137 -179 350q0 196 151 347q99 99 247 152l7 -19q-142 -50 -240 -148q-143 -143 -143 -332q0 -203 170 -335z" />
    <glyph glyph-name="parenright" unicode=")" horiz-adv-x="390" 
d="M145 715q179 -137 179 -350q0 -196 -151 -347q-99 -99 -247 -152l-7 19q142 50 240 148q143 143 143 332q0 203 -170 335z" />
    <glyph glyph-name="asterisk" unicode="*" horiz-adv-x="431" 
d="M267 408l-21 6l42 134l-134 -43l-6 21l138 30l-105 96l17 15l94 -104l31 137l21 -6l-42 -134l134 43l6 -21l-138 -30l105 -96l-17 -15l-94 104z" />
    <glyph glyph-name="plus" unicode="+" 
d="M251 113l62 230h-219l5 18h219l62 230h20l-62 -230h219l-5 -18h-219l-62 -230h-20z" />
    <glyph glyph-name="comma" unicode="," horiz-adv-x="164" 
d="M-25 -79l-4 12q29 7 44 67h-18l14 52h36l-12 -46q-11 -42 -24.5 -61t-35.5 -24z" />
    <glyph glyph-name="hyphen" unicode="-" horiz-adv-x="388" 
d="M78 287l6 21h248l-6 -21h-248z" />
    <glyph glyph-name="period" unicode="." horiz-adv-x="164" 
d="M-3 0l14 52h36l-14 -52h-36z" />
    <glyph glyph-name="slash" unicode="/" horiz-adv-x="491" 
d="M-97 -128l718 926h24l-718 -926h-24z" />
    <glyph glyph-name="zero" unicode="0" horiz-adv-x="708" 
d="M442 712q112 0 171.5 -73t59.5 -191q0 -103 -37.5 -201t-103.5 -164q-95 -95 -213 -95q-112 0 -171.5 73t-59.5 191q0 103 37.5 201t103.5 164q95 95 213 95zM320 8q109 0 195 86q63 63 99.5 158t36.5 195q0 110 -53.5 177.5t-156.5 67.5q-109 0 -195 -86
q-63 -63 -99.5 -158t-36.5 -195q0 -110 53.5 -177.5t156.5 -67.5z" />
    <glyph glyph-name="one" unicode="1" horiz-adv-x="313" 
d="M102 0l182 680l-147 -60l-4 20l161 65h18l-189 -705h-21z" />
    <glyph glyph-name="two" unicode="2" horiz-adv-x="559" 
d="M-21 0l3 13l421 338q75 60 104.5 102t29.5 93q0 61 -47.5 102.5t-130.5 41.5q-115 0 -211 -109l-15 13q101 116 227 116q93 0 146 -47.5t53 -115.5q0 -56 -32 -102t-112 -110l-394 -315h437l-5 -20h-474z" />
    <glyph glyph-name="three" unicode="3" horiz-adv-x="555" 
d="M226 -11q-83 0 -143 34.5t-90 94.5l19 9q62 -118 215 -118q104 0 175.5 54.5t71.5 143.5q0 67 -57 108t-170 41h-24l-5 14l347 310h-397l6 20h428l-5 -16l-345 -309q116 -1 180 -46t64 -121q0 -82 -59 -141q-78 -78 -211 -78z" />
    <glyph glyph-name="four" unicode="4" horiz-adv-x="618" 
d="M384 0l49 183h-412l-3 13l557 509h18l-134 -502h115l-5 -20h-115l-49 -183h-21zM54 203h384l125 467z" />
    <glyph glyph-name="five" unicode="5" horiz-adv-x="578" 
d="M246 -12q-80 0 -141.5 36t-90.5 92l19 10q65 -118 214 -118q106 0 177.5 63.5t71.5 153.5q0 81 -53 124t-143 43q-85 0 -175 -43l-11 9l112 342h365l-6 -20h-345l-99 -303q80 35 160 35q96 0 156.5 -48.5t60.5 -137.5q0 -90 -67 -157q-81 -81 -205 -81z" />
    <glyph glyph-name="six" unicode="6" horiz-adv-x="621" 
d="M302 -12q-99 0 -162 63q-59 59 -59 155q0 123 40.5 232t112.5 181q93 93 216 93q116 0 193 -95l-17 -13q-72 88 -177 88q-113 0 -199 -86q-118 -118 -146 -330q22 60 90 106.5t156 46.5q103 0 161 -54.5t58 -133.5q0 -102 -74 -176q-77 -77 -193 -77zM304 8q105 0 177 72
q66 66 66 159q0 75 -51.5 122.5t-146.5 47.5q-111 0 -186 -75q-61 -61 -61 -133q0 -82 55 -137q56 -56 147 -56z" />
    <glyph glyph-name="seven" unicode="7" horiz-adv-x="531" 
d="M52 0l506 680h-429l6 20h455l-4 -13l-509 -687h-25z" />
    <glyph glyph-name="eight" unicode="8" horiz-adv-x="625" 
d="M295 -10q-111 0 -180.5 49t-69.5 131q0 76 64.5 131.5t166.5 65.5q-58 21 -91.5 60t-33.5 91q0 81 69 136.5t172 55.5q91 0 154 -46t63 -116q0 -73 -55.5 -125.5t-144.5 -65.5q69 -19 110 -65t41 -104q0 -86 -72.5 -142t-192.5 -56zM295 10q111 0 177 50t66 127
q0 70 -62.5 118.5t-156.5 48.5q-107 0 -179.5 -54.5t-72.5 -128.5t63.5 -117.5t164.5 -43.5zM357 368q96 0 163 51t67 128q0 61 -57 102t-139 41q-94 0 -156 -48.5t-62 -122.5q0 -63 53.5 -107t130.5 -44z" />
    <glyph glyph-name="nine" unicode="9" horiz-adv-x="621" 
d="M223 -12q-122 0 -199 103l17 13q73 -96 183 -96q113 0 199 86q117 117 146 327q-23 -62 -91 -109t-156 -47q-103 0 -160.5 55t-57.5 136q0 104 73 177q79 79 194 79q99 0 162 -63q59 -59 59 -155q0 -123 -40.5 -232t-112.5 -181q-93 -93 -216 -93zM323 285q111 0 187 76
q61 61 61 135q0 85 -55 140q-56 56 -147 56q-104 0 -174 -70q-69 -69 -69 -164q0 -77 51 -125t146 -48z" />
    <glyph glyph-name="colon" unicode=":" horiz-adv-x="168" 
d="M-1 0l14 52h36l-14 -52h-36zM119 448l14 52h36l-14 -52h-36z" />
    <glyph glyph-name="semicolon" unicode=";" horiz-adv-x="168" 
d="M-27 -67q29 7 44 67h-18l14 52h36l-12 -46q-11 -42 -24.5 -61t-35.5 -24zM119 448l14 52h36l-14 -52h-36z" />
    <glyph glyph-name="less" unicode="&#x3c;" 
d="M480 112l-397 235l3 10l522 235l-6 -24l-486 -218l370 -216z" />
    <glyph glyph-name="equal" unicode="=" 
d="M85 225l5 20h414l-5 -20h-414zM148 460l5 20h414l-5 -20h-414z" />
    <glyph glyph-name="greater" unicode="&#x3e;" 
d="M43 112l6 24l486 218l-370 216l6 22l397 -235l-3 -10z" />
    <glyph glyph-name="question" unicode="?" horiz-adv-x="501" 
d="M199 183l35 157l3 3q115 11 190.5 60t75.5 136q0 65 -47 107.5t-130 42.5q-114 0 -211 -95l-14 14q103 101 226 101q92 0 145 -48.5t53 -120.5q0 -93 -76 -146.5t-194 -68.5l-46 -142h-10zM137 0l14 52h36l-14 -52h-36z" />
    <glyph glyph-name="at" unicode="@" horiz-adv-x="949" 
d="M446 -159q-173 0 -274 102t-101 260q0 106 40.5 201.5t107 162.5t153.5 106t178 39q159 0 257 -101.5t98 -237.5q0 -139 -61 -215.5t-131 -76.5q-61 0 -80.5 37t-10.5 85q-21 -48 -71.5 -85t-115.5 -37q-70 0 -111 45t-41 114q0 90 63.5 165t156.5 75q73 0 111.5 -39
t42.5 -98l34 114l19 -4l-58 -191q-15 -48 -15 -83q0 -80 76 -80q64 0 118 71.5t54 201.5t-92.5 226t-243.5 96q-88 0 -171.5 -37.5t-146.5 -101.5t-101.5 -156t-38.5 -195q0 -148 95 -246.5t261 -98.5q130 0 226 48l9 -17q-98 -49 -236 -49zM437 101q85 0 145.5 70.5
t60.5 141.5q0 70 -35 108.5t-105 38.5q-86 0 -142 -68t-56 -150q0 -64 34.5 -102.5t97.5 -38.5z" />
    <glyph glyph-name="A" unicode="A" horiz-adv-x="767" 
d="M-25 0l526 705h19l145 -705h-21l-43 210h-445l-156 -210h-25zM171 230h426l-92 447z" />
    <glyph glyph-name="B" unicode="B" horiz-adv-x="725" 
d="M37 0l188 700h256q91 0 149 -41.5t58 -113.5q0 -84 -58.5 -133.5t-140.5 -57.5q148 -31 148 -148q0 -89 -74 -147.5t-213 -58.5h-313zM64 20h289q127 0 194.5 52.5t67.5 134.5q0 66 -56.5 101.5t-150.5 35.5h-257zM157 364h252q121 0 189 47.5t68 131.5q0 65 -52 101
t-137 36h-236z" />
    <glyph glyph-name="C" unicode="C" horiz-adv-x="726" 
d="M370 -12q-117 0 -197 77t-80 204q0 90 35.5 174t98.5 147q122 122 283 122q85 0 151 -40.5t99 -111.5l-19 -8q-31 63 -91 101.5t-140 38.5q-153 0 -266 -113q-129 -129 -129 -310q0 -119 73.5 -190t183.5 -71q151 0 264 115l14 -14q-121 -121 -280 -121z" />
    <glyph glyph-name="D" unicode="D" horiz-adv-x="763" 
d="M37 0l188 700h140q186 0 282 -96q76 -76 76 -198q0 -165 -110 -275q-131 -131 -357 -131h-219zM631 590q-89 90 -260 90h-130l-177 -660h196q212 0 337 125q104 104 104 260q0 115 -70 185z" />
    <glyph glyph-name="E" unicode="E" horiz-adv-x="661" 
d="M37 0l188 700h489l-6 -20h-466l-86 -318h424l-5 -20h-424l-87 -322h472l-5 -20h-494z" />
    <glyph glyph-name="F" unicode="F" horiz-adv-x="629" 
d="M37 0l188 700h484l-6 -20h-462l-87 -325h419l-5 -20h-419l-90 -335h-22z" />
    <glyph glyph-name="G" unicode="G" horiz-adv-x="779" 
d="M389 -12q-133 0 -212.5 82.5t-79.5 209.5q0 87 34 168t94 141q123 123 295 123q163 0 249 -123l-18 -12q-79 115 -231 115q-163 0 -279 -116q-58 -58 -90 -135t-32 -160q0 -119 74 -196t198 -77q119 0 226 68l73 253h-247l6 22h269l-82 -287q-117 -76 -247 -76z" />
    <glyph glyph-name="H" unicode="H" horiz-adv-x="753" 
d="M37 0l188 700h22l-91 -337h500l91 337h22l-188 -700h-22l92 343h-500l-92 -343h-22z" />
    <glyph glyph-name="I" unicode="I" horiz-adv-x="244" 
d="M43 0l188 700h22l-188 -700h-22z" />
    <glyph glyph-name="J" unicode="J" horiz-adv-x="524" 
d="M182 -11q-74 0 -121.5 44t-65.5 112l20 6q16 -62 58.5 -102t108.5 -40q81 0 136 55q50 50 80 159l128 477h22l-130 -483q-30 -111 -84 -165q-63 -63 -152 -63z" />
    <glyph glyph-name="K" unicode="K" horiz-adv-x="705" 
d="M38 0l187 700h22l-127 -474l609 474h33l-383 -296l207 -404h-24l-200 390l-250 -193l-52 -197h-22z" />
    <glyph glyph-name="L" unicode="L" horiz-adv-x="584" 
d="M37 0l188 700h22l-183 -680h430l-5 -20h-452z" />
    <glyph glyph-name="M" unicode="M" horiz-adv-x="860" 
d="M37 0l188 700h19l188 -433l420 433h24l-188 -700h-22l178 663l-419 -432h-1l-187 432l-178 -663h-22z" />
    <glyph glyph-name="N" unicode="N" horiz-adv-x="782" 
d="M37 0l188 700h20l352 -670l180 670h21l-188 -700h-20l-352 670l-180 -670h-21z" />
    <glyph glyph-name="O" unicode="O" horiz-adv-x="838" 
d="M494 712q132 0 216 -87t84 -216q0 -85 -34 -165t-94 -140q-116 -116 -269 -116q-132 0 -216 87t-84 216q0 85 34 165t94 140q116 116 269 116zM398 8q144 0 252 108q58 58 90 134t32 158q0 121 -78 202.5t-201 81.5q-144 0 -252 -108q-58 -58 -90 -134t-32 -158
q0 -121 78 -202.5t201 -81.5z" />
    <glyph glyph-name="P" unicode="P" horiz-adv-x="668" 
d="M37 0l188 700h213q133 0 196 -63q46 -46 46 -124q0 -89 -61 -150q-88 -88 -268 -88h-218l-74 -275h-22zM617 623q-57 57 -180 57h-196l-103 -385h214q167 0 249 82q57 57 57 135q0 70 -41 111z" />
    <glyph glyph-name="Q" unicode="Q" horiz-adv-x="838" 
d="M494 712q132 0 216 -87t84 -216q0 -84 -34.5 -165t-92.5 -139l-24 -22l70 -79l-15 -13l-71 79q-104 -82 -230 -82q-132 0 -216 87t-84 216q0 85 34 165t94 140q116 116 269 116zM398 8q120 0 216 76l-129 145l16 13l128 -145q8 6 22 20q57 57 89 133t32 158
q0 121 -78 202.5t-201 81.5q-144 0 -252 -108q-58 -58 -90 -134t-32 -158q0 -121 78 -202.5t201 -81.5z" />
    <glyph glyph-name="R" unicode="R" horiz-adv-x="724" 
d="M562 0l-158 305h-15h-248l-82 -305h-22l188 700h250q125 0 184 -59q45 -45 45 -116q0 -85 -55 -140q-72 -72 -222 -79l159 -306h-24zM146 325h240q174 0 245 71q51 51 51 127q0 64 -38 102q-55 55 -171 55h-231z" />
    <glyph glyph-name="S" unicode="S" horiz-adv-x="639" 
d="M303 -10q-84 0 -159 35t-121 95l17 13q44 -58 114.5 -90.5t150.5 -32.5q104 0 163 52.5t59 119.5q0 28 -10.5 51t-24.5 38.5t-42.5 31t-49 24.5t-59.5 24q-45 17 -70.5 29t-56.5 32.5t-45.5 47.5t-14.5 62q0 67 51 118q70 70 192 70q145 0 238 -101l-16 -14
q-87 95 -224 95q-100 0 -159.5 -50t-59.5 -116q0 -30 14 -54.5t43.5 -43t54 -30t67.5 -27.5q49 -18 76.5 -31.5t58.5 -35t45 -50.5t14 -68q0 -71 -54 -125q-69 -69 -192 -69z" />
    <glyph glyph-name="T" unicode="T" horiz-adv-x="582" 
d="M207 0l182 680h-252l5 20h528l-5 -20h-254l-182 -680h-22z" />
    <glyph glyph-name="U" unicode="U" horiz-adv-x="752" 
d="M344 -11q-109 0 -177.5 56.5t-68.5 167.5q0 53 18 122l98 365h22l-99 -368q-17 -65 -17 -117q0 -102 61.5 -154t163.5 -52q117 0 197 80q69 69 110 220l105 391h22l-107 -397q-42 -155 -115 -228q-86 -86 -213 -86z" />
    <glyph glyph-name="V" unicode="V" horiz-adv-x="714" 
d="M275 -5l-120 705h22l113 -676l478 676h25l-501 -705h-17z" />
    <glyph glyph-name="W" unicode="W" horiz-adv-x="1047" 
d="M217 -5l-57 705h21l52 -676l397 678h18l46 -678l404 676h23l-425 -705h-19l-46 673l-395 -673h-19z" />
    <glyph glyph-name="X" unicode="X" horiz-adv-x="672" 
d="M-22 0l372 358l-193 342h23l185 -329l340 329h27l-358 -346l199 -354h-23l-191 341l-354 -341h-27z" />
    <glyph glyph-name="Y" unicode="Y" horiz-adv-x="664" 
d="M248 0l79 294l-184 406h23l176 -389l386 389h28l-408 -410l-78 -290h-22z" />
    <glyph glyph-name="Z" unicode="Z" horiz-adv-x="668" 
d="M-6 0l3 12l683 668h-487l6 20h521l-4 -13l-683 -667h501l-5 -20h-535z" />
    <glyph glyph-name="bracketleft" unicode="[" horiz-adv-x="410" 
d="M5 -130l223 830h263l-5 -17h-241l-213 -796h241l-5 -17h-263z" />
    <glyph glyph-name="backslash" unicode="\" horiz-adv-x="471" 
d="M380 -128l-222 926h21l222 -926h-21z" />
    <glyph glyph-name="bracketright" unicode="]" horiz-adv-x="410" 
d="M424 700l-223 -830h-263l5 17h241l213 796h-241l5 17h263z" />
    <glyph glyph-name="asciicircum" unicode="^" horiz-adv-x="500" 
d="M153 494l212 209h12l100 -209h-15l-96 183l-194 -183h-19z" />
    <glyph glyph-name="underscore" unicode="_" horiz-adv-x="548" 
d="M-111 -149l5 20h554l-5 -20h-554z" />
    <glyph glyph-name="grave" unicode="`" horiz-adv-x="500" 
d="M382 595l-70 101l26 12l56 -113h-12z" />
    <glyph glyph-name="a" unicode="a" horiz-adv-x="566" 
d="M186 -12q-64 0 -112 37t-48 100q0 69 45 114q60 60 180 60q113 0 212 -31l6 23q9 33 9 61q0 66 -49 101t-130 35q-69 0 -140 -25l-6 20q69 25 148 25q89 0 143 -39.5t54 -115.5q0 -29 -9 -65l-77 -288h-21l32 119q-33 -59 -93 -95t-144 -36zM190 7q96 0 164.5 56.5
t91.5 141.5l12 44q-99 30 -211 30q-107 0 -160 -53q-39 -39 -39 -98q0 -57 43 -89t99 -32z" />
    <glyph glyph-name="b" unicode="b" horiz-adv-x="650" 
d="M312 -12q-95 0 -152.5 54.5t-67.5 127.5l-46 -170h-21l196 730h21l-96 -356q26 49 93 93.5t148 44.5q90 0 148.5 -61.5t58.5 -151.5q0 -63 -25.5 -125t-70.5 -107q-79 -79 -186 -79zM311 8q98 0 170 72q43 43 67 100.5t24 115.5q0 84 -52.5 140t-133.5 56
q-106 0 -188 -82q-43 -43 -67 -95t-24 -99q0 -91 56 -149.5t148 -58.5z" />
    <glyph glyph-name="c" unicode="c" horiz-adv-x="552" 
d="M268 -12q-87 0 -153.5 59t-66.5 157q0 127 94 221q87 87 201 87q71 0 121 -34t76 -84l-18 -10q-57 108 -180 108q-105 0 -186 -81q-86 -86 -86 -206q0 -90 59.5 -143.5t139.5 -53.5q95 0 180 76l14 -13q-92 -83 -195 -83z" />
    <glyph glyph-name="d" unicode="d" horiz-adv-x="650" 
d="M466 0l34 126q-26 -49 -93 -93.5t-148 -44.5q-90 0 -148.5 61.5t-58.5 151.5q0 63 25.5 125t70.5 107q79 79 186 79q95 0 152.5 -54.5t67.5 -127.5l108 400h21l-196 -730h-21zM260 8q106 0 188 82q43 43 67 95t24 99q0 91 -56 149.5t-148 58.5q-98 0 -170 -72
q-43 -43 -67 -100.5t-24 -115.5q0 -84 52.5 -140t133.5 -56z" />
    <glyph glyph-name="e" unicode="e" horiz-adv-x="586" 
d="M522 244h-448q-3 -22 -3 -46q0 -87 54 -138.5t147 -51.5q101 0 185 71l13 -15q-89 -76 -198 -76q-102 0 -162.5 56.5t-60.5 151.5q0 65 26 126t71 106q84 84 192 84q98 0 146.5 -57t48.5 -139q-2 -41 -11 -72zM162 415q-64 -64 -84 -152h427q6 36 6 54q0 74 -43 124.5
t-130 50.5q-99 0 -176 -77z" />
    <glyph glyph-name="f" unicode="f" horiz-adv-x="325" 
d="M46 0l129 481h-79l5 19h79l22 81q20 74 56 110q39 39 101 39q48 0 86 -22l-6 -20q-33 21 -81 21q-101 0 -134 -125l-23 -84h183l-5 -19h-183l-129 -481h-21z" />
    <glyph glyph-name="g" unicode="g" horiz-adv-x="647" 
d="M237 -160q-66 0 -129 25t-107 68l15 14q40 -40 99.5 -63.5t123.5 -23.5q105 0 169 64q48 48 74 146l25 94q-37 -57 -99 -92t-140 -35q-87 0 -148.5 55t-61.5 139q0 116 84 200q81 81 195 81q92 0 149.5 -54t66.5 -122l44 164h21l-117 -436q-27 -101 -79 -153
q-71 -71 -185 -71zM271 57q112 0 192 80q76 76 76 162q0 78 -57 135.5t-145 57.5q-104 0 -178 -74q-79 -79 -79 -184q0 -76 55 -126.5t136 -50.5z" />
    <glyph glyph-name="h" unicode="h" horiz-adv-x="605" 
d="M25 0l196 730h21l-97 -359q31 60 87.5 100.5t133.5 40.5q83 0 126.5 -44t43.5 -119q0 -38 -13 -88l-70 -261h-21l70 261q12 45 12 86q0 67 -37 106t-113 39q-80 0 -149 -58.5t-95 -157.5l-74 -276h-21z" />
    <glyph glyph-name="i" unicode="i" horiz-adv-x="220" 
d="M31 0l134 500h21l-134 -500h-21zM198 643l16 57h31l-16 -57h-31z" />
    <glyph glyph-name="j" unicode="j" horiz-adv-x="220" 
d="M-86 -167q-23 0 -42 7l6 20q16 -7 35 -7q77 0 103 92l149 555h21l-150 -559q-28 -108 -122 -108zM198 643l16 57h31l-16 -57h-31z" />
    <glyph glyph-name="k" unicode="k" horiz-adv-x="543" 
d="M25 0l196 730h21l-152 -566l433 336h29l-285 -220l160 -280h-22l-153 268l-169 -129l-37 -139h-21z" />
    <glyph glyph-name="l" unicode="l" horiz-adv-x="219" 
d="M31 0l196 730h21l-196 -730h-21z" />
    <glyph glyph-name="m" unicode="m" horiz-adv-x="923" 
d="M25 0l134 500h21l-35 -129q73 141 196 141q71 0 111.5 -42t40.5 -114q34 66 88 111t121 45q72 0 112 -42t40 -111q0 -37 -16 -98l-70 -261h-21l70 261q15 58 15 97q0 61 -33.5 97.5t-98.5 36.5q-71 0 -133.5 -64t-87.5 -158l-72 -270h-21l70 261q15 58 15 97
q0 61 -33.5 97.5t-98.5 36.5q-71 0 -133.5 -64t-87.5 -158l-72 -270h-21z" />
    <glyph glyph-name="n" unicode="n" horiz-adv-x="605" 
d="M25 0l134 500h21l-35 -129q31 60 87.5 100.5t133.5 40.5q83 0 126.5 -44t43.5 -119q0 -38 -13 -88l-70 -261h-21l70 261q12 45 12 86q0 67 -37 106t-113 39q-80 0 -149 -58.5t-95 -157.5l-74 -276h-21z" />
    <glyph glyph-name="o" unicode="o" horiz-adv-x="621" 
d="M343 512q99 0 164 -63.5t65 -159.5q0 -125 -92 -217q-84 -84 -202 -84q-99 0 -164 63.5t-65 159.5q0 125 92 217q84 84 202 84zM279 8q108 0 187 79q39 39 61.5 92t22.5 108q0 88 -58 146.5t-150 58.5q-108 0 -187 -79q-39 -39 -61.5 -92t-22.5 -108q0 -88 58 -146.5
t150 -58.5z" />
    <glyph glyph-name="p" unicode="p" horiz-adv-x="650" 
d="M312 -12q-95 0 -152.5 54.5t-67.5 127.5l-89 -330h-21l177 660h21l-34 -126q26 49 93 93.5t148 44.5q90 0 148.5 -61.5t58.5 -151.5q0 -63 -25.5 -125t-70.5 -107q-79 -79 -186 -79zM311 8q98 0 170 72q43 43 67 100.5t24 115.5q0 84 -52.5 140t-133.5 56
q-106 0 -188 -82q-43 -43 -67 -95t-24 -99q0 -91 56 -149.5t148 -58.5z" />
    <glyph glyph-name="q" unicode="q" horiz-adv-x="650" 
d="M259 -12q-90 0 -148.5 61.5t-58.5 151.5q0 63 25.5 125t70.5 107q79 79 186 79q95 0 152.5 -54.5t67.5 -127.5l46 170h21l-177 -660h-21l77 286q-26 -49 -93 -93.5t-148 -44.5zM260 8q106 0 188 82q43 43 67 95t24 99q0 91 -56 149.5t-148 58.5q-98 0 -170 -72
q-43 -43 -67 -100.5t-24 -115.5q0 -84 52.5 -140t133.5 -56z" />
    <glyph glyph-name="r" unicode="r" horiz-adv-x="340" 
d="M25 0l134 500h21l-42 -156q47 78 116.5 123t134.5 45l-5 -20h-2q-71 0 -157 -71.5t-111 -166.5l-68 -254h-21z" />
    <glyph glyph-name="s" unicode="s" horiz-adv-x="490" 
d="M209 -9q-56 0 -111.5 21t-94.5 59l14 15q83 -75 193 -75q75 0 119 35.5t44 78.5q0 45 -30 68.5t-103 52.5q-69 27 -105 55t-36 74q0 54 49 94t131 40q41 0 90.5 -16.5t86.5 -48.5l-14 -15q-70 60 -164 60q-72 0 -114.5 -33.5t-42.5 -78.5q0 -22 9 -39t31 -31t39.5 -22
t52.5 -22q73 -29 107.5 -57t34.5 -79q0 -52 -51 -94t-135 -42z" />
    <glyph glyph-name="t" unicode="t" horiz-adv-x="372" 
d="M190 -9q-110 0 -110 92q0 21 8 51l93 347h-79l5 19h79l46 173h21l-46 -173h185l-5 -19h-185l-93 -347q-8 -29 -8 -49q0 -74 91 -74q37 0 72 15l-6 -23q-29 -12 -68 -12z" />
    <glyph glyph-name="u" unicode="u" horiz-adv-x="605" 
d="M239 -12q-83 0 -126.5 44t-43.5 119q0 38 13 88l70 261h21l-70 -261q-12 -45 -12 -86q0 -67 37 -106t113 -39q80 0 149 58.5t95 157.5l74 276h21l-134 -500h-21l35 129q-31 -60 -87.5 -100.5t-133.5 -40.5z" />
    <glyph glyph-name="v" unicode="v" horiz-adv-x="560" 
d="M198 -4l-94 504h22l85 -476l340 476h24l-363 -504h-14z" />
    <glyph glyph-name="w" unicode="w" horiz-adv-x="805" 
d="M151 -4l-42 504h21l37 -471l289 474h18l33 -474l285 471h23l-307 -504h-18l-34 472l-287 -472h-18z" />
    <glyph glyph-name="x" unicode="x" horiz-adv-x="525" 
d="M136 500l131 -231l254 231h27l-272 -247l145 -253h-23l-137 241l-264 -241h-27l282 257l-139 243h23z" />
    <glyph glyph-name="y" unicode="y" horiz-adv-x="573" 
d="M213 -4l-111 504h22l104 -485l338 485h24l-355 -505q-68 -97 -112 -127.5t-93 -30.5q-59 0 -96 27l11 16q38 -25 85 -25q41 0 82.5 29t100.5 112z" />
    <glyph glyph-name="z" unicode="z" horiz-adv-x="487" 
d="M-32 0l3 12l506 470h-368l5 18h400l-3 -12l-506 -470h382l-5 -18h-414z" />
    <glyph glyph-name="braceleft" unicode="{" horiz-adv-x="440" 
d="M287 -141q-75 20 -111 59t-36 104q0 43 20 117q15 52 15 78q0 25 -21 42t-68 17h-30l6 20h30q68 0 105 37q25 25 37.5 60.5t24.5 90.5q25 119 71 165q59 59 180 65l-2 -21q-109 -7 -160 -58q-28 -28 -42.5 -67t-26.5 -97q-24 -111 -63 -150q-30 -30 -85 -36
q68 -13 68 -70q0 -25 -16 -79q-20 -67 -20 -112q0 -58 31.5 -93t99.5 -53z" />
    <glyph glyph-name="bar" unicode="|" horiz-adv-x="257" 
d="M18 -128l248 926h19l-249 -926h-18z" />
    <glyph glyph-name="braceright" unicode="}" horiz-adv-x="440" 
d="M170 715q75 -20 111 -59t36 -104q0 -43 -20 -117q-15 -52 -15 -78q0 -25 21 -42t68 -17h30l-6 -20h-30q-68 0 -105 -37q-25 -25 -37.5 -60.5t-24.5 -90.5q-25 -119 -71 -165q-59 -59 -180 -65l2 21q109 7 160 58q28 28 42.5 67t26.5 97q24 111 63 150q30 30 85 36
q-68 13 -68 70q0 25 16 79q20 67 20 112q0 58 -31.5 93t-99.5 53z" />
    <glyph glyph-name="asciitilde" unicode="~" horiz-adv-x="440" 
d="M100 253l-12 5q34 84 84 84q27 0 64 -37q33 -33 54 -33q38 0 70 69l12 -5q-32 -84 -84 -84q-27 0 -64 37q-33 33 -54 33q-36 0 -70 -69z" />
    <glyph glyph-name="uni00A0" unicode="&#xa0;" horiz-adv-x="280" 
 />
    <glyph glyph-name="exclamdown" unicode="&#xa1;" horiz-adv-x="194" 
d="M174 517l-104 -409l-29 -108h-22l29 108l116 409h10zM236 700l-14 -52h-36l14 52h36z" />
    <glyph glyph-name="cent" unicode="&#xa2;" horiz-adv-x="561" 
d="M455 706h20l-39 -97q90 -22 139 -111l-18 -10q-45 82 -127 103l-187 -471q30 -9 61 -9q100 0 181 77l13 -13q-87 -83 -195 -83q-37 0 -67 10l-43 -108h-19l45 114q-60 23 -98 75t-38 125q0 127 93 220q88 88 202 88q20 0 40 -3zM105 309q0 -67 33.5 -114.5t87.5 -68.5
l185 469q-22 2 -33 2q-105 0 -186 -81q-87 -87 -87 -207z" />
    <glyph glyph-name="sterling" unicode="&#xa3;" horiz-adv-x="599" 
d="M-9 0l3 13l94 8l79 298h-91l6 20h91l35 128q32 120 91 179q64 64 149 64q59 0 105 -31t71 -83l-19 -10q-51 104 -159 104q-75 0 -131 -56q-55 -55 -87 -173l-33 -122h302l-6 -20h-302l-80 -299h375l-5 -20h-488z" />
    <glyph glyph-name="yen" unicode="&#xa5;" horiz-adv-x="687" 
d="M262 0l32 120h-207l6 20h206l41 150h-206l6 20h194l-174 390h23l174 -388l378 388h28l-381 -390h191l-6 -20h-205l-40 -150h204l-6 -20h-204l-32 -120h-22z" />
    <glyph glyph-name="section" unicode="&#xa7;" horiz-adv-x="610" 
d="M569 330q0 -50 -47 -82.5t-136 -32.5q-20 0 -31 1q96 -43 96 -110q0 -50 -45.5 -83t-118.5 -33q-67 0 -125 23.5t-94 56.5l16 15q81 -75 204 -75q63 0 102 26.5t39 68.5q0 31 -26.5 56.5t-57 39t-82.5 31.5q-31 11 -51 19t-45 21t-39 26t-24 31.5t-10 40.5q0 50 47 82.5
t136 32.5q20 0 31 -1q-96 43 -96 110q0 50 45.5 83t118.5 33q67 0 125 -23.5t94 -56.5l-16 -15q-81 75 -204 75q-63 0 -102 -26.5t-39 -68.5q0 -31 26.5 -56.5t57 -39t82.5 -31.5q31 -11 51 -19t45 -21t39 -26t24 -31.5t10 -40.5zM116 372q0 -35 32 -62.5t119 -56.5
q61 -21 117 -21q78 0 120.5 28t42.5 68q0 35 -32 62.5t-119 56.5q-62 21 -117 21q-78 0 -120.5 -28t-42.5 -68z" />
    <glyph glyph-name="dieresis" unicode="&#xa8;" horiz-adv-x="500" 
d="M263 614l13 50h36l-13 -50h-36zM393 614l13 50h36l-13 -50h-36z" />
    <glyph glyph-name="copyright" unicode="&#xa9;" horiz-adv-x="830" 
d="M417 163q-62 0 -104 41t-42 108q0 98 71 169q64 64 146 64q46 0 81 -21.5t53 -58.5l-17 -8q-36 70 -118 70q-73 0 -130 -57q-66 -66 -66 -157q0 -61 36 -96.5t92 -35.5q71 0 133 60l12 -14q-68 -64 -147 -64zM800 393q0 -80 -31 -156t-88 -133q-116 -116 -279 -116
q-144 0 -232.5 91t-88.5 228q0 80 31 156t88 133q116 116 279 116q144 0 232.5 -91t88.5 -228zM99 305q0 -128 82.5 -214t222.5 -86q154 0 264 110q114 114 114 280q0 128 -82.5 214t-222.5 86q-154 0 -264 -110q-114 -114 -114 -280z" />
    <glyph glyph-name="ordfeminine" unicode="&#xaa;" horiz-adv-x="420" 
d="M231 414q-35 0 -62 20.5t-27 55.5q0 45 34.5 71.5t90.5 26.5t114 -17l3 11q4 15 4 31q0 72 -95 72q-34 0 -78 -14l-3 16q41 15 84 15q50 0 80.5 -22.5t30.5 -64.5q0 -14 -5 -36l-43 -159h-18l16 62q-43 -68 -126 -68zM234 431q50 0 87 28.5t50 73.5l6 22q-54 17 -113 17
q-48 0 -75 -21t-27 -59q0 -30 20.5 -45.5t51.5 -15.5zM88 318l4 15h247l-4 -15h-247z" />
    <glyph glyph-name="guillemotleft" unicode="&#xab;" horiz-adv-x="462" 
d="M162 47l-120 205l1 6l229 203l12 -10l-218 -199l110 -197zM332 47l-120 205l1 6l229 203l12 -10l-218 -199l110 -197z" />
    <glyph glyph-name="registered" unicode="&#xae;" horiz-adv-x="416" 
d="M302 710q69 0 112 -44t43 -109q0 -83 -57 -140t-135 -57q-69 0 -112 44t-43 109q0 83 57 140t135 57zM266 375q70 0 121 51q54 54 54 131q0 59 -37.5 98.5t-102.5 39.5q-70 0 -121 -51q-54 -54 -54 -131q0 -59 37.5 -98.5t102.5 -39.5zM234 518l-18 -68h-19l47 175h63
q62 0 62 -49q0 -48 -60 -57l33 -69h-20l-33 68h-55zM239 535h50q36 0 51 15q10 10 10 26q0 32 -46 32h-46z" />
    <glyph glyph-name="macron" unicode="&#xaf;" horiz-adv-x="500" 
d="M218 621l5 19h260l-5 -19h-260z" />
    <glyph glyph-name="degree" unicode="&#xb0;" horiz-adv-x="430" 
d="M286 705q53 0 87 -34.5t34 -86.5q0 -70 -52 -122q-47 -47 -109 -47q-53 0 -87 34.5t-34 86.5q0 70 52 122q47 47 109 47zM246 434q54 0 94 40q46 46 46 110q0 44 -28 73t-72 29q-54 0 -94 -40q-46 -46 -46 -110q0 -44 28 -73t72 -29z" />
    <glyph glyph-name="plusminus" unicode="&#xb1;" 
d="M265 160l58 213h-219l4 18h219l57 213h20l-57 -213h219l-4 -18h-219l-58 -213h-20zM5 0l4 18h457l-4 -18h-457z" />
    <glyph glyph-name="two.sup" unicode="&#xb2;" horiz-adv-x="400" 
d="M108 426l5 18l225 163q46 33 65.5 60.5t19.5 60.5q0 32 -24 53.5t-65 21.5q-69 0 -127 -69l-16 10q63 78 145 78q48 0 77.5 -26.5t30.5 -65.5q1 -38 -21 -69t-75 -69l-203 -147h242l-6 -19h-273z" />
    <glyph glyph-name="three.sup" unicode="&#xb3;" horiz-adv-x="400" 
d="M250 416q-92 0 -133 72l18 11q37 -64 117 -64q53 0 93 32t40 74q0 37 -28.5 58t-79.5 21h-26l-4 12l191 161h-224l6 19h251l-5 -18l-186 -156q60 0 93 -25.5t33 -69.5q0 -52 -46.5 -89.5t-109.5 -37.5z" />
    <glyph glyph-name="acute" unicode="&#xb4;" horiz-adv-x="500" 
d="M268 595l116 113l24 -12l-124 -101h-16z" />
    <glyph glyph-name="paragraph" unicode="&#xb6;" horiz-adv-x="458" 
d="M264 0l74 277q-119 0 -177 58q-49 49 -49 127q0 92 63 155q83 83 251 83h48l-188 -700h-22z" />
    <glyph glyph-name="periodcentered" unicode="&#xb7;" horiz-adv-x="164" 
d="M68 266l14 52h36l-14 -52h-36z" />
    <glyph glyph-name="cedilla" unicode="&#xb8;" horiz-adv-x="500" 
d="M104 -141l-20 12l122 134h16z" />
    <glyph glyph-name="one.sup" unicode="&#xb9;" horiz-adv-x="325" 
d="M223 426l99 370l-112 -36l-1 18l124 41h16l-105 -393h-21z" />
    <glyph glyph-name="ordmasculine" unicode="&#xba;" horiz-adv-x="420" 
d="M88 318l4 15h277l-4 -15h-277zM166 539q0 -48 29 -77.5t76 -29.5q57 0 100 43q45 45 45 105q0 48 -29 77.5t-76 29.5q-57 0 -100 -43q-45 -45 -45 -105zM436 581q0 -67 -51 -118q-49 -49 -116 -49q-53 0 -88 35t-35 89q0 67 51 118q49 49 116 49q53 0 88 -35t35 -89z" />
    <glyph glyph-name="guillemotright" unicode="&#xbb;" horiz-adv-x="462" 
d="M299 461l120 -205l-1 -6l-229 -203l-12 10l218 199l-110 197zM129 461l120 -205l-1 -6l-229 -203l-12 10l218 199l-110 197z" />
    <glyph glyph-name="onequarter" unicode="&#xbc;" horiz-adv-x="825" 
d="M600 -2l26 99h-203l-4 16l281 279h24l-74 -277h63l-5 -18h-63l-26 -99h-19zM444 115h187l67 251zM55 0l338 355l325 345h27l-339 -355l-324 -345h-27zM161 314l99 370l-112 -36l-1 18l124 41h16l-105 -393h-21z" />
    <glyph glyph-name="onehalf" unicode="&#xbd;" horiz-adv-x="825" 
d="M161 314l99 370l-112 -36l-1 18l124 41h16l-105 -393h-21zM403 0l5 18l225 163q46 33 65.5 60.5t19.5 60.5q0 32 -24 53.5t-65 21.5q-69 0 -127 -69l-16 10q63 78 145 78q48 0 77.5 -26.5t30.5 -65.5q1 -38 -21 -69t-75 -69l-203 -147h242l-6 -19h-273zM45 0l338 355
l325 345h27l-339 -355l-324 -345h-27z" />
    <glyph glyph-name="threequarters" unicode="&#xbe;" horiz-adv-x="900" 
d="M675 -2l26 99h-203l-4 16l281 279h24l-74 -277h63l-5 -18h-63l-26 -99h-19zM519 115h187l67 251zM193 304q-92 0 -133 72l18 11q37 -64 117 -64q53 0 93 32t40 74q0 37 -28.5 58t-79.5 21h-26l-4 12l191 161h-224l6 19h251l-5 -18l-186 -156q60 0 93 -25.5t33 -69.5
q0 -52 -46.5 -89.5t-109.5 -37.5zM125 0l338 355l325 345h27l-339 -355l-324 -345h-27z" />
    <glyph glyph-name="questiondown" unicode="&#xbf;" horiz-adv-x="501" 
d="M355 517l-35 -157l-3 -3q-115 -11 -190.5 -60t-75.5 -136q0 -65 47 -107.5t130 -42.5q114 0 211 95l14 -14q-103 -101 -226 -101q-92 0 -145 48.5t-53 120.5q0 93 76 146.5t194 68.5l46 142h10zM417 700l-14 -52h-36l14 52h36z" />
    <glyph glyph-name="Agrave" unicode="&#xc0;" horiz-adv-x="767" 
d="M-25 0l526 705h19l145 -705h-21l-43 210h-445l-156 -210h-25zM171 230h426l-92 447zM503 770l-80 87l24 12l72 -99h-16z" />
    <glyph glyph-name="Aacute" unicode="&#xc1;" horiz-adv-x="767" 
d="M-25 0l526 705h19l145 -705h-21l-43 210h-445l-156 -210h-25zM171 230h426l-92 447zM513 770l126 99l22 -12l-128 -87h-20z" />
    <glyph glyph-name="Acircumflex" unicode="&#xc2;" horiz-adv-x="767" 
d="M-25 0l526 705h19l145 -705h-21l-43 210h-445l-156 -210h-25zM171 230h426l-92 447zM408 765l131 97h18l81 -97h-19l-74 75l-114 -75h-23z" />
    <glyph glyph-name="Atilde" unicode="&#xc3;" horiz-adv-x="767" 
d="M-25 0l526 705h19l145 -705h-21l-43 210h-445l-156 -210h-25zM171 230h426l-92 447zM410 776l-12 3q30 74 84 74q21 0 65 -27q38 -25 56 -25q38 0 68 57l12 -3q-30 -74 -84 -74q-21 0 -65 27q-38 25 -56 25q-38 0 -68 -57z" />
    <glyph glyph-name="Adieresis" unicode="&#xc4;" horiz-adv-x="767" 
d="M-25 0l526 705h19l145 -705h-21l-43 210h-445l-156 -210h-25zM171 230h426l-92 447zM446 789l13 50h38l-13 -50h-38zM586 789l13 50h38l-13 -50h-38z" />
    <glyph glyph-name="Aring" unicode="&#xc5;" horiz-adv-x="767" 
d="M-25 0l507 681q-61 15 -61 74q0 41 35 69.5t80 28.5q44 0 68.5 -22t24.5 -56q0 -38 -31 -66t-72 -32l139 -677h-21l-43 210h-445l-156 -210h-25zM171 230h426l-92 447zM516 693q36 0 65 23t29 58q0 28 -20 45.5t-56 17.5t-65 -23t-29 -58q0 -28 20 -45.5t56 -17.5z" />
    <glyph glyph-name="AE" unicode="&#xc6;" horiz-adv-x="1023" 
d="M-58 0l636 700h498l-6 -20h-451l-86 -318h409l-5 -20h-409l-87 -322h457l-5 -20h-479l56 210h-311l-191 -210h-26zM177 230h299l121 450h-11z" />
    <glyph glyph-name="Ccedilla" unicode="&#xc7;" horiz-adv-x="726" 
d="M260 -141l-20 12l107 118q-109 8 -181.5 83.5t-72.5 196.5q0 90 35.5 174t98.5 147q122 122 283 122q85 0 151 -40.5t99 -111.5l-19 -8q-31 63 -91 101.5t-140 38.5q-153 0 -266 -113q-129 -129 -129 -310q0 -119 73.5 -190t183.5 -71q151 0 264 115l14 -14
q-121 -121 -280 -121h-6z" />
    <glyph glyph-name="Egrave" unicode="&#xc8;" horiz-adv-x="661" 
d="M37 0l188 700h489l-6 -20h-466l-86 -318h424l-5 -20h-424l-87 -322h472l-5 -20h-494zM454 765l-80 87l24 12l72 -99h-16z" />
    <glyph glyph-name="Eacute" unicode="&#xc9;" horiz-adv-x="661" 
d="M37 0l188 700h489l-6 -20h-466l-86 -318h424l-5 -20h-424l-87 -322h472l-5 -20h-494zM464 765l126 99l22 -12l-128 -87h-20z" />
    <glyph glyph-name="Ecircumflex" unicode="&#xca;" horiz-adv-x="661" 
d="M37 0l188 700h489l-6 -20h-466l-86 -318h424l-5 -20h-424l-87 -322h472l-5 -20h-494zM359 765l131 97h18l81 -97h-19l-74 75l-114 -75h-23z" />
    <glyph glyph-name="Edieresis" unicode="&#xcb;" horiz-adv-x="661" 
d="M37 0l188 700h489l-6 -20h-466l-86 -318h424l-5 -20h-424l-87 -322h472l-5 -20h-494zM396 784l13 50h38l-13 -50h-38zM536 784l13 50h38l-13 -50h-38z" />
    <glyph glyph-name="Igrave" unicode="&#xcc;" horiz-adv-x="244" 
d="M43 0l188 700h22l-188 -700h-22zM233 765l-80 87l24 12l72 -99h-16z" />
    <glyph glyph-name="Iacute" unicode="&#xcd;" horiz-adv-x="244" 
d="M43 0l188 700h22l-188 -700h-22zM243 765l126 99l22 -12l-128 -87h-20z" />
    <glyph glyph-name="Icircumflex" unicode="&#xce;" horiz-adv-x="244" 
d="M43 0l188 700h22l-188 -700h-22zM138 765l131 97h18l81 -97h-19l-74 75l-114 -75h-23z" />
    <glyph glyph-name="Idieresis" unicode="&#xcf;" horiz-adv-x="244" 
d="M43 0l188 700h22l-188 -700h-22zM175 784l13 50h38l-13 -50h-38zM315 784l13 50h38l-13 -50h-38z" />
    <glyph glyph-name="Eth" unicode="&#xd0;" horiz-adv-x="763" 
d="M52 342l5 20h77l91 338h140q186 0 282 -96q76 -76 76 -198q0 -165 -110 -275q-131 -131 -357 -131h-219l92 342h-77zM631 590q-89 90 -260 90h-130l-85 -318h250l-5 -20h-251l-86 -322h196q212 0 337 125q104 104 104 260q0 115 -70 185z" />
    <glyph glyph-name="Ntilde" unicode="&#xd1;" horiz-adv-x="782" 
d="M37 0l188 700h20l352 -670l180 670h21l-188 -700h-20l-352 670l-180 -670h-21zM409 766l-12 3q30 74 84 74q21 0 65 -27q38 -25 56 -25q38 0 68 57l12 -3q-30 -74 -84 -74q-21 0 -65 27q-38 25 -56 25q-38 0 -68 -57z" />
    <glyph glyph-name="Ograve" unicode="&#xd2;" horiz-adv-x="838" 
d="M494 712q132 0 216 -87t84 -216q0 -85 -34 -165t-94 -140q-116 -116 -269 -116q-132 0 -216 87t-84 216q0 85 34 165t94 140q116 116 269 116zM398 8q144 0 252 108q58 58 90 134t32 158q0 121 -78 202.5t-201 81.5q-144 0 -252 -108q-58 -58 -90 -134t-32 -158
q0 -121 78 -202.5t201 -81.5zM524 770l-80 87l24 12l72 -99h-16z" />
    <glyph glyph-name="Oacute" unicode="&#xd3;" horiz-adv-x="838" 
d="M494 712q132 0 216 -87t84 -216q0 -85 -34 -165t-94 -140q-116 -116 -269 -116q-132 0 -216 87t-84 216q0 85 34 165t94 140q116 116 269 116zM398 8q144 0 252 108q58 58 90 134t32 158q0 121 -78 202.5t-201 81.5q-144 0 -252 -108q-58 -58 -90 -134t-32 -158
q0 -121 78 -202.5t201 -81.5zM534 770l126 99l22 -12l-128 -87h-20z" />
    <glyph glyph-name="Ocircumflex" unicode="&#xd4;" horiz-adv-x="838" 
d="M494 712q132 0 216 -87t84 -216q0 -85 -34 -165t-94 -140q-116 -116 -269 -116q-132 0 -216 87t-84 216q0 85 34 165t94 140q116 116 269 116zM398 8q144 0 252 108q58 58 90 134t32 158q0 121 -78 202.5t-201 81.5q-144 0 -252 -108q-58 -58 -90 -134t-32 -158
q0 -121 78 -202.5t201 -81.5zM430 770l131 97h18l81 -97h-19l-74 75l-114 -75h-23z" />
    <glyph glyph-name="Otilde" unicode="&#xd5;" horiz-adv-x="838" 
d="M494 712q132 0 216 -87t84 -216q0 -85 -34 -165t-94 -140q-116 -116 -269 -116q-132 0 -216 87t-84 216q0 85 34 165t94 140q116 116 269 116zM398 8q144 0 252 108q58 58 90 134t32 158q0 121 -78 202.5t-201 81.5q-144 0 -252 -108q-58 -58 -90 -134t-32 -158
q0 -121 78 -202.5t201 -81.5zM430 776l-12 3q30 74 84 74q21 0 65 -27q38 -25 56 -25q38 0 68 57l12 -3q-30 -74 -84 -74q-21 0 -65 27q-38 25 -56 25q-38 0 -68 -57z" />
    <glyph glyph-name="Odieresis" unicode="&#xd6;" horiz-adv-x="838" 
d="M494 712q132 0 216 -87t84 -216q0 -85 -34 -165t-94 -140q-116 -116 -269 -116q-132 0 -216 87t-84 216q0 85 34 165t94 140q116 116 269 116zM398 8q144 0 252 108q58 58 90 134t32 158q0 121 -78 202.5t-201 81.5q-144 0 -252 -108q-58 -58 -90 -134t-32 -158
q0 -121 78 -202.5t201 -81.5zM467 789l13 50h38l-13 -50h-38zM607 789l13 50h38l-13 -50h-38z" />
    <glyph glyph-name="multiply" unicode="&#xd7;" 
d="M79 146l-12 16l244 192l-141 191l17 13l140 -192l244 193l12 -16l-244 -192l139 -192l-17 -13l-138 193z" />
    <glyph glyph-name="Oslash" unicode="&#xd8;" horiz-adv-x="838" 
d="M494 712q150 0 237 -111l124 104h28l-142 -119q53 -78 53 -177q0 -85 -34 -165t-94 -140q-116 -116 -269 -116q-150 0 -237 111l-124 -104h-28l142 119q-53 76 -53 177q0 85 34 165t94 140q116 116 269 116zM119 292q0 -94 46 -165l550 460q-80 105 -222 105
q-144 0 -252 -108q-58 -58 -90 -134t-32 -158zM398 8q144 0 252 108q58 58 90 134t32 158q0 93 -47 165l-549 -461q78 -104 222 -104z" />
    <glyph glyph-name="Ugrave" unicode="&#xd9;" horiz-adv-x="752" 
d="M344 -11q-109 0 -177.5 56.5t-68.5 167.5q0 53 18 122l98 365h22l-99 -368q-17 -65 -17 -117q0 -102 61.5 -154t163.5 -52q117 0 197 80q69 69 110 220l105 391h22l-107 -397q-42 -155 -115 -228q-86 -86 -213 -86zM480 760l-80 87l24 12l72 -99h-16z" />
    <glyph glyph-name="Uacute" unicode="&#xda;" horiz-adv-x="752" 
d="M344 -11q-109 0 -177.5 56.5t-68.5 167.5q0 53 18 122l98 365h22l-99 -368q-17 -65 -17 -117q0 -102 61.5 -154t163.5 -52q117 0 197 80q69 69 110 220l105 391h22l-107 -397q-42 -155 -115 -228q-86 -86 -213 -86zM490 760l126 99l22 -12l-128 -87h-20z" />
    <glyph glyph-name="Ucircumflex" unicode="&#xdb;" horiz-adv-x="752" 
d="M344 -11q-109 0 -177.5 56.5t-68.5 167.5q0 53 18 122l98 365h22l-99 -368q-17 -65 -17 -117q0 -102 61.5 -154t163.5 -52q117 0 197 80q69 69 110 220l105 391h22l-107 -397q-42 -155 -115 -228q-86 -86 -213 -86zM386 760l131 97h18l81 -97h-19l-74 75l-114 -75h-23z
" />
    <glyph glyph-name="Udieresis" unicode="&#xdc;" horiz-adv-x="752" 
d="M344 -11q-109 0 -177.5 56.5t-68.5 167.5q0 53 18 122l98 365h22l-99 -368q-17 -65 -17 -117q0 -102 61.5 -154t163.5 -52q117 0 197 80q69 69 110 220l105 391h22l-107 -397q-42 -155 -115 -228q-86 -86 -213 -86zM423 779l13 50h38l-13 -50h-38zM563 779l13 50h38
l-13 -50h-38z" />
    <glyph glyph-name="Yacute" unicode="&#xdd;" horiz-adv-x="664" 
d="M248 0l79 294l-184 406h23l176 -389l386 389h28l-408 -410l-78 -290h-22zM439 760l126 99l22 -12l-128 -87h-20z" />
    <glyph glyph-name="Thorn" unicode="&#xde;" horiz-adv-x="670" 
d="M37 0l188 700h22l-36 -135h191q133 0 196 -63q46 -46 46 -124q0 -89 -61 -150q-88 -88 -268 -88h-218l-38 -140h-22zM102 160h214q167 0 249 82q57 57 57 135q0 70 -41 111q-57 57 -180 57h-196z" />
    <glyph glyph-name="germandbls" unicode="&#xdf;" horiz-adv-x="571" 
d="M199 -2l5 20q123 -1 200 50.5t77 132.5q0 126 -187 161l5 17q236 40 236 201q0 59 -39 98t-106 39q-74 0 -128.5 -56.5t-79.5 -150.5l-136 -510h-21l138 515q28 102 85 159q62 62 141 62q74 0 121.5 -43.5t47.5 -112.5q0 -88 -61 -139.5t-157 -71.5q163 -41 163 -168
q0 -90 -84 -147t-220 -56z" />
    <glyph glyph-name="agrave" unicode="&#xe0;" horiz-adv-x="566" 
d="M186 -12q-64 0 -112 37t-48 100q0 69 45 114q60 60 180 60q113 0 212 -31l6 23q9 33 9 61q0 66 -49 101t-130 35q-69 0 -140 -25l-6 20q69 25 148 25q89 0 143 -39.5t54 -115.5q0 -29 -9 -65l-77 -288h-21l32 119q-33 -59 -93 -95t-144 -36zM190 7q96 0 164.5 56.5
t91.5 141.5l12 44q-99 30 -211 30q-107 0 -160 -53q-39 -39 -39 -98q0 -57 43 -89t99 -32zM348 595l-70 101l26 12l56 -113h-12z" />
    <glyph glyph-name="aacute" unicode="&#xe1;" horiz-adv-x="566" 
d="M186 -12q-64 0 -112 37t-48 100q0 69 45 114q60 60 180 60q113 0 212 -31l6 23q9 33 9 61q0 66 -49 101t-130 35q-69 0 -140 -25l-6 20q69 25 148 25q89 0 143 -39.5t54 -115.5q0 -29 -9 -65l-77 -288h-21l32 119q-33 -59 -93 -95t-144 -36zM190 7q96 0 164.5 56.5
t91.5 141.5l12 44q-99 30 -211 30q-107 0 -160 -53q-39 -39 -39 -98q0 -57 43 -89t99 -32zM352 595l116 113l24 -12l-124 -101h-16z" />
    <glyph glyph-name="acircumflex" unicode="&#xe2;" horiz-adv-x="566" 
d="M186 -12q-64 0 -112 37t-48 100q0 69 45 114q60 60 180 60q113 0 212 -31l6 23q9 33 9 61q0 66 -49 101t-130 35q-69 0 -140 -25l-6 20q69 25 148 25q89 0 143 -39.5t54 -115.5q0 -29 -9 -65l-77 -288h-21l32 119q-33 -59 -93 -95t-144 -36zM190 7q96 0 164.5 56.5
t91.5 141.5l12 44q-99 30 -211 30q-107 0 -160 -53q-39 -39 -39 -98q0 -57 43 -89t99 -32zM249 595l137 112h12l75 -112h-15l-71 86l-118 -86h-20z" />
    <glyph glyph-name="atilde" unicode="&#xe3;" horiz-adv-x="566" 
d="M186 -12q-64 0 -112 37t-48 100q0 69 45 114q60 60 180 60q113 0 212 -31l6 23q9 33 9 61q0 66 -49 101t-130 35q-69 0 -140 -25l-6 20q69 25 148 25q89 0 143 -39.5t54 -115.5q0 -29 -9 -65l-77 -288h-21l32 119q-33 -59 -93 -95t-144 -36zM190 7q96 0 164.5 56.5
t91.5 141.5l12 44q-99 30 -211 30q-107 0 -160 -53q-39 -39 -39 -98q0 -57 43 -89t99 -32zM505 689l13 -3q-30 -80 -83 -80q-22 0 -67 31q-39 27 -57 27q-37 0 -67 -63l-13 3q30 80 83 80q22 0 67 -31q39 -27 57 -27q37 0 67 63z" />
    <glyph glyph-name="adieresis" unicode="&#xe4;" horiz-adv-x="566" 
d="M186 -12q-64 0 -112 37t-48 100q0 69 45 114q60 60 180 60q113 0 212 -31l6 23q9 33 9 61q0 66 -49 101t-130 35q-69 0 -140 -25l-6 20q69 25 148 25q89 0 143 -39.5t54 -115.5q0 -29 -9 -65l-77 -288h-21l32 119q-33 -59 -93 -95t-144 -36zM190 7q96 0 164.5 56.5
t91.5 141.5l12 44q-99 30 -211 30q-107 0 -160 -53q-39 -39 -39 -98q0 -57 43 -89t99 -32zM286 614l13 50h36l-13 -50h-36zM416 614l13 50h36l-13 -50h-36z" />
    <glyph glyph-name="aring" unicode="&#xe5;" horiz-adv-x="566" 
d="M186 -12q-64 0 -112 37t-48 100q0 69 45 114q60 60 180 60q113 0 212 -31l6 23q9 33 9 61q0 66 -49 101t-130 35q-69 0 -140 -25l-6 20q69 25 148 25q89 0 143 -39.5t54 -115.5q0 -29 -9 -65l-77 -288h-21l32 119q-33 -59 -93 -95t-144 -36zM190 7q96 0 164.5 56.5
t91.5 141.5l12 44q-99 30 -211 30q-107 0 -160 -53q-39 -39 -39 -98q0 -57 43 -89t99 -32zM486 696q0 -42 -32.5 -72t-72.5 -30t-64.5 23.5t-24.5 60.5q0 42 32.5 72t72.5 30t64.5 -23.5t24.5 -60.5zM310 679q0 -31 19.5 -50t52.5 -19t59.5 25t26.5 60q0 31 -19.5 50
t-52.5 19t-59.5 -25t-26.5 -60z" />
    <glyph glyph-name="ae" unicode="&#xe6;" horiz-adv-x="988" 
d="M674 -12q-82 0 -137 37t-75 103q-108 -140 -269 -140q-68 0 -117.5 37t-49.5 100q0 69 45 114q60 60 180 60q113 0 212 -31l6 23q9 33 9 61q0 66 -49 101t-130 35q-69 0 -140 -25l-6 20q69 25 148 25q89 0 142 -39t53 -115q38 71 103.5 114.5t140.5 43.5q98 0 146.5 -57
t48.5 -139q0 -36 -11 -72h-448q-3 -23 -3 -46q0 -87 54 -138.5t147 -51.5q101 0 185 71l13 -15q-89 -76 -198 -76zM195 7q74 0 145 38t117 104q-9 45 0 100q-99 30 -210 30q-107 0 -160 -53q-39 -39 -39 -98q0 -58 44 -89.5t103 -31.5zM564 415q-64 -64 -84 -152h427
q6 36 6 54q0 74 -43 124.5t-130 50.5q-99 0 -176 -77z" />
    <glyph glyph-name="ccedilla" unicode="&#xe7;" horiz-adv-x="552" 
d="M151 -141l-20 12l108 119q-79 10 -135 67.5t-56 146.5q0 127 94 221q87 87 201 87q71 0 121 -34t76 -84l-18 -10q-57 108 -180 108q-105 0 -186 -81q-86 -86 -86 -206q0 -90 59.5 -143.5t139.5 -53.5q95 0 180 76l14 -13q-92 -83 -195 -83q-2 0 -6.5 0.5t-6.5 0.5z" />
    <glyph glyph-name="egrave" unicode="&#xe8;" horiz-adv-x="586" 
d="M522 244h-448q-3 -22 -3 -46q0 -87 54 -138.5t147 -51.5q101 0 185 71l13 -15q-89 -76 -198 -76q-102 0 -162.5 56.5t-60.5 151.5q0 65 26 126t71 106q84 84 192 84q98 0 146.5 -57t48.5 -139q-2 -41 -11 -72zM162 415q-64 -64 -84 -152h427q6 36 6 54q0 74 -43 124.5
t-130 50.5q-99 0 -176 -77zM367 595l-70 101l26 12l56 -113h-12z" />
    <glyph glyph-name="eacute" unicode="&#xe9;" horiz-adv-x="586" 
d="M522 244h-448q-3 -22 -3 -46q0 -87 54 -138.5t147 -51.5q101 0 185 71l13 -15q-89 -76 -198 -76q-102 0 -162.5 56.5t-60.5 151.5q0 65 26 126t71 106q84 84 192 84q98 0 146.5 -57t48.5 -139q-2 -41 -11 -72zM162 415q-64 -64 -84 -152h427q6 36 6 54q0 74 -43 124.5
t-130 50.5q-99 0 -176 -77zM371 595l116 113l24 -12l-124 -101h-16z" />
    <glyph glyph-name="ecircumflex" unicode="&#xea;" horiz-adv-x="586" 
d="M522 244h-448q-3 -22 -3 -46q0 -87 54 -138.5t147 -51.5q101 0 185 71l13 -15q-89 -76 -198 -76q-102 0 -162.5 56.5t-60.5 151.5q0 65 26 126t71 106q84 84 192 84q98 0 146.5 -57t48.5 -139q-2 -41 -11 -72zM162 415q-64 -64 -84 -152h427q6 36 6 54q0 74 -43 124.5
t-130 50.5q-99 0 -176 -77zM269 595l137 112h12l75 -112h-15l-71 86l-118 -86h-20z" />
    <glyph glyph-name="edieresis" unicode="&#xeb;" horiz-adv-x="586" 
d="M522 244h-448q-3 -22 -3 -46q0 -87 54 -138.5t147 -51.5q101 0 185 71l13 -15q-89 -76 -198 -76q-102 0 -162.5 56.5t-60.5 151.5q0 65 26 126t71 106q84 84 192 84q98 0 146.5 -57t48.5 -139q-2 -41 -11 -72zM162 415q-64 -64 -84 -152h427q6 36 6 54q0 74 -43 124.5
t-130 50.5q-99 0 -176 -77zM306 614l13 50h36l-13 -50h-36zM436 614l13 50h36l-13 -50h-36z" />
    <glyph glyph-name="igrave" unicode="&#xec;" horiz-adv-x="220" 
d="M31 0l134 500h21l-134 -500h-21zM184 595l-70 101l26 12l56 -113h-12z" />
    <glyph glyph-name="iacute" unicode="&#xed;" horiz-adv-x="220" 
d="M31 0l134 500h21l-134 -500h-21zM188 595l116 113l24 -12l-124 -101h-16z" />
    <glyph glyph-name="icircumflex" unicode="&#xee;" horiz-adv-x="220" 
d="M31 0l134 500h21l-134 -500h-21zM86 595l137 112h12l75 -112h-15l-71 86l-118 -86h-20z" />
    <glyph glyph-name="idieresis" unicode="&#xef;" horiz-adv-x="220" 
d="M31 0l134 500h21l-134 -500h-21zM123 614l13 50h36l-13 -50h-36zM253 614l13 50h36l-13 -50h-36z" />
    <glyph glyph-name="eth" unicode="&#xf0;" horiz-adv-x="616" 
d="M270 584l-8 17l142 67l-57 62h28q23 -23 48 -53l121 57l8 -17l-117 -55q130 -166 130 -344q0 -153 -95 -248q-82 -82 -196 -82q-101 0 -162 62.5t-61 160.5q0 59 24.5 117t67.5 101q82 82 194 82q148 0 207 -131q-26 144 -128 273zM275 8q104 0 182 78q40 40 63 94
t23 109q0 88 -57 145t-150 57q-102 0 -178 -76q-85 -85 -85 -201q0 -92 54.5 -149t147.5 -57z" />
    <glyph glyph-name="ntilde" unicode="&#xf1;" horiz-adv-x="605" 
d="M25 0l134 500h21l-35 -129q31 60 87.5 100.5t133.5 40.5q83 0 126.5 -44t43.5 -119q0 -38 -13 -88l-70 -261h-21l70 261q12 45 12 86q0 67 -37 106t-113 39q-80 0 -149 -58.5t-95 -157.5l-74 -276h-21zM531 689l13 -3q-30 -80 -83 -80q-22 0 -67 31q-39 27 -57 27
q-37 0 -67 -63l-13 3q30 80 83 80q22 0 67 -31q39 -27 57 -27q37 0 67 63z" />
    <glyph glyph-name="ograve" unicode="&#xf2;" horiz-adv-x="621" 
d="M343 512q99 0 164 -63.5t65 -159.5q0 -125 -92 -217q-84 -84 -202 -84q-99 0 -164 63.5t-65 159.5q0 125 92 217q84 84 202 84zM279 8q108 0 187 79q39 39 61.5 92t22.5 108q0 88 -58 146.5t-150 58.5q-108 0 -187 -79q-39 -39 -61.5 -92t-22.5 -108q0 -88 58 -146.5
t150 -58.5zM379 595l-70 101l26 12l56 -113h-12z" />
    <glyph glyph-name="oacute" unicode="&#xf3;" horiz-adv-x="621" 
d="M343 512q99 0 164 -63.5t65 -159.5q0 -125 -92 -217q-84 -84 -202 -84q-99 0 -164 63.5t-65 159.5q0 125 92 217q84 84 202 84zM279 8q108 0 187 79q39 39 61.5 92t22.5 108q0 88 -58 146.5t-150 58.5q-108 0 -187 -79q-39 -39 -61.5 -92t-22.5 -108q0 -88 58 -146.5
t150 -58.5zM383 595l116 113l24 -12l-124 -101h-16z" />
    <glyph glyph-name="ocircumflex" unicode="&#xf4;" horiz-adv-x="621" 
d="M343 512q99 0 164 -63.5t65 -159.5q0 -125 -92 -217q-84 -84 -202 -84q-99 0 -164 63.5t-65 159.5q0 125 92 217q84 84 202 84zM279 8q108 0 187 79q39 39 61.5 92t22.5 108q0 88 -58 146.5t-150 58.5q-108 0 -187 -79q-39 -39 -61.5 -92t-22.5 -108q0 -88 58 -146.5
t150 -58.5zM281 595l137 112h12l75 -112h-15l-71 86l-118 -86h-20z" />
    <glyph glyph-name="otilde" unicode="&#xf5;" horiz-adv-x="621" 
d="M343 512q99 0 164 -63.5t65 -159.5q0 -125 -92 -217q-84 -84 -202 -84q-99 0 -164 63.5t-65 159.5q0 125 92 217q84 84 202 84zM279 8q108 0 187 79q39 39 61.5 92t22.5 108q0 88 -58 146.5t-150 58.5q-108 0 -187 -79q-39 -39 -61.5 -92t-22.5 -108q0 -88 58 -146.5
t150 -58.5zM537 689l13 -3q-30 -80 -83 -80q-22 0 -67 31q-39 27 -57 27q-37 0 -67 -63l-13 3q30 80 83 80q22 0 67 -31q39 -27 57 -27q37 0 67 63z" />
    <glyph glyph-name="odieresis" unicode="&#xf6;" horiz-adv-x="621" 
d="M343 512q99 0 164 -63.5t65 -159.5q0 -125 -92 -217q-84 -84 -202 -84q-99 0 -164 63.5t-65 159.5q0 125 92 217q84 84 202 84zM279 8q108 0 187 79q39 39 61.5 92t22.5 108q0 88 -58 146.5t-150 58.5q-108 0 -187 -79q-39 -39 -61.5 -92t-22.5 -108q0 -88 58 -146.5
t150 -58.5zM318 614l13 50h36l-13 -50h-36zM448 614l13 50h36l-13 -50h-36z" />
    <glyph glyph-name="divide" unicode="&#xf7;" 
d="M245 115l14 52h36l-14 -52h-36zM95 343l5 18h458l-5 -18h-458zM358 537l14 52h36l-14 -52h-36z" />
    <glyph glyph-name="oslash" unicode="&#xf8;" horiz-adv-x="621" 
d="M343 512q110 0 177 -78l86 71h27l-102 -84q41 -58 41 -132q0 -125 -92 -217q-84 -84 -202 -84q-112 0 -178 77l-85 -70h-27l102 84q-41 57 -41 132q0 125 92 217q84 84 202 84zM550 287q0 67 -35 120l-399 -329q59 -70 163 -70q108 0 187 79q39 39 61.5 92t22.5 108z
M342 492q-108 0 -187 -79q-39 -39 -61.5 -92t-22.5 -108q0 -71 35 -121l398 329q-58 71 -162 71z" />
    <glyph glyph-name="ugrave" unicode="&#xf9;" horiz-adv-x="605" 
d="M239 -12q-83 0 -126.5 44t-43.5 119q0 38 13 88l70 261h21l-70 -261q-12 -45 -12 -86q0 -67 37 -106t113 -39q80 0 149 58.5t95 157.5l74 276h21l-134 -500h-21l35 129q-31 -60 -87.5 -100.5t-133.5 -40.5zM365 590l-70 101l26 12l56 -113h-12z" />
    <glyph glyph-name="uacute" unicode="&#xfa;" horiz-adv-x="605" 
d="M239 -12q-83 0 -126.5 44t-43.5 119q0 38 13 88l70 261h21l-70 -261q-12 -45 -12 -86q0 -67 37 -106t113 -39q80 0 149 58.5t95 157.5l74 276h21l-134 -500h-21l35 129q-31 -60 -87.5 -100.5t-133.5 -40.5zM369 590l116 113l24 -12l-124 -101h-16z" />
    <glyph glyph-name="ucircumflex" unicode="&#xfb;" horiz-adv-x="605" 
d="M239 -12q-83 0 -126.5 44t-43.5 119q0 38 13 88l70 261h21l-70 -261q-12 -45 -12 -86q0 -67 37 -106t113 -39q80 0 149 58.5t95 157.5l74 276h21l-134 -500h-21l35 129q-31 -60 -87.5 -100.5t-133.5 -40.5zM267 590l137 112h12l75 -112h-15l-71 86l-118 -86h-20z" />
    <glyph glyph-name="udieresis" unicode="&#xfc;" horiz-adv-x="605" 
d="M239 -12q-83 0 -126.5 44t-43.5 119q0 38 13 88l70 261h21l-70 -261q-12 -45 -12 -86q0 -67 37 -106t113 -39q80 0 149 58.5t95 157.5l74 276h21l-134 -500h-21l35 129q-31 -60 -87.5 -100.5t-133.5 -40.5zM304 609l13 50h36l-13 -50h-36zM434 609l13 50h36l-13 -50h-36z
" />
    <glyph glyph-name="yacute" unicode="&#xfd;" horiz-adv-x="573" 
d="M213 -4l-111 504h22l104 -485l338 485h24l-355 -505q-68 -97 -112 -127.5t-93 -30.5q-59 0 -96 27l11 16q38 -25 85 -25q41 0 82.5 29t100.5 112zM347 590l116 113l24 -12l-124 -101h-16z" />
    <glyph glyph-name="thorn" unicode="&#xfe;" horiz-adv-x="650" 
d="M242 730l-96 -356q26 49 93 93.5t148 44.5q90 0 148.5 -61.5t58.5 -151.5q0 -63 -25.5 -125t-70.5 -107q-79 -79 -186 -79q-95 0 -152.5 54.5t-67.5 127.5l-89 -330h-21l239 890h21zM311 8q98 0 170 72q43 43 67 100.5t24 115.5q0 84 -52.5 140t-133.5 56
q-106 0 -188 -82q-43 -43 -67 -95t-24 -99q0 -91 56 -149.5t148 -58.5z" />
    <glyph glyph-name="ydieresis" unicode="&#xff;" horiz-adv-x="573" 
d="M213 -4l-111 504h22l104 -485l338 485h24l-355 -505q-68 -97 -112 -127.5t-93 -30.5q-59 0 -96 27l11 16q38 -25 85 -25q41 0 82.5 29t100.5 112zM281 609l13 50h36l-13 -50h-36zM411 609l13 50h36l-13 -50h-36z" />
    <glyph glyph-name="Amacron" unicode="&#x100;" horiz-adv-x="767" 
d="M-25 0l526 705h19l145 -705h-21l-43 210h-445l-156 -210h-25zM171 230h426l-92 447zM402 796l5 20h272l-5 -20h-272z" />
    <glyph glyph-name="amacron" unicode="&#x101;" horiz-adv-x="566" 
d="M186 -12q-64 0 -112 37t-48 100q0 69 45 114q60 60 180 60q113 0 212 -31l6 23q9 33 9 61q0 66 -49 101t-130 35q-69 0 -140 -25l-6 20q69 25 148 25q89 0 143 -39.5t54 -115.5q0 -29 -9 -65l-77 -288h-21l32 119q-33 -59 -93 -95t-144 -36zM190 7q96 0 164.5 56.5
t91.5 141.5l12 44q-99 30 -211 30q-107 0 -160 -53q-39 -39 -39 -98q0 -57 43 -89t99 -32zM241 621l5 19h260l-5 -19h-260z" />
    <glyph glyph-name="Abreve" unicode="&#x102;" horiz-adv-x="767" 
d="M-25 0l526 705h19l145 -705h-21l-43 210h-445l-156 -210h-25zM171 230h426l-92 447zM534 769q-55 0 -82 23.5t-24 60.5h17q2 -64 89 -64q90 0 128 64h18q-41 -84 -146 -84z" />
    <glyph glyph-name="abreve" unicode="&#x103;" horiz-adv-x="566" 
d="M186 -12q-64 0 -112 37t-48 100q0 69 45 114q60 60 180 60q113 0 212 -31l6 23q9 33 9 61q0 66 -49 101t-130 35q-69 0 -140 -25l-6 20q69 25 148 25q89 0 143 -39.5t54 -115.5q0 -29 -9 -65l-77 -288h-21l32 119q-33 -59 -93 -95t-144 -36zM190 7q96 0 164.5 56.5
t91.5 141.5l12 44q-99 30 -211 30q-107 0 -160 -53q-39 -39 -39 -98q0 -57 43 -89t99 -32zM367 594q-53 0 -80 27.5t-22 71.5h16q-2 -38 20 -59t68 -21q88 0 129 80h17q-42 -99 -148 -99z" />
    <glyph glyph-name="Aogonek" unicode="&#x104;" horiz-adv-x="767" 
d="M651 -143l-4 -16q-42 0 -67.5 16.5t-25.5 43.5q0 50 89 104l-42 205h-445l-156 -210h-25l526 705h19l145 -705h-5q-82 -53 -82 -96t73 -47zM171 230h426l-92 447z" />
    <glyph glyph-name="aogonek" unicode="&#x105;" horiz-adv-x="566" 
d="M400 -143l-4 -16q-42 0 -67.5 16.5t-25.5 43.5q0 50 89 104l31 114q-33 -59 -93 -95t-144 -36q-64 0 -112 37t-48 100q0 69 45 114q60 60 180 60q113 0 212 -31l6 23q9 33 9 61q0 66 -49 101t-130 35q-69 0 -140 -25l-6 20q69 25 148 25q89 0 143 -39.5t54 -115.5
q0 -29 -9 -65l-77 -288h-3q-82 -53 -82 -96t73 -47zM190 7q96 0 164.5 56.5t91.5 141.5l12 44q-99 30 -211 30q-107 0 -160 -53q-39 -39 -39 -98q0 -57 43 -89t99 -32z" />
    <glyph glyph-name="Cacute" unicode="&#x106;" horiz-adv-x="726" 
d="M370 -12q-117 0 -197 77t-80 204q0 90 35.5 174t98.5 147q122 122 283 122q85 0 151 -40.5t99 -111.5l-19 -8q-31 63 -91 101.5t-140 38.5q-153 0 -266 -113q-129 -129 -129 -310q0 -119 73.5 -190t183.5 -71q151 0 264 115l14 -14q-121 -121 -280 -121zM521 770l126 99
l22 -12l-128 -87h-20z" />
    <glyph glyph-name="cacute" unicode="&#x107;" horiz-adv-x="552" 
d="M268 -12q-87 0 -153.5 59t-66.5 157q0 127 94 221q87 87 201 87q71 0 121 -34t76 -84l-18 -10q-57 108 -180 108q-105 0 -186 -81q-86 -86 -86 -206q0 -90 59.5 -143.5t139.5 -53.5q95 0 180 76l14 -13q-92 -83 -195 -83zM369 595l116 113l24 -12l-124 -101h-16z" />
    <glyph glyph-name="Cdotaccent" unicode="&#x10a;" horiz-adv-x="726" 
d="M370 -12q-117 0 -197 77t-80 204q0 90 35.5 174t98.5 147q122 122 283 122q85 0 151 -40.5t99 -111.5l-19 -8q-31 63 -91 101.5t-140 38.5q-153 0 -266 -113q-129 -129 -129 -310q0 -119 73.5 -190t183.5 -71q151 0 264 115l14 -14q-121 -121 -280 -121zM524 789l13 50
h38l-13 -50h-38z" />
    <glyph glyph-name="cdotaccent" unicode="&#x10b;" horiz-adv-x="552" 
d="M268 -12q-87 0 -153.5 59t-66.5 157q0 127 94 221q87 87 201 87q71 0 121 -34t76 -84l-18 -10q-57 108 -180 108q-105 0 -186 -81q-86 -86 -86 -206q0 -90 59.5 -143.5t139.5 -53.5q95 0 180 76l14 -13q-92 -83 -195 -83zM369 614l13 50h36l-13 -50h-36z" />
    <glyph glyph-name="Ccaron" unicode="&#x10c;" horiz-adv-x="726" 
d="M370 -12q-117 0 -197 77t-80 204q0 90 35.5 174t98.5 147q122 122 283 122q85 0 151 -40.5t99 -111.5l-19 -8q-31 63 -91 101.5t-140 38.5q-153 0 -266 -113q-129 -129 -129 -310q0 -119 73.5 -190t183.5 -71q151 0 264 115l14 -14q-121 -121 -280 -121zM683 867
l-131 -97h-18l-81 97h19l74 -75l114 75h23z" />
    <glyph glyph-name="ccaron" unicode="&#x10d;" horiz-adv-x="552" 
d="M268 -12q-87 0 -153.5 59t-66.5 157q0 127 94 221q87 87 201 87q71 0 121 -34t76 -84l-18 -10q-57 108 -180 108q-105 0 -186 -81q-86 -86 -86 -206q0 -90 59.5 -143.5t139.5 -53.5q95 0 180 76l14 -13q-92 -83 -195 -83zM377 595l-75 112h15l71 -86l118 86h20l-137 -112
h-12z" />
    <glyph glyph-name="Dcaron" unicode="&#x10e;" horiz-adv-x="763" 
d="M37 0l188 700h140q186 0 282 -96q76 -76 76 -198q0 -165 -110 -275q-131 -131 -357 -131h-219zM631 590q-89 90 -260 90h-130l-177 -660h196q212 0 337 125q104 104 104 260q0 115 -70 185zM636 862l-131 -97h-18l-81 97h19l74 -75l114 75h23z" />
    <glyph glyph-name="dcaron" unicode="&#x10f;" horiz-adv-x="650" 
d="M466 0l34 126q-26 -49 -93 -93.5t-148 -44.5q-90 0 -148.5 61.5t-58.5 151.5q0 63 25.5 125t70.5 107q79 79 186 79q95 0 152.5 -54.5t67.5 -127.5l108 400h21l-196 -730h-21zM260 8q106 0 188 82q43 43 67 95t24 99q0 91 -56 149.5t-148 58.5q-98 0 -170 -72
q-43 -43 -67 -100.5t-24 -115.5q0 -84 52.5 -140t133.5 -56zM718 581l56 149h25v-2l-69 -147h-12z" />
    <glyph glyph-name="Dcroat" unicode="&#x110;" horiz-adv-x="763" 
d="M52 342l5 20h77l91 338h140q186 0 282 -96q76 -76 76 -198q0 -165 -110 -275q-131 -131 -357 -131h-219l92 342h-77zM631 590q-89 90 -260 90h-130l-85 -318h250l-5 -20h-251l-86 -322h196q212 0 337 125q104 104 104 260q0 115 -70 185z" />
    <glyph glyph-name="dcroat" unicode="&#x111;" horiz-adv-x="650" 
d="M447 618l5 19h185l25 93h21l-25 -93h70l-5 -19h-70l-166 -618h-21l34 126q-26 -49 -93 -93.5t-148 -44.5q-90 0 -148.5 61.5t-58.5 151.5q0 63 25.5 125t70.5 107q79 79 186 79q95 0 152.5 -54.5t67.5 -127.5l78 288h-185zM260 8q106 0 188 82q43 43 67 95t24 99
q0 91 -56 149.5t-148 58.5q-98 0 -170 -72q-43 -43 -67 -100.5t-24 -115.5q0 -84 52.5 -140t133.5 -56z" />
    <glyph glyph-name="Emacron" unicode="&#x112;" horiz-adv-x="661" 
d="M37 0l188 700h489l-6 -20h-466l-86 -318h424l-5 -20h-424l-87 -322h472l-5 -20h-494zM352 791l5 20h272l-5 -20h-272z" />
    <glyph glyph-name="emacron" unicode="&#x113;" horiz-adv-x="586" 
d="M522 244h-448q-3 -22 -3 -46q0 -87 54 -138.5t147 -51.5q101 0 185 71l13 -15q-89 -76 -198 -76q-102 0 -162.5 56.5t-60.5 151.5q0 65 26 126t71 106q84 84 192 84q98 0 146.5 -57t48.5 -139q-2 -41 -11 -72zM162 415q-64 -64 -84 -152h427q6 36 6 54q0 74 -43 124.5
t-130 50.5q-99 0 -176 -77zM261 621l5 19h260l-5 -19h-260z" />
    <glyph glyph-name="Ebreve" unicode="&#x114;" horiz-adv-x="661" 
d="M37 0l188 700h489l-6 -20h-466l-86 -318h424l-5 -20h-424l-87 -322h472l-5 -20h-494zM484 764q-55 0 -82 23.5t-24 60.5h17q2 -64 89 -64q90 0 128 64h18q-41 -84 -146 -84z" />
    <glyph glyph-name="ebreve" unicode="&#x115;" horiz-adv-x="586" 
d="M522 244h-448q-3 -22 -3 -46q0 -87 54 -138.5t147 -51.5q101 0 185 71l13 -15q-89 -76 -198 -76q-102 0 -162.5 56.5t-60.5 151.5q0 65 26 126t71 106q84 84 192 84q98 0 146.5 -57t48.5 -139q-2 -41 -11 -72zM162 415q-64 -64 -84 -152h427q6 36 6 54q0 74 -43 124.5
t-130 50.5q-99 0 -176 -77zM387 594q-53 0 -80 27.5t-22 71.5h16q-2 -38 20 -59t68 -21q88 0 129 80h17q-42 -99 -148 -99z" />
    <glyph glyph-name="Edotaccent" unicode="&#x116;" horiz-adv-x="661" 
d="M37 0l188 700h489l-6 -20h-466l-86 -318h424l-5 -20h-424l-87 -322h472l-5 -20h-494zM467 784l13 50h38l-13 -50h-38z" />
    <glyph glyph-name="edotaccent" unicode="&#x117;" horiz-adv-x="586" 
d="M522 244h-448q-3 -22 -3 -46q0 -87 54 -138.5t147 -51.5q101 0 185 71l13 -15q-89 -76 -198 -76q-102 0 -162.5 56.5t-60.5 151.5q0 65 26 126t71 106q84 84 192 84q98 0 146.5 -57t48.5 -139q-2 -41 -11 -72zM162 415q-64 -64 -84 -152h427q6 36 6 54q0 74 -43 124.5
t-130 50.5q-99 0 -176 -77zM371 614l13 50h36l-13 -50h-36z" />
    <glyph glyph-name="Eogonek" unicode="&#x118;" horiz-adv-x="661" 
d="M37 0l188 700h489l-6 -20h-466l-86 -318h424l-5 -20h-424l-87 -322h472l-5 -20h-21q-82 -53 -82 -96t73 -47l-4 -16q-42 0 -67.5 16.5t-25.5 43.5q0 46 81 99h-448z" />
    <glyph glyph-name="eogonek" unicode="&#x119;" horiz-adv-x="586" 
d="M457 79l13 -15q-20 -18 -73.5 -50t-77.5 -56q-28 -28 -28 -54q0 -43 73 -47l-4 -16q-42 0 -67.5 16.5t-25.5 43.5q0 46 77 97q-34 -10 -72 -10q-102 0 -162.5 56.5t-60.5 151.5q0 65 26 126t71 106q84 84 192 84q98 0 146.5 -57t48.5 -139q-2 -41 -11 -72h-448
q-3 -22 -3 -46q0 -87 54 -138.5t147 -51.5q101 0 185 71zM162 415q-64 -64 -84 -152h427q6 36 6 54q0 74 -43 124.5t-130 50.5q-99 0 -176 -77z" />
    <glyph glyph-name="Ecaron" unicode="&#x11a;" horiz-adv-x="661" 
d="M37 0l188 700h489l-6 -20h-466l-86 -318h424l-5 -20h-424l-87 -322h472l-5 -20h-494zM625 862l-131 -97h-18l-81 97h19l74 -75l114 75h23z" />
    <glyph glyph-name="ecaron" unicode="&#x11b;" horiz-adv-x="586" 
d="M522 244h-448q-3 -22 -3 -46q0 -87 54 -138.5t147 -51.5q101 0 185 71l13 -15q-89 -76 -198 -76q-102 0 -162.5 56.5t-60.5 151.5q0 65 26 126t71 106q84 84 192 84q98 0 146.5 -57t48.5 -139q-2 -41 -11 -72zM162 415q-64 -64 -84 -152h427q6 36 6 54q0 74 -43 124.5
t-130 50.5q-99 0 -176 -77zM379 595l-75 112h15l71 -86l118 86h20l-137 -112h-12z" />
    <glyph glyph-name="Gbreve" unicode="&#x11e;" horiz-adv-x="779" 
d="M389 -12q-133 0 -212.5 82.5t-79.5 209.5q0 87 34 168t94 141q123 123 295 123q163 0 249 -123l-18 -12q-79 115 -231 115q-163 0 -279 -116q-58 -58 -90 -135t-32 -160q0 -119 74 -196t198 -77q119 0 226 68l73 253h-247l6 22h269l-82 -287q-117 -76 -247 -76zM552 769
q-55 0 -82 23.5t-24 60.5h17q2 -64 89 -64q90 0 128 64h18q-41 -84 -146 -84z" />
    <glyph glyph-name="gbreve" unicode="&#x11f;" horiz-adv-x="647" 
d="M237 -160q-66 0 -129 25t-107 68l15 14q40 -40 99.5 -63.5t123.5 -23.5q105 0 169 64q48 48 74 146l25 94q-37 -57 -99 -92t-140 -35q-87 0 -148.5 55t-61.5 139q0 116 84 200q81 81 195 81q92 0 149.5 -54t66.5 -122l44 164h21l-117 -436q-27 -101 -79 -153
q-71 -71 -185 -71zM271 57q112 0 192 80q76 76 76 162q0 78 -57 135.5t-145 57.5q-104 0 -178 -74q-79 -79 -79 -184q0 -76 55 -126.5t136 -50.5zM411 594q-53 0 -80 27.5t-22 71.5h16q-2 -38 20 -59t68 -21q88 0 129 80h17q-42 -99 -148 -99z" />
    <glyph glyph-name="Gdotaccent" unicode="&#x120;" horiz-adv-x="779" 
d="M389 -12q-133 0 -212.5 82.5t-79.5 209.5q0 87 34 168t94 141q123 123 295 123q163 0 249 -123l-18 -12q-79 115 -231 115q-163 0 -279 -116q-58 -58 -90 -135t-32 -160q0 -119 74 -196t198 -77q119 0 226 68l73 253h-247l6 22h269l-82 -287q-117 -76 -247 -76zM535 789
l13 50h38l-13 -50h-38z" />
    <glyph glyph-name="gdotaccent" unicode="&#x121;" horiz-adv-x="647" 
d="M237 -160q-66 0 -129 25t-107 68l15 14q40 -40 99.5 -63.5t123.5 -23.5q105 0 169 64q48 48 74 146l25 94q-37 -57 -99 -92t-140 -35q-87 0 -148.5 55t-61.5 139q0 116 84 200q81 81 195 81q92 0 149.5 -54t66.5 -122l44 164h21l-117 -436q-27 -101 -79 -153
q-71 -71 -185 -71zM271 57q112 0 192 80q76 76 76 162q0 78 -57 135.5t-145 57.5q-104 0 -178 -74q-79 -79 -79 -184q0 -76 55 -126.5t136 -50.5zM396 614l13 50h36l-13 -50h-36z" />
    <glyph glyph-name="Gcommaaccent" unicode="&#x122;" horiz-adv-x="779" 
d="M389 -12q-133 0 -212.5 82.5t-79.5 209.5q0 87 34 168t94 141q123 123 295 123q163 0 249 -123l-18 -12q-79 115 -231 115q-163 0 -279 -116q-58 -58 -90 -135t-32 -160q0 -119 74 -196t198 -77q119 0 226 68l73 253h-247l6 22h269l-82 -287q-117 -76 -247 -76zM276 -187
l-3 13q27 11 38 48h-18l13 47h36l-7 -25q-11 -40 -24 -57.5t-35 -25.5z" />
    <glyph glyph-name="gcommaaccent" unicode="&#x123;" horiz-adv-x="647" 
d="M237 -160q-66 0 -129 25t-107 68l15 14q40 -40 99.5 -63.5t123.5 -23.5q105 0 169 64q48 48 74 146l25 94q-37 -57 -99 -92t-140 -35q-87 0 -148.5 55t-61.5 139q0 116 84 200q81 81 195 81q92 0 149.5 -54t66.5 -122l44 164h21l-117 -436q-27 -101 -79 -153
q-71 -71 -185 -71zM271 57q112 0 192 80q76 76 76 162q0 78 -57 135.5t-145 57.5q-104 0 -178 -74q-79 -79 -79 -184q0 -76 55 -126.5t136 -50.5zM462 722l3 -13q-27 -11 -38 -48h18l-13 -47h-36l7 25q11 40 24 57.5t35 25.5z" />
    <glyph glyph-name="Hbar" unicode="&#x126;" horiz-adv-x="753" 
d="M104 529l6 19h74l41 152h22l-41 -152h500l41 152h22l-41 -152h76l-6 -19h-75l-142 -529h-22l92 343h-500l-92 -343h-22l142 529h-75zM156 363h500l45 166h-500z" />
    <glyph glyph-name="hbar" unicode="&#x127;" horiz-adv-x="605" 
d="M120 618l5 19h71l25 93h21l-25 -93h184l-5 -19h-184l-67 -247q31 60 87.5 100.5t133.5 40.5q83 0 126.5 -44t43.5 -119q0 -38 -13 -88l-70 -261h-21l70 261q12 45 12 86q0 67 -37 106t-113 39q-80 0 -149 -58.5t-95 -157.5l-74 -276h-21l166 618h-71z" />
    <glyph glyph-name="Imacron" unicode="&#x12a;" horiz-adv-x="244" 
d="M43 0l188 700h22l-188 -700h-22zM131 791l5 20h272l-5 -20h-272z" />
    <glyph glyph-name="imacron" unicode="&#x12b;" horiz-adv-x="220" 
d="M31 0l134 500h21l-134 -500h-21zM78 621l5 19h260l-5 -19h-260z" />
    <glyph glyph-name="Ibreve" unicode="&#x12c;" horiz-adv-x="244" 
d="M43 0l188 700h22l-188 -700h-22zM263 764q-55 0 -82 23.5t-24 60.5h17q2 -64 89 -64q90 0 128 64h18q-41 -84 -146 -84z" />
    <glyph glyph-name="ibreve" unicode="&#x12d;" horiz-adv-x="220" 
d="M31 0l134 500h21l-134 -500h-21zM204 594q-52 0 -79.5 27.5t-22.5 71.5h16q-2 -38 20 -59t68 -21q88 0 129 80h17q-42 -99 -148 -99z" />
    <glyph glyph-name="Iogonek" unicode="&#x12e;" horiz-adv-x="244" 
d="M52 -143l-4 -16q-42 0 -67.5 16.5t-25.5 43.5q0 49 89 104l187 695h22l-188 -700h-4q-82 -53 -82 -96t73 -47z" />
    <glyph glyph-name="iogonek" unicode="&#x12f;" horiz-adv-x="220" 
d="M40 -143l-4 -16q-42 0 -67.5 16.5t-25.5 43.5q0 49 89 104l133 495h21l-134 -500h-3q-82 -54 -82 -96q0 -43 73 -47zM198 643l16 57h31l-16 -57h-31z" />
    <glyph glyph-name="Idotaccent" unicode="&#x130;" horiz-adv-x="244" 
d="M43 0l188 700h22l-188 -700h-22zM246 784l13 50h38l-13 -50h-38z" />
    <glyph glyph-name="dotlessi" unicode="&#x131;" horiz-adv-x="220" 
d="M31 0l134 500h21l-134 -500h-21z" />
    <glyph glyph-name="Kcommaaccent" unicode="&#x136;" horiz-adv-x="705" 
d="M38 0l187 700h22l-127 -474l609 474h33l-383 -296l207 -404h-24l-200 390l-250 -193l-52 -197h-22zM223 -177l-3 13q27 11 38 48h-18l13 47h36l-7 -25q-11 -40 -24 -57.5t-35 -25.5z" />
    <glyph glyph-name="kcommaaccent" unicode="&#x137;" horiz-adv-x="543" 
d="M25 0l196 730h21l-152 -566l433 336h29l-285 -220l160 -280h-22l-153 268l-169 -129l-37 -139h-21zM135 -177l-3 13q27 11 38 48h-18l13 47h36l-7 -25q-11 -40 -24 -57.5t-35 -25.5z" />
    <glyph glyph-name="Lacute" unicode="&#x139;" horiz-adv-x="584" 
d="M37 0l188 700h22l-183 -680h430l-5 -20h-452zM248 765l126 99l22 -12l-128 -87h-20z" />
    <glyph glyph-name="lacute" unicode="&#x13a;" horiz-adv-x="219" 
d="M31 0l196 730h21l-196 -730h-21zM241 777l126 99l22 -12l-128 -87h-20z" />
    <glyph glyph-name="Lcommaaccent" unicode="&#x13b;" horiz-adv-x="584" 
d="M37 0l188 700h22l-183 -680h430l-5 -20h-452zM185 -182l-3 13q27 11 38 48h-18l13 47h36l-7 -25q-11 -40 -24 -57.5t-35 -25.5z" />
    <glyph glyph-name="lcommaaccent" unicode="&#x13c;" horiz-adv-x="219" 
d="M31 0l196 730h21l-196 -730h-21zM-24 -182l-3 13q27 11 38 48h-18l13 47h36l-7 -25q-11 -40 -24 -57.5t-35 -25.5z" />
    <glyph glyph-name="Lcaron" unicode="&#x13d;" horiz-adv-x="584" 
d="M37 0l188 700h22l-183 -680h430l-5 -20h-452zM319 551l56 149h25v-2l-69 -147h-12z" />
    <glyph glyph-name="lcaron" unicode="&#x13e;" horiz-adv-x="219" 
d="M31 0l196 730h21l-196 -730h-21zM283 581l56 149h25v-2l-69 -147h-12z" />
    <glyph glyph-name="Ldot" unicode="&#x13f;" horiz-adv-x="584" 
d="M437 325l16 57h31l-16 -57h-31zM37 0l188 700h22l-183 -680h430l-5 -20h-452z" />
    <glyph glyph-name="ldot" unicode="&#x140;" horiz-adv-x="219" 
d="M225 337l16 57h31l-16 -57h-31zM31 0l196 730h21l-196 -730h-21z" />
    <glyph glyph-name="Lslash" unicode="&#x141;" horiz-adv-x="608" 
d="M46 301l6 21l104 31l93 347h22l-91 -339l263 81l-5 -21l-264 -81l-86 -320h430l-5 -20h-452l89 333z" />
    <glyph glyph-name="lslash" unicode="&#x142;" horiz-adv-x="259" 
d="M59 328l5 20l88 27l95 355h21l-94 -348l87 27l-5 -20l-87 -27l-97 -362h-21l95 355z" />
    <glyph glyph-name="Nacute" unicode="&#x143;" horiz-adv-x="782" 
d="M37 0l188 700h20l352 -670l180 670h21l-188 -700h-20l-352 670l-180 -670h-21zM513 760l126 99l22 -12l-128 -87h-20z" />
    <glyph glyph-name="nacute" unicode="&#x144;" horiz-adv-x="605" 
d="M25 0l134 500h21l-35 -129q31 60 87.5 100.5t133.5 40.5q83 0 126.5 -44t43.5 -119q0 -38 -13 -88l-70 -261h-21l70 261q12 45 12 86q0 67 -37 106t-113 39q-80 0 -149 -58.5t-95 -157.5l-74 -276h-21zM377 595l116 113l24 -12l-124 -101h-16z" />
    <glyph glyph-name="Ncommaaccent" unicode="&#x145;" horiz-adv-x="782" 
d="M37 0l188 700h20l352 -670l180 670h21l-188 -700h-20l-352 670l-180 -670h-21zM262 -177l-3 13q27 11 38 48h-18l13 47h36l-7 -25q-11 -40 -24 -57.5t-35 -25.5z" />
    <glyph glyph-name="ncommaaccent" unicode="&#x146;" horiz-adv-x="605" 
d="M25 0l134 500h21l-35 -129q31 60 87.5 100.5t133.5 40.5q83 0 126.5 -44t43.5 -119q0 -38 -13 -88l-70 -261h-21l70 261q12 45 12 86q0 67 -37 106t-113 39q-80 0 -149 -58.5t-95 -157.5l-74 -276h-21zM166 -177l-3 13q27 11 38 48h-18l13 47h36l-7 -25
q-11 -40 -24 -57.5t-35 -25.5z" />
    <glyph glyph-name="Ncaron" unicode="&#x147;" horiz-adv-x="782" 
d="M37 0l188 700h20l352 -670l180 670h21l-188 -700h-20l-352 670l-180 -670h-21zM675 857l-131 -97h-18l-81 97h19l74 -75l114 75h23z" />
    <glyph glyph-name="ncaron" unicode="&#x148;" horiz-adv-x="605" 
d="M25 0l134 500h21l-35 -129q31 60 87.5 100.5t133.5 40.5q83 0 126.5 -44t43.5 -119q0 -38 -13 -88l-70 -261h-21l70 261q12 45 12 86q0 67 -37 106t-113 39q-80 0 -149 -58.5t-95 -157.5l-74 -276h-21zM385 595l-75 112h15l71 -86l118 86h20l-137 -112h-12z" />
    <glyph glyph-name="Omacron" unicode="&#x14c;" horiz-adv-x="838" 
d="M494 712q132 0 216 -87t84 -216q0 -85 -34 -165t-94 -140q-116 -116 -269 -116q-132 0 -216 87t-84 216q0 85 34 165t94 140q116 116 269 116zM398 8q144 0 252 108q58 58 90 134t32 158q0 121 -78 202.5t-201 81.5q-144 0 -252 -108q-58 -58 -90 -134t-32 -158
q0 -121 78 -202.5t201 -81.5zM422 796l5 20h272l-5 -20h-272z" />
    <glyph glyph-name="omacron" unicode="&#x14d;" horiz-adv-x="621" 
d="M343 512q99 0 164 -63.5t65 -159.5q0 -125 -92 -217q-84 -84 -202 -84q-99 0 -164 63.5t-65 159.5q0 125 92 217q84 84 202 84zM279 8q108 0 187 79q39 39 61.5 92t22.5 108q0 88 -58 146.5t-150 58.5q-108 0 -187 -79q-39 -39 -61.5 -92t-22.5 -108q0 -88 58 -146.5
t150 -58.5zM273 621l5 19h260l-5 -19h-260z" />
    <glyph glyph-name="Obreve" unicode="&#x14e;" horiz-adv-x="838" 
d="M494 712q132 0 216 -87t84 -216q0 -85 -34 -165t-94 -140q-116 -116 -269 -116q-132 0 -216 87t-84 216q0 85 34 165t94 140q116 116 269 116zM398 8q144 0 252 108q58 58 90 134t32 158q0 121 -78 202.5t-201 81.5q-144 0 -252 -108q-58 -58 -90 -134t-32 -158
q0 -121 78 -202.5t201 -81.5zM554 769q-55 0 -82 23.5t-24 60.5h17q2 -64 89 -64q90 0 128 64h18q-41 -84 -146 -84z" />
    <glyph glyph-name="obreve" unicode="&#x14f;" horiz-adv-x="621" 
d="M343 512q99 0 164 -63.5t65 -159.5q0 -125 -92 -217q-84 -84 -202 -84q-99 0 -164 63.5t-65 159.5q0 125 92 217q84 84 202 84zM279 8q108 0 187 79q39 39 61.5 92t22.5 108q0 88 -58 146.5t-150 58.5q-108 0 -187 -79q-39 -39 -61.5 -92t-22.5 -108q0 -88 58 -146.5
t150 -58.5zM399 594q-53 0 -80 27.5t-22 71.5h16q-2 -38 20 -59t68 -21q88 0 129 80h17q-42 -99 -148 -99z" />
    <glyph glyph-name="Ohungarumlaut" unicode="&#x150;" horiz-adv-x="838" 
d="M494 712q132 0 216 -87t84 -216q0 -85 -34 -165t-94 -140q-116 -116 -269 -116q-132 0 -216 87t-84 216q0 85 34 165t94 140q116 116 269 116zM398 8q144 0 252 108q58 58 90 134t32 158q0 121 -78 202.5t-201 81.5q-144 0 -252 -108q-58 -58 -90 -134t-32 -158
q0 -121 78 -202.5t201 -81.5zM459 770l126 99l22 -12l-128 -87h-20zM580 770l126 99l22 -12l-128 -87h-20z" />
    <glyph glyph-name="ohungarumlaut" unicode="&#x151;" horiz-adv-x="621" 
d="M343 512q99 0 164 -63.5t65 -159.5q0 -125 -92 -217q-84 -84 -202 -84q-99 0 -164 63.5t-65 159.5q0 125 92 217q84 84 202 84zM279 8q108 0 187 79q39 39 61.5 92t22.5 108q0 88 -58 146.5t-150 58.5q-108 0 -187 -79q-39 -39 -61.5 -92t-22.5 -108q0 -88 58 -146.5
t150 -58.5zM311 595l116 113l24 -12l-124 -101h-16zM433 595l116 113l24 -12l-124 -101h-16z" />
    <glyph glyph-name="OE" unicode="&#x152;" horiz-adv-x="1165" 
d="M451 0q-186 0 -282 96q-76 76 -76 198q0 165 110 275q131 131 357 131h658l-6 -20h-451l-86 -318h409l-5 -20h-409l-87 -322h457l-5 -20h-584zM186 110q88 -90 259 -90h117l177 660h-183q-212 0 -337 -125q-104 -104 -104 -260q0 -114 71 -185z" />
    <glyph glyph-name="oe" unicode="&#x153;" horiz-adv-x="1077" 
d="M1013 244h-448q-3 -23 -3 -46q0 -87 54 -138.5t147 -51.5q101 0 185 71l13 -15q-89 -76 -198 -76q-94 0 -152.5 49.5t-66.5 133.5q-34 -79 -106.5 -131t-164.5 -52q-99 0 -161.5 63t-62.5 160q0 125 92 217q84 84 202 84q91 0 152.5 -53.5t71.5 -138.5q35 84 106 138
t156 54q98 0 146.5 -57t48.5 -139q-2 -41 -11 -72zM276 8q108 0 188 80q40 40 63 92.5t23 105.5q0 88 -58 147t-150 59q-108 0 -187 -79q-39 -39 -61.5 -92t-22.5 -108q0 -88 56 -146.5t149 -58.5zM653 415q-64 -64 -84 -152h427q6 36 6 54q0 74 -43 124.5t-130 50.5
q-99 0 -176 -77z" />
    <glyph glyph-name="Racute" unicode="&#x154;" horiz-adv-x="724" 
d="M562 0l-158 305h-15h-248l-82 -305h-22l188 700h250q125 0 184 -59q45 -45 45 -116q0 -85 -55 -140q-72 -72 -222 -79l159 -306h-24zM146 325h240q174 0 245 71q51 51 51 127q0 64 -38 102q-55 55 -171 55h-231zM441 765l126 99l22 -12l-128 -87h-20z" />
    <glyph glyph-name="racute" unicode="&#x155;" horiz-adv-x="340" 
d="M25 0l134 500h21l-42 -156q47 78 116.5 123t134.5 45l-5 -20h-2q-71 0 -157 -71.5t-111 -166.5l-68 -254h-21zM254 595l116 113l24 -12l-124 -101h-16z" />
    <glyph glyph-name="Rcommaaccent" unicode="&#x156;" horiz-adv-x="724" 
d="M562 0l-158 305h-15h-248l-82 -305h-22l188 700h250q125 0 184 -59q45 -45 45 -116q0 -85 -55 -140q-72 -72 -222 -79l159 -306h-24zM146 325h240q174 0 245 71q51 51 51 127q0 64 -38 102q-55 55 -171 55h-231zM188 -177l-3 13q27 11 38 48h-18l13 47h36l-7 -25
q-11 -40 -24 -57.5t-35 -25.5z" />
    <glyph glyph-name="rcommaaccent" unicode="&#x157;" horiz-adv-x="340" 
d="M25 0l134 500h21l-42 -156q47 78 116.5 123t134.5 45l-5 -20h-2q-71 0 -157 -71.5t-111 -166.5l-68 -254h-21zM-22 -182l-3 13q27 11 38 48h-18l13 47h36l-7 -25q-11 -40 -24 -57.5t-35 -25.5z" />
    <glyph glyph-name="Rcaron" unicode="&#x158;" horiz-adv-x="724" 
d="M562 0l-158 305h-15h-248l-82 -305h-22l188 700h250q125 0 184 -59q45 -45 45 -116q0 -85 -55 -140q-72 -72 -222 -79l159 -306h-24zM146 325h240q174 0 245 71q51 51 51 127q0 64 -38 102q-55 55 -171 55h-231zM602 862l-131 -97h-18l-81 97h19l74 -75l114 75h23z" />
    <glyph glyph-name="rcaron" unicode="&#x159;" horiz-adv-x="340" 
d="M25 0l134 500h21l-42 -156q47 78 116.5 123t134.5 45l-5 -20h-2q-71 0 -157 -71.5t-111 -166.5l-68 -254h-21zM262 595l-75 112h15l71 -86l118 86h20l-137 -112h-12z" />
    <glyph glyph-name="Sacute" unicode="&#x15a;" horiz-adv-x="639" 
d="M303 -10q-84 0 -159 35t-121 95l17 13q44 -58 114.5 -90.5t150.5 -32.5q104 0 163 52.5t59 119.5q0 28 -10.5 51t-24.5 38.5t-42.5 31t-49 24.5t-59.5 24q-45 17 -70.5 29t-56.5 32.5t-45.5 47.5t-14.5 62q0 67 51 118q70 70 192 70q145 0 238 -101l-16 -14
q-87 95 -224 95q-100 0 -159.5 -50t-59.5 -116q0 -30 14 -54.5t43.5 -43t54 -30t67.5 -27.5q49 -18 76.5 -31.5t58.5 -35t45 -50.5t14 -68q0 -71 -54 -125q-69 -69 -192 -69zM422 770l126 99l22 -12l-128 -87h-20z" />
    <glyph glyph-name="sacute" unicode="&#x15b;" horiz-adv-x="490" 
d="M209 -9q-56 0 -111.5 21t-94.5 59l14 15q83 -75 193 -75q75 0 119 35.5t44 78.5q0 45 -30 68.5t-103 52.5q-69 27 -105 55t-36 74q0 54 49 94t131 40q41 0 90.5 -16.5t86.5 -48.5l-14 -15q-70 60 -164 60q-72 0 -114.5 -33.5t-42.5 -78.5q0 -22 9 -39t31 -31t39.5 -22
t52.5 -22q73 -29 107.5 -57t34.5 -79q0 -52 -51 -94t-135 -42zM313 595l116 113l24 -12l-124 -101h-16z" />
    <glyph glyph-name="Scedilla" unicode="&#x15e;" horiz-adv-x="639" 
d="M169 -141l-20 12l111 122q-72 8 -134.5 41.5t-102.5 85.5l17 13q44 -58 114.5 -90.5t150.5 -32.5q104 0 163 52.5t59 119.5q0 28 -10.5 51t-24.5 38.5t-42.5 31t-49 24.5t-59.5 24q-45 17 -70.5 29t-56.5 32.5t-45.5 47.5t-14.5 62q0 67 51 118q70 70 192 70
q145 0 238 -101l-16 -14q-87 95 -224 95q-100 0 -159.5 -50t-59.5 -116q0 -30 14 -54.5t43.5 -43t54 -30t67.5 -27.5q49 -18 76.5 -31.5t58.5 -35t45 -50.5t14 -68q0 -71 -54 -125q-69 -69 -192 -69q-5 0 -14 0.5t-13 0.5z" />
    <glyph glyph-name="scedilla" unicode="&#x15f;" horiz-adv-x="490" 
d="M81 -141l-20 12l111 123q-104 12 -169 77l14 15q83 -75 193 -75q75 0 119 35.5t44 78.5q0 45 -30 68.5t-103 52.5q-69 27 -105 55t-36 74q0 54 49 94t131 40q41 0 90.5 -16.5t86.5 -48.5l-14 -15q-70 60 -164 60q-72 0 -114.5 -33.5t-42.5 -78.5q0 -22 9 -39t31 -31
t39.5 -22t52.5 -22q73 -29 107.5 -57t34.5 -79q0 -52 -51 -94t-135 -42q-3 0 -10 0.5t-11 0.5z" />
    <glyph glyph-name="Scaron" unicode="&#x160;" horiz-adv-x="639" 
d="M303 -10q-84 0 -159 35t-121 95l17 13q44 -58 114.5 -90.5t150.5 -32.5q104 0 163 52.5t59 119.5q0 28 -10.5 51t-24.5 38.5t-42.5 31t-49 24.5t-59.5 24q-45 17 -70.5 29t-56.5 32.5t-45.5 47.5t-14.5 62q0 67 51 118q70 70 192 70q145 0 238 -101l-16 -14
q-87 95 -224 95q-100 0 -159.5 -50t-59.5 -116q0 -30 14 -54.5t43.5 -43t54 -30t67.5 -27.5q49 -18 76.5 -31.5t58.5 -35t45 -50.5t14 -68q0 -71 -54 -125q-69 -69 -192 -69zM584 867l-131 -97h-18l-81 97h19l74 -75l114 75h23z" />
    <glyph glyph-name="scaron" unicode="&#x161;" horiz-adv-x="490" 
d="M209 -9q-56 0 -111.5 21t-94.5 59l14 15q83 -75 193 -75q75 0 119 35.5t44 78.5q0 45 -30 68.5t-103 52.5q-69 27 -105 55t-36 74q0 54 49 94t131 40q41 0 90.5 -16.5t86.5 -48.5l-14 -15q-70 60 -164 60q-72 0 -114.5 -33.5t-42.5 -78.5q0 -22 9 -39t31 -31t39.5 -22
t52.5 -22q73 -29 107.5 -57t34.5 -79q0 -52 -51 -94t-135 -42zM321 595l-75 112h15l71 -86l118 86h20l-137 -112h-12z" />
    <glyph glyph-name="Tcommaaccent" unicode="&#x162;" horiz-adv-x="582" 
d="M207 0l182 680h-252l5 20h528l-5 -20h-254l-182 -680h-22zM152 -182l-3 13q27 11 38 48h-18l13 47h36l-7 -25q-11 -40 -24 -57.5t-35 -25.5z" />
    <glyph glyph-name="tcommaaccent" unicode="&#x163;" horiz-adv-x="372" 
d="M190 -9q-110 0 -110 92q0 21 8 51l93 347h-79l5 19h79l46 173h21l-46 -173h185l-5 -19h-185l-93 -347q-8 -29 -8 -49q0 -74 91 -74q37 0 72 15l-6 -23q-29 -12 -68 -12zM80 -187l-3 13q27 11 38 48h-18l13 47h36l-7 -25q-11 -40 -24 -57.5t-35 -25.5z" />
    <glyph glyph-name="Tcaron" unicode="&#x164;" horiz-adv-x="582" 
d="M207 0l182 680h-252l5 20h528l-5 -20h-254l-182 -680h-22zM567 862l-131 -97h-18l-81 97h19l74 -75l114 75h23z" />
    <glyph glyph-name="tcaron" unicode="&#x165;" horiz-adv-x="372" 
d="M190 -9q-110 0 -110 92q0 21 8 51l93 347h-79l5 19h79l46 173h21l-46 -173h185l-5 -19h-185l-93 -347q-8 -29 -8 -49q0 -74 91 -74q37 0 72 15l-6 -23q-29 -12 -68 -12zM342 581l56 149h25v-2l-69 -147h-12z" />
    <glyph glyph-name="Umacron" unicode="&#x16a;" horiz-adv-x="752" 
d="M344 -11q-109 0 -177.5 56.5t-68.5 167.5q0 53 18 122l98 365h22l-99 -368q-17 -65 -17 -117q0 -102 61.5 -154t163.5 -52q117 0 197 80q69 69 110 220l105 391h22l-107 -397q-42 -155 -115 -228q-86 -86 -213 -86zM378 786l5 20h272l-5 -20h-272z" />
    <glyph glyph-name="umacron" unicode="&#x16b;" horiz-adv-x="605" 
d="M239 -12q-83 0 -126.5 44t-43.5 119q0 38 13 88l70 261h21l-70 -261q-12 -45 -12 -86q0 -67 37 -106t113 -39q80 0 149 58.5t95 157.5l74 276h21l-134 -500h-21l35 129q-31 -60 -87.5 -100.5t-133.5 -40.5zM259 616l5 19h260l-5 -19h-260z" />
    <glyph glyph-name="Ubreve" unicode="&#x16c;" horiz-adv-x="752" 
d="M344 -11q-109 0 -177.5 56.5t-68.5 167.5q0 53 18 122l98 365h22l-99 -368q-17 -65 -17 -117q0 -102 61.5 -154t163.5 -52q117 0 197 80q69 69 110 220l105 391h22l-107 -397q-42 -155 -115 -228q-86 -86 -213 -86zM510 759q-55 0 -82 23.5t-24 60.5h17q2 -64 89 -64
q90 0 128 64h18q-41 -84 -146 -84z" />
    <glyph glyph-name="ubreve" unicode="&#x16d;" horiz-adv-x="605" 
d="M239 -12q-83 0 -126.5 44t-43.5 119q0 38 13 88l70 261h21l-70 -261q-12 -45 -12 -86q0 -67 37 -106t113 -39q80 0 149 58.5t95 157.5l74 276h21l-134 -500h-21l35 129q-31 -60 -87.5 -100.5t-133.5 -40.5zM385 589q-53 0 -80 27.5t-22 71.5h16q-2 -38 20 -59t68 -21
q88 0 129 80h17q-42 -99 -148 -99z" />
    <glyph glyph-name="Uring" unicode="&#x16e;" horiz-adv-x="752" 
d="M344 -11q-109 0 -177.5 56.5t-68.5 167.5q0 53 18 122l98 365h22l-99 -368q-17 -65 -17 -117q0 -102 61.5 -154t163.5 -52q117 0 197 80q69 69 110 220l105 391h22l-107 -397q-42 -155 -115 -228q-86 -86 -213 -86zM539 925q44 0 68.5 -22t24.5 -56q0 -41 -35 -69.5
t-80 -28.5q-44 0 -68.5 22t-24.5 56q0 41 35 69.5t80 28.5zM519 765q36 0 65 23t29 58q0 28 -20 45.5t-56 17.5t-65 -23t-29 -58q0 -28 20 -45.5t56 -17.5z" />
    <glyph glyph-name="uring" unicode="&#x16f;" horiz-adv-x="605" 
d="M239 -12q-83 0 -126.5 44t-43.5 119q0 38 13 88l70 261h21l-70 -261q-12 -45 -12 -86q0 -67 37 -106t113 -39q80 0 149 58.5t95 157.5l74 276h21l-134 -500h-21l35 129q-31 -60 -87.5 -100.5t-133.5 -40.5zM499 681q0 -42 -32.5 -72t-72.5 -30t-64.5 23.5t-24.5 60.5
q0 42 32.5 72t72.5 30t64.5 -23.5t24.5 -60.5zM323 664q0 -31 19.5 -50t52.5 -19t59.5 25t26.5 60q0 31 -19.5 50t-52.5 19t-59.5 -25t-26.5 -60z" />
    <glyph glyph-name="Uhungarumlaut" unicode="&#x170;" horiz-adv-x="752" 
d="M344 -11q-109 0 -177.5 56.5t-68.5 167.5q0 53 18 122l98 365h22l-99 -368q-17 -65 -17 -117q0 -102 61.5 -154t163.5 -52q117 0 197 80q69 69 110 220l105 391h22l-107 -397q-42 -155 -115 -228q-86 -86 -213 -86zM415 760l126 99l22 -12l-128 -87h-20zM536 760l126 99
l22 -12l-128 -87h-20z" />
    <glyph glyph-name="uhungarumlaut" unicode="&#x171;" horiz-adv-x="605" 
d="M239 -12q-83 0 -126.5 44t-43.5 119q0 38 13 88l70 261h21l-70 -261q-12 -45 -12 -86q0 -67 37 -106t113 -39q80 0 149 58.5t95 157.5l74 276h21l-134 -500h-21l35 129q-31 -60 -87.5 -100.5t-133.5 -40.5zM297 590l116 113l24 -12l-124 -101h-16zM419 590l116 113
l24 -12l-124 -101h-16z" />
    <glyph glyph-name="Uogonek" unicode="&#x172;" horiz-adv-x="752" 
d="M330 -143l-4 -16q-42 0 -67.5 16.5t-25.5 43.5q0 44 68 91q-92 10 -147.5 65.5t-55.5 155.5q0 53 18 122l98 365h22l-99 -368q-17 -65 -17 -117q0 -102 61.5 -154t163.5 -52q117 0 197 80q69 69 110 220l105 391h22l-107 -397q-42 -155 -115 -228q-86 -86 -213 -86
q-14 0 -21 1q-66 -48 -66 -86q0 -43 73 -47z" />
    <glyph glyph-name="uogonek" unicode="&#x173;" horiz-adv-x="605" 
d="M434 -143l-4 -16q-42 0 -67.5 16.5t-25.5 43.5q0 50 89 104l34 124q-31 -60 -87.5 -100.5t-133.5 -40.5q-83 0 -126.5 44t-43.5 119q0 38 13 88l70 261h21l-70 -261q-12 -45 -12 -86q0 -67 37 -106t113 -39q80 0 149 58.5t95 157.5l74 276h21l-134 -500h-3
q-82 -53 -82 -96t73 -47z" />
    <glyph glyph-name="Wcircumflex" unicode="&#x174;" horiz-adv-x="1047" 
d="M217 -5l-57 705h21l52 -676l397 678h18l46 -678l404 676h23l-425 -705h-19l-46 673l-395 -673h-19zM536 765l131 97h18l81 -97h-19l-74 75l-114 -75h-23z" />
    <glyph glyph-name="wcircumflex" unicode="&#x175;" horiz-adv-x="805" 
d="M151 -4l-42 504h21l37 -471l289 474h18l33 -474l285 471h23l-307 -504h-18l-34 472l-287 -472h-18zM374 595l137 112h12l75 -112h-15l-71 86l-118 -86h-20z" />
    <glyph glyph-name="Ycircumflex" unicode="&#x176;" horiz-adv-x="664" 
d="M248 0l79 294l-184 406h23l176 -389l386 389h28l-408 -410l-78 -290h-22zM335 760l131 97h18l81 -97h-19l-74 75l-114 -75h-23z" />
    <glyph glyph-name="ycircumflex" unicode="&#x177;" horiz-adv-x="573" 
d="M213 -4l-111 504h22l104 -485l338 485h24l-355 -505q-68 -97 -112 -127.5t-93 -30.5q-59 0 -96 27l11 16q38 -25 85 -25q41 0 82.5 29t100.5 112zM244 590l137 112h12l75 -112h-15l-71 86l-118 -86h-20z" />
    <glyph glyph-name="Ydieresis" unicode="&#x178;" horiz-adv-x="664" 
d="M248 0l79 294l-184 406h23l176 -389l386 389h28l-408 -410l-78 -290h-22zM372 779l13 50h38l-13 -50h-38zM512 779l13 50h38l-13 -50h-38z" />
    <glyph glyph-name="Zacute" unicode="&#x179;" horiz-adv-x="668" 
d="M-6 0l3 12l683 668h-487l6 20h521l-4 -13l-683 -667h501l-5 -20h-535zM440 765l126 99l22 -12l-128 -87h-20z" />
    <glyph glyph-name="zacute" unicode="&#x17a;" horiz-adv-x="487" 
d="M-32 0l3 12l506 470h-368l5 18h400l-3 -12l-506 -470h382l-5 -18h-414zM307 595l116 113l24 -12l-124 -101h-16z" />
    <glyph glyph-name="Zdotaccent" unicode="&#x17b;" horiz-adv-x="668" 
d="M-6 0l3 12l683 668h-487l6 20h521l-4 -13l-683 -667h501l-5 -20h-535zM443 784l13 50h38l-13 -50h-38z" />
    <glyph glyph-name="zdotaccent" unicode="&#x17c;" horiz-adv-x="487" 
d="M-32 0l3 12l506 470h-368l5 18h400l-3 -12l-506 -470h382l-5 -18h-414zM307 614l13 50h36l-13 -50h-36z" />
    <glyph glyph-name="Zcaron" unicode="&#x17d;" horiz-adv-x="668" 
d="M-6 0l3 12l683 668h-487l6 20h521l-4 -13l-683 -667h501l-5 -20h-535zM601 862l-131 -97h-18l-81 97h19l74 -75l114 75h23z" />
    <glyph glyph-name="zcaron" unicode="&#x17e;" horiz-adv-x="487" 
d="M-32 0l3 12l506 470h-368l5 18h400l-3 -12l-506 -470h382l-5 -18h-414zM315 595l-75 112h15l71 -86l118 86h20l-137 -112h-12z" />
    <glyph glyph-name="florin" unicode="&#x192;" horiz-adv-x="449" 
d="M-1 -4q-21 0 -40 4l5 20q15 -4 36 -4q39 0 70.5 25.5t59.5 90.5l117 268h-111l5 20h115l63 144q61 140 167 140q24 0 56 -9l-6 -20q-25 8 -52 8q-45 0 -81 -27t-68 -102l-58 -134h157l-5 -20h-161l-119 -273q-34 -75 -68.5 -103t-81.5 -28z" />
    <glyph glyph-name="Aringacute" unicode="&#x1fa;" horiz-adv-x="767" 
d="M-25 0l507 681q-61 15 -61 74q0 41 35 69.5t80 28.5q44 0 68.5 -22t24.5 -56q0 -38 -31 -66t-72 -32l139 -677h-21l-43 210h-445l-156 -210h-25zM171 230h426l-92 447zM516 693q36 0 65 23t29 58q0 28 -20 45.5t-56 17.5t-65 -23t-29 -58q0 -28 20 -45.5t56 -17.5z
M546 884l113 84l21 -12l-112 -72h-22z" />
    <glyph glyph-name="aringacute" unicode="&#x1fb;" horiz-adv-x="566" 
d="M415 822l113 93l22 -11l-117 -82h-18zM186 -12q-64 0 -112 37t-48 100q0 69 45 114q60 60 180 60q113 0 212 -31l6 23q9 33 9 61q0 66 -49 101t-130 35q-69 0 -140 -25l-6 20q69 25 148 25q89 0 143 -39.5t54 -115.5q0 -29 -9 -65l-77 -288h-21l32 119q-33 -59 -93 -95
t-144 -36zM190 7q96 0 164.5 56.5t91.5 141.5l12 44q-99 30 -211 30q-107 0 -160 -53q-39 -39 -39 -98q0 -57 43 -89t99 -32zM486 696q0 -42 -32.5 -72t-72.5 -30t-64.5 23.5t-24.5 60.5q0 42 32.5 72t72.5 30t64.5 -23.5t24.5 -60.5zM310 679q0 -31 19.5 -50t52.5 -19
t59.5 25t26.5 60q0 31 -19.5 50t-52.5 19t-59.5 -25t-26.5 -60z" />
    <glyph glyph-name="AEacute" unicode="&#x1fc;" horiz-adv-x="1023" 
d="M-58 0l636 700h498l-6 -20h-451l-86 -318h409l-5 -20h-409l-87 -322h457l-5 -20h-479l56 210h-311l-191 -210h-26zM177 230h299l121 450h-11zM699 765l126 99l22 -12l-128 -87h-20z" />
    <glyph glyph-name="aeacute" unicode="&#x1fd;" horiz-adv-x="988" 
d="M674 -12q-82 0 -137 37t-75 103q-108 -140 -269 -140q-68 0 -117.5 37t-49.5 100q0 69 45 114q60 60 180 60q113 0 212 -31l6 23q9 33 9 61q0 66 -49 101t-130 35q-69 0 -140 -25l-6 20q69 25 148 25q89 0 142 -39t53 -115q38 71 103.5 114.5t140.5 43.5q98 0 146.5 -57
t48.5 -139q0 -36 -11 -72h-448q-3 -23 -3 -46q0 -87 54 -138.5t147 -51.5q101 0 185 71l13 -15q-89 -76 -198 -76zM195 7q74 0 145 38t117 104q-9 45 0 100q-99 30 -210 30q-107 0 -160 -53q-39 -39 -39 -98q0 -58 44 -89.5t103 -31.5zM564 415q-64 -64 -84 -152h427
q6 36 6 54q0 74 -43 124.5t-130 50.5q-99 0 -176 -77zM551 595l116 113l24 -12l-124 -101h-16z" />
    <glyph glyph-name="Oslashacute" unicode="&#x1fe;" horiz-adv-x="838" 
d="M494 712q150 0 237 -111l124 104h28l-142 -119q53 -78 53 -177q0 -85 -34 -165t-94 -140q-116 -116 -269 -116q-150 0 -237 111l-124 -104h-28l142 119q-53 76 -53 177q0 85 34 165t94 140q116 116 269 116zM119 292q0 -94 46 -165l550 460q-80 105 -222 105
q-144 0 -252 -108q-58 -58 -90 -134t-32 -158zM398 8q144 0 252 108q58 58 90 134t32 158q0 93 -47 165l-549 -461q78 -104 222 -104zM534 770l126 99l22 -12l-128 -87h-20z" />
    <glyph glyph-name="oslashacute" unicode="&#x1ff;" horiz-adv-x="621" 
d="M343 512q110 0 177 -78l86 71h27l-102 -84q41 -58 41 -132q0 -125 -92 -217q-84 -84 -202 -84q-112 0 -178 77l-85 -70h-27l102 84q-41 57 -41 132q0 125 92 217q84 84 202 84zM550 287q0 67 -35 120l-399 -329q59 -70 163 -70q108 0 187 79q39 39 61.5 92t22.5 108z
M342 492q-108 0 -187 -79q-39 -39 -61.5 -92t-22.5 -108q0 -71 35 -121l398 329q-58 71 -162 71zM383 595l116 113l24 -12l-124 -101h-16z" />
    <glyph glyph-name="Scommaaccent" unicode="&#x218;" horiz-adv-x="639" 
d="M303 -10q-84 0 -159 35t-121 95l17 13q44 -58 114.5 -90.5t150.5 -32.5q104 0 163 52.5t59 119.5q0 28 -10.5 51t-24.5 38.5t-42.5 31t-49 24.5t-59.5 24q-45 17 -70.5 29t-56.5 32.5t-45.5 47.5t-14.5 62q0 67 51 118q70 70 192 70q145 0 238 -101l-16 -14
q-87 95 -224 95q-100 0 -159.5 -50t-59.5 -116q0 -30 14 -54.5t43.5 -43t54 -30t67.5 -27.5q49 -18 76.5 -31.5t58.5 -35t45 -50.5t14 -68q0 -71 -54 -125q-69 -69 -192 -69zM166 -187l-3 13q27 11 38 48h-18l13 47h36l-7 -25q-11 -40 -24 -57.5t-35 -25.5z" />
    <glyph glyph-name="scommaaccent" unicode="&#x219;" horiz-adv-x="490" 
d="M209 -9q-56 0 -111.5 21t-94.5 59l14 15q83 -75 193 -75q75 0 119 35.5t44 78.5q0 45 -30 68.5t-103 52.5q-69 27 -105 55t-36 74q0 54 49 94t131 40q41 0 90.5 -16.5t86.5 -48.5l-14 -15q-70 60 -164 60q-72 0 -114.5 -33.5t-42.5 -78.5q0 -22 9 -39t31 -31t39.5 -22
t52.5 -22q73 -29 107.5 -57t34.5 -79q0 -52 -51 -94t-135 -42zM99 -187l-3 13q27 11 38 48h-18l13 47h36l-7 -25q-11 -40 -24 -57.5t-35 -25.5z" />
    <glyph glyph-name="schwa" unicode="&#x259;" horiz-adv-x="586" 
d="M53 184q2 41 11 72h447q4 20 4 46q0 87 -54 138.5t-147 51.5q-101 0 -185 -71l-13 15q89 76 198 76q102 0 162.5 -56.5t60.5 -151.5q0 -65 -26 -126t-71 -106q-84 -84 -192 -84q-98 0 -146.5 57t-48.5 139zM424 85q64 64 84 152h-427q-6 -36 -6 -54q0 -74 43 -124.5
t130 -50.5q99 0 176 77z" />
    <glyph glyph-name="circumflex" unicode="&#x2c6;" horiz-adv-x="500" 
d="M230 595l137 112h12l75 -112h-15l-71 86l-118 -86h-20z" />
    <glyph glyph-name="caron" unicode="&#x2c7;" horiz-adv-x="500" 
d="M333 595l-75 112h15l71 -86l118 86h20l-137 -112h-12z" />
    <glyph glyph-name="breve" unicode="&#x2d8;" horiz-adv-x="500" 
d="M344 594q-52 0 -79.5 27.5t-22.5 71.5h16q-2 -38 20 -59t68 -21q88 0 129 80h17q-42 -99 -148 -99z" />
    <glyph glyph-name="dotaccent" unicode="&#x2d9;" horiz-adv-x="500" 
d="M328 614l13 50h36l-13 -50h-36z" />
    <glyph glyph-name="ring" unicode="&#x2da;" horiz-adv-x="500" 
d="M462 696q0 -42 -32.5 -72t-72.5 -30t-64.5 23.5t-24.5 60.5q0 42 32.5 72t72.5 30t64.5 -23.5t24.5 -60.5zM286 679q0 -31 19.5 -50t52.5 -19t59.5 25t26.5 60q0 31 -19.5 50t-52.5 19t-59.5 -25t-26.5 -60z" />
    <glyph glyph-name="ogonek" unicode="&#x2db;" horiz-adv-x="500" 
d="M217 -143l-4 -16q-42 0 -67.5 16.5t-25.5 43.5q0 49 91 105l17 -5q-84 -55 -84 -97q0 -43 73 -47z" />
    <glyph glyph-name="tilde" unicode="&#x2dc;" horiz-adv-x="500" 
d="M484 689l13 -3q-30 -80 -83 -80q-22 0 -67 31q-39 27 -57 27q-37 0 -67 -63l-13 3q30 80 83 80q22 0 67 -31q39 -27 57 -27q37 0 67 63z" />
    <glyph glyph-name="hungarumlaut" unicode="&#x2dd;" horiz-adv-x="500" 
d="M218 595l116 113l24 -12l-124 -101h-16zM340 595l116 113l24 -12l-124 -101h-16z" />
    <glyph glyph-name="commaaccent" unicode="&#x326;" horiz-adv-x="500" 
d="M114 -182l-3 13q27 11 38 48h-18l13 47h36l-7 -25q-11 -40 -24 -57.5t-35 -25.5z" />
    <glyph glyph-name="baht" unicode="&#xe3f;" horiz-adv-x="621" 
d="M37 0l188 700h168q33 0 61 -6l39 85h20l-40 -89q59 -15 93 -52.5t34 -92.5q0 -84 -61 -134.5t-145 -57.5q69 -12 108.5 -49.5t39.5 -97.5q0 -89 -74 -147.5t-213 -58.5h-88l-53 -118h-20l53 118h-110zM520 207q0 64 -55 99.5t-146 37.5l-144 -324h83q127 0 194.5 52.5
t67.5 134.5zM157 364h151l138 311q-30 5 -57 5h-148zM578 543q0 49 -30.5 82t-83.5 46l-137 -307q118 2 184.5 49t66.5 130zM64 20h92l144 324h-149z" />
    <glyph glyph-name="Wgrave" unicode="&#x1e80;" horiz-adv-x="1047" 
d="M217 -5l-57 705h21l52 -676l397 678h18l46 -678l404 676h23l-425 -705h-19l-46 673l-395 -673h-19zM630 765l-80 87l24 12l72 -99h-16z" />
    <glyph glyph-name="wgrave" unicode="&#x1e81;" horiz-adv-x="805" 
d="M151 -4l-42 504h21l37 -471l289 474h18l33 -474l285 471h23l-307 -504h-18l-34 472l-287 -472h-18zM472 595l-70 101l26 12l56 -113h-12z" />
    <glyph glyph-name="Wacute" unicode="&#x1e82;" horiz-adv-x="1047" 
d="M217 -5l-57 705h21l52 -676l397 678h18l46 -678l404 676h23l-425 -705h-19l-46 673l-395 -673h-19zM640 765l126 99l22 -12l-128 -87h-20z" />
    <glyph glyph-name="wacute" unicode="&#x1e83;" horiz-adv-x="805" 
d="M151 -4l-42 504h21l37 -471l289 474h18l33 -474l285 471h23l-307 -504h-18l-34 472l-287 -472h-18zM476 595l116 113l24 -12l-124 -101h-16z" />
    <glyph glyph-name="Wdieresis" unicode="&#x1e84;" horiz-adv-x="1047" 
d="M217 -5l-57 705h21l52 -676l397 678h18l46 -678l404 676h23l-425 -705h-19l-46 673l-395 -673h-19zM573 784l13 50h38l-13 -50h-38zM713 784l13 50h38l-13 -50h-38z" />
    <glyph glyph-name="wdieresis" unicode="&#x1e85;" horiz-adv-x="805" 
d="M151 -4l-42 504h21l37 -471l289 474h18l33 -474l285 471h23l-307 -504h-18l-34 472l-287 -472h-18zM411 614l13 50h36l-13 -50h-36zM541 614l13 50h36l-13 -50h-36z" />
    <glyph glyph-name="Ygrave" unicode="&#x1ef2;" horiz-adv-x="664" 
d="M248 0l79 294l-184 406h23l176 -389l386 389h28l-408 -410l-78 -290h-22zM429 760l-80 87l24 12l72 -99h-16z" />
    <glyph glyph-name="ygrave" unicode="&#x1ef3;" horiz-adv-x="573" 
d="M213 -4l-111 504h22l104 -485l338 485h24l-355 -505q-68 -97 -112 -127.5t-93 -30.5q-59 0 -96 27l11 16q38 -25 85 -25q41 0 82.5 29t100.5 112zM343 590l-70 101l26 12l56 -113h-12z" />
    <glyph glyph-name="enspace" unicode="&#x2002;" horiz-adv-x="500" 
 />
    <glyph glyph-name="emspace" unicode="&#x2003;" horiz-adv-x="1000" 
 />
    <glyph glyph-name="threeperemspace" unicode="&#x2004;" horiz-adv-x="333" 
 />
    <glyph glyph-name="fourperemspace" unicode="&#x2005;" horiz-adv-x="250" 
 />
    <glyph glyph-name="figurespace" unicode="&#x2007;" 
 />
    <glyph glyph-name="thinspace" unicode="&#x2009;" horiz-adv-x="133" 
 />
    <glyph glyph-name="hairspace" unicode="&#x200a;" horiz-adv-x="75" 
 />
    <glyph glyph-name="endash" unicode="&#x2013;" horiz-adv-x="538" 
d="M78 287l5 20h398l-5 -20h-398z" />
    <glyph glyph-name="emdash" unicode="&#x2014;" horiz-adv-x="894" 
d="M78 287l5 20h754l-5 -20h-754z" />
    <glyph glyph-name="quoteleft" unicode="&#x2018;" horiz-adv-x="164" 
d="M147 570l12 46q11 42 24.5 61t35.5 24l4 -12q-29 -7 -44 -67h18l-14 -52h-36z" />
    <glyph glyph-name="quoteright" unicode="&#x2019;" horiz-adv-x="164" 
d="M148 569l-4 12q29 7 44 67h-18l14 52h36l-12 -46q-11 -42 -24.5 -61t-35.5 -24z" />
    <glyph glyph-name="quotesinglbase" unicode="&#x201a;" horiz-adv-x="164" 
d="M-25 -79l-4 12q29 7 44 67h-18l14 52h36l-12 -46q-11 -42 -24.5 -61t-35.5 -24z" />
    <glyph glyph-name="quotedblleft" unicode="&#x201c;" horiz-adv-x="254" 
d="M147 570l12 46q11 42 24.5 61t35.5 24l4 -12q-29 -7 -44 -67h18l-14 -52h-36zM237 570l12 46q11 42 24.5 61t35.5 24l4 -12q-29 -7 -44 -67h18l-14 -52h-36z" />
    <glyph glyph-name="quotedblright" unicode="&#x201d;" horiz-adv-x="254" 
d="M148 569l-4 12q29 7 44 67h-18l14 52h36l-12 -46q-11 -42 -24.5 -61t-35.5 -24zM238 569l-4 12q29 7 44 67h-18l14 52h36l-12 -46q-11 -42 -24.5 -61t-35.5 -24z" />
    <glyph glyph-name="quotedblbase" unicode="&#x201e;" horiz-adv-x="254" 
d="M-25 -79l-4 12q29 7 44 67h-18l14 52h36l-12 -46q-11 -42 -24.5 -61t-35.5 -24zM65 -79l-4 12q29 7 44 67h-18l14 52h36l-12 -46q-11 -42 -24.5 -61t-35.5 -24z" />
    <glyph glyph-name="dagger" unicode="&#x2020;" horiz-adv-x="388" 
d="M177 238l85 297l-126 -6l6 22l123 -6l37 155h22l-47 -155l127 6l-6 -22l-124 6l-73 -297h-24z" />
    <glyph glyph-name="daggerdbl" unicode="&#x2021;" horiz-adv-x="388" 
d="M114 0l47 155l-127 -6l6 22l123 -6l45 185l54 185l-126 -6l6 22l123 -6l37 155h22l-47 -155l127 6l-6 -22l-124 6l-44 -185l-55 -185l127 6l-6 -22l-123 6l-37 -155h-22z" />
    <glyph glyph-name="bullet" unicode="&#x2022;" horiz-adv-x="431" 
d="M257 461q39 0 63.5 -25t24.5 -66q0 -54 -38 -92q-35 -35 -82 -35q-39 0 -63.5 25t-24.5 66q0 54 38 92q35 35 82 35z" />
    <glyph glyph-name="ellipsis" unicode="&#x2026;" horiz-adv-x="484" 
d="M-3 0l14 52h36l-14 -52h-36zM157 0l14 52h36l-14 -52h-36zM317 0l14 52h36l-14 -52h-36z" />
    <glyph glyph-name="perthousand" unicode="&#x2030;" horiz-adv-x="1208" 
d="M238 346q-59 0 -96.5 42t-37.5 106q0 94 67 161q53 53 119 53q59 0 96.5 -42t37.5 -106q0 -94 -67 -161q-53 -53 -119 -53zM584 -8q-59 0 -96.5 42t-37.5 106q0 94 67 161q53 53 119 53q59 0 96.5 -42t37.5 -106q0 -94 -67 -161q-53 -53 -119 -53zM968 -8q-59 0 -96.5 42
t-37.5 106q0 94 67 161q53 53 119 53q59 0 96.5 -42t37.5 -106q0 -94 -67 -161q-53 -53 -119 -53zM585 12q57 0 102 45q61 61 61 148q0 56 -31.5 92.5t-81.5 36.5q-57 0 -102 -45q-61 -61 -61 -148q0 -56 31.5 -92.5t81.5 -36.5zM969 12q57 0 102 45q61 61 61 148
q0 56 -31.5 92.5t-81.5 36.5q-57 0 -102 -45q-61 -61 -61 -148q0 -56 31.5 -92.5t81.5 -36.5zM239 366q57 0 102 45q61 61 61 148q0 56 -31.5 92.5t-81.5 36.5q-57 0 -102 -45q-61 -61 -61 -148q0 -56 31.5 -92.5t81.5 -36.5zM75 0l698 700h26l-698 -700h-26z" />
    <glyph glyph-name="guilsinglleft" unicode="&#x2039;" horiz-adv-x="292" 
d="M162 47l-120 205l1 6l229 203l12 -10l-218 -199l110 -197z" />
    <glyph glyph-name="guilsinglright" unicode="&#x203a;" horiz-adv-x="292" 
d="M129 461l120 -205l-1 -6l-229 -203l-12 10l218 199l-110 197z" />
    <glyph glyph-name="fraction" unicode="&#x2044;" horiz-adv-x="100" 
d="M-295 0l338 355l325 345h27l-339 -355l-324 -345h-27z" />
    <glyph glyph-name="zero.sup" unicode="&#x2070;" horiz-adv-x="400" 
d="M449 689q0 -135 -86 -221q-52 -52 -108 -52q-50 0 -78 36.5t-28 96.5q0 135 86 221q52 52 108 52q50 0 78 -36.5t28 -96.5zM170 551q0 -55 23.5 -85.5t62.5 -30.5q46 0 91 45q36 36 58.5 91t22.5 116q0 55 -23.5 85.5t-62.5 30.5q-46 0 -91 -45q-36 -36 -58.5 -91
t-22.5 -116z" />
    <glyph glyph-name="four.sup" unicode="&#x2074;" horiz-adv-x="400" 
d="M315 424l26 99h-203l-4 16l281 279h24l-74 -277h63l-5 -18h-63l-26 -99h-19zM159 541h187l67 251z" />
    <glyph glyph-name="five.sup" unicode="&#x2075;" horiz-adv-x="400" 
d="M251 416q-38 0 -73.5 18t-56.5 52l17 10q39 -61 116 -61q58 0 101 34.5t43 84.5q0 37 -25.5 59t-73.5 22q-50 0 -107 -25l-10 8l65 194h225l-6 -19h-207l-55 -161q53 22 99 22q53 0 84.5 -28t31.5 -69q0 -60 -50 -100.5t-118 -40.5z" />
    <glyph glyph-name="six.sup" unicode="&#x2076;" horiz-adv-x="400" 
d="M259 417q-57 0 -88.5 34t-31.5 94q0 61 24 120.5t65 100.5q56 56 121 56q72 0 110 -53l-19 -13q-32 47 -93 47q-56 0 -104 -48q-65 -65 -85 -175q19 39 56.5 62t82.5 23q51 0 83.5 -29t32.5 -73q0 -60 -48 -103t-106 -43zM258 436q51 0 92.5 36.5t41.5 89.5
q0 37 -27.5 60.5t-72.5 23.5q-56 0 -97 -41q-34 -34 -34 -81q0 -35 24.5 -61.5t72.5 -26.5z" />
    <glyph glyph-name="seven.sup" unicode="&#x2077;" horiz-adv-x="400" 
d="M162 424l285 369h-241l5 19h265l-4 -16l-285 -372h-25z" />
    <glyph glyph-name="eight.sup" unicode="&#x2078;" horiz-adv-x="400" 
d="M267 416q-59 0 -96.5 28.5t-37.5 72.5q0 41 32.5 71.5t83.5 39.5q-57 28 -57 82q0 49 40 80.5t100 31.5q54 0 87.5 -28t33.5 -69q0 -42 -31 -70t-73 -37q71 -28 71 -87q0 -51 -44.5 -83t-108.5 -32zM268 434q55 0 93 27t38 69q0 38 -33 61t-83 23q-57 0 -93 -27.5
t-36 -68.5q0 -36 31 -60t83 -24zM313 630q50 0 84.5 26.5t34.5 67.5q0 35 -28 57.5t-74 22.5q-48 0 -82.5 -25.5t-34.5 -66.5q0 -35 27 -58.5t73 -23.5z" />
    <glyph glyph-name="nine.sup" unicode="&#x2079;" horiz-adv-x="400" 
d="M244 416q-72 0 -113 57l19 13q35 -51 96 -51q56 0 106 50q64 64 83 171q-19 -39 -57 -63t-82 -24q-51 0 -83.5 29.5t-32.5 74.5q0 61 48 104.5t106 43.5q57 0 88.5 -34t31.5 -94q0 -62 -24.5 -121.5t-65.5 -100.5q-55 -55 -120 -55zM301 588q55 0 96 41q35 35 35 83
q0 36 -24.5 63t-72.5 27q-51 0 -92.5 -37t-41.5 -91q0 -38 27.5 -62t72.5 -24z" />
    <glyph glyph-name="zero.inf" unicode="&#x2080;" horiz-adv-x="400" 
d="M300 131q0 -135 -86 -221q-52 -52 -108 -52q-50 0 -78 36.5t-28 96.5q0 135 86 221q52 52 108 52q50 0 78 -36.5t28 -96.5zM21 -7q0 -55 23.5 -85.5t62.5 -30.5q46 0 91 45q36 36 58.5 91t22.5 116q0 55 -23.5 85.5t-62.5 30.5q-46 0 -91 -45q-36 -36 -58.5 -91
t-22.5 -116z" />
    <glyph glyph-name="one.inf" unicode="&#x2081;" horiz-adv-x="325" 
d="M74 -132l99 370l-112 -36l-1 18l124 41h16l-105 -393h-21z" />
    <glyph glyph-name="two.inf" unicode="&#x2082;" horiz-adv-x="400" 
d="M-41 -132l5 18l225 163q46 33 65.5 60.5t19.5 60.5q0 32 -24 53.5t-65 21.5q-69 0 -127 -69l-16 10q63 78 145 78q48 0 77.5 -26.5t30.5 -65.5q1 -38 -21 -69t-75 -69l-203 -147h242l-6 -19h-273z" />
    <glyph glyph-name="three.inf" unicode="&#x2083;" horiz-adv-x="400" 
d="M101 -142q-92 0 -133 72l18 11q37 -64 117 -64q53 0 93 32t40 74q0 37 -28.5 58t-79.5 21h-26l-4 12l191 161h-224l6 19h251l-5 -18l-186 -156q60 0 93 -25.5t33 -69.5q0 -52 -46.5 -89.5t-109.5 -37.5z" />
    <glyph glyph-name="four.inf" unicode="&#x2084;" horiz-adv-x="400" 
d="M166 -134l26 99h-203l-4 16l281 279h24l-74 -277h63l-5 -18h-63l-26 -99h-19zM10 -17h187l67 251z" />
    <glyph glyph-name="five.inf" unicode="&#x2085;" horiz-adv-x="400" 
d="M102 -142q-38 0 -73.5 18t-56.5 52l17 10q39 -61 116 -61q58 0 101 34.5t43 84.5q0 37 -25.5 59t-73.5 22q-50 0 -107 -25l-10 8l65 194h225l-6 -19h-207l-55 -161q53 22 99 22q53 0 84.5 -28t31.5 -69q0 -60 -50 -100.5t-118 -40.5z" />
    <glyph glyph-name="six.inf" unicode="&#x2086;" horiz-adv-x="400" 
d="M110 -141q-57 0 -88.5 34t-31.5 94q0 61 24 120.5t65 100.5q56 56 121 56q72 0 110 -53l-19 -13q-32 47 -93 47q-56 0 -104 -48q-65 -65 -85 -175q19 39 56.5 62t82.5 23q51 0 83.5 -29t32.5 -73q0 -60 -48 -103t-106 -43zM109 -122q51 0 92.5 36.5t41.5 89.5
q0 37 -27.5 60.5t-72.5 23.5q-56 0 -97 -41q-34 -34 -34 -81q0 -35 24.5 -61.5t72.5 -26.5z" />
    <glyph glyph-name="seven.inf" unicode="&#x2087;" horiz-adv-x="400" 
d="M23 -134l285 369h-241l5 19h265l-4 -16l-285 -372h-25z" />
    <glyph glyph-name="eight.inf" unicode="&#x2088;" horiz-adv-x="400" 
d="M118 -142q-59 0 -96.5 28.5t-37.5 72.5q0 41 32.5 71.5t83.5 39.5q-57 28 -57 82q0 49 40 80.5t100 31.5q54 0 87.5 -28t33.5 -69q0 -42 -31 -70t-73 -37q71 -28 71 -87q0 -51 -44.5 -83t-108.5 -32zM119 -124q55 0 93 27t38 69q0 38 -33 61t-83 23q-57 0 -93 -27.5
t-36 -68.5q0 -36 31 -60t83 -24zM164 72q50 0 84.5 26.5t34.5 67.5q0 35 -28 57.5t-74 22.5q-48 0 -82.5 -25.5t-34.5 -66.5q0 -35 27 -58.5t73 -23.5z" />
    <glyph glyph-name="nine.inf" unicode="&#x2089;" horiz-adv-x="400" 
d="M95 -142q-72 0 -113 57l19 13q35 -51 96 -51q56 0 106 50q64 64 83 171q-19 -39 -57 -63t-82 -24q-51 0 -83.5 29.5t-32.5 74.5q0 61 48 104.5t106 43.5q57 0 88.5 -34t31.5 -94q0 -62 -24.5 -121.5t-65.5 -100.5q-55 -55 -120 -55zM152 30q55 0 96 41q35 35 35 83
q0 36 -24.5 63t-72.5 27q-51 0 -92.5 -37t-41.5 -91q0 -38 27.5 -62t72.5 -24z" />
    <glyph glyph-name="colonmonetary" unicode="&#x20a1;" horiz-adv-x="594" 
d="M588 779h20l-47 -115q29 -20 62 -54l-16 -14q-26 30 -54 49l-255 -629h16q90 0 174 52l9 -15q-88 -56 -183 -56q-4 0 -12 0.5t-12 0.5l-47 -116h-20l48 118q-53 7 -99 39l-64 -157h-20l69 169q-89 73 -89 212q0 96 37.5 187t100.5 154q98 98 215 99l32 76h20l-32 -77
q55 -3 104 -28zM89 264q0 -126 76 -194l249 614q-103 -3 -191 -91q-61 -61 -97.5 -149t-36.5 -180zM179 58q45 -33 101 -40l257 637q-46 26 -104 29z" />
    <glyph glyph-name="naira" unicode="&#x20a6;" horiz-adv-x="814" 
d="M763 237h-102l-63 -237h-23l-104 237h-306l-63 -237h-20l63 237h-102l6 19h101l51 191h-102l6 19h101l63 234h23l102 -234h308l63 234h20l-63 -234h103l-6 -19h-102l-51 -191h103zM401 447l84 -191h161l51 191h-296zM221 447l-51 -191h294l-83 191h-160zM493 237l92 -211
l56 211h-148zM282 674l-56 -208h146z" />
    <glyph glyph-name="rupee" unicode="&#x20a8;" horiz-adv-x="1060" 
d="M964 125q0 45 -30 68.5t-103 52.5q-69 27 -105 55t-36 74q0 54 49 94t131 40q41 0 90.5 -16.5t86.5 -48.5l-14 -15q-70 60 -164 60q-72 0 -114.5 -33.5t-42.5 -78.5q0 -22 9 -39t31 -31t39.5 -22t52.5 -22q73 -29 107.5 -57t34.5 -79q0 -52 -51 -94t-135 -42
q-56 0 -111.5 21t-94.5 59l14 15q83 -75 193 -75q75 0 119 35.5t44 78.5zM476 0l-154 295h-199l-79 -295h-22l188 700h181q109 0 167.5 -46.5t58.5 -130.5q0 -71 -39 -123t-99 -76.5t-133 -27.5l154 -296h-24zM128 315h193q120 0 197 54.5t77 151.5q0 76 -53.5 117.5
t-152.5 41.5h-162z" />
    <glyph glyph-name="won" unicode="&#x20a9;" horiz-adv-x="1094" 
d="M1043 238h-198l-132 -243h-23l-12 243h-269l-140 -243h-23l-3 243h-200l6 19h194l-2 190h-142l6 19h136l-2 234h22v-234h259l136 236h23l10 -236h259l127 234h23l-128 -234h135l-6 -19h-140l-103 -190h193zM677 257l-7 190h-140l-110 -190h257zM261 447l1 -190h138
l109 190h-248zM689 447l8 -190h138l102 190h-248zM707 21h2l116 217h-127zM263 22h2l124 216h-127zM659 670l-118 -204h128l-8 204h-2z" />
    <glyph glyph-name="sheqel" unicode="&#x20aa;" horiz-adv-x="614" 
d="M21 0l133 500h158q111 0 111 -86q0 -23 -10 -61l-42 -156h-20l43 159q9 34 9 57q0 68 -92 68h-141l-128 -481h-21zM327 0q-66 0 -93.5 30.5t-20.5 96.5l20 196h20l-20 -196q-6 -59 16 -83.5t79 -24.5h115l128 481h21l-133 -500h-132z" />
    <glyph glyph-name="Euro" unicode="&#x20ac;" horiz-adv-x="710" 
d="M100 430l5 20h77q35 99 103 167q95 95 218 95q81 0 138.5 -45.5t78.5 -112.5l-20 -8q-20 63 -72 104.5t-126 41.5q-115 0 -201 -86q-64 -64 -98 -156h331l-5 -20h-332q-23 -72 -26 -150h318l-5 -20h-313q0 -114 60 -183t155 -69q120 0 214 109l16 -14q-97 -115 -231 -115
q-103 0 -169 74t-66 198h-95l5 20h90q1 71 25 150h-75z" />
    <glyph glyph-name="peso" unicode="&#x20b1;" horiz-adv-x="704" 
d="M735 473h-98q-11 -75 -62 -126q-92 -92 -275 -92h-135l-68 -255h-23l127 473h-102l6 20h101l56 207h127q137 0 201 -64q49 -49 49 -133v-10h102zM170 275h131q172 0 257 85q48 48 57 114h-392zM278 680l-50 -188h389v10q0 76 -44 120q-58 58 -185 58h-110z" />
    <glyph glyph-name="published" unicode="&#x2117;" horiz-adv-x="830" 
d="M384 531h113q56 0 91 -24t35 -76q0 -62 -49 -94.5t-127 -32.5h-105l-37 -139h-19zM604 431q0 82 -109 82h-97l-51 -191h102q65 0 110 25.5t45 83.5zM479 712q144 0 232.5 -91t88.5 -228q0 -80 -31 -156t-88 -133q-116 -116 -279 -116q-144 0 -232.5 91t-88.5 228
q0 80 31 156t88 133q116 116 279 116zM404 5q154 0 264 110q114 114 114 280q0 128 -82.5 214t-222.5 86q-154 0 -264 -110q-114 -114 -114 -280q0 -128 82.5 -214t222.5 -86z" />
    <glyph glyph-name="servicemark" unicode="&#x2120;" horiz-adv-x="682" 
d="M196 387q-80 0 -124 58l12 9q41 -54 113 -54q42 0 68 22t26 51q0 26 -18.5 41t-57.5 29q-43 16 -63.5 33t-20.5 45q0 30 24 54q30 30 84 30q67 0 106 -46l-11 -10q-38 43 -97 43q-41 0 -66 -21t-25 -49q0 -23 19 -37.5t57 -28.5q42 -15 63 -33t21 -48q0 -32 -24 -56
q-32 -32 -86 -32zM367 392l88 308h12l76 -187l183 187h16l-88 -308h-15l80 279l-182 -183h-1l-74 183l-80 -279h-15z" />
    <glyph glyph-name="trademark" unicode="&#x2122;" horiz-adv-x="656" 
d="M148 392l84 293h-110l4 15h235l-4 -15h-110l-84 -293h-15zM341 392l88 308h12l76 -187l183 187h16l-88 -308h-15l80 279l-182 -183h-1l-74 183l-80 -279h-15z" />
    <glyph glyph-name="onethird" unicode="&#x2153;" horiz-adv-x="825" 
d="M161 314l99 370l-112 -36l-1 18l124 41h16l-105 -393h-21zM545 -10q-92 0 -133 72l18 11q37 -64 117 -64q53 0 93 32t40 74q0 37 -28.5 58t-79.5 21h-26l-4 12l191 161h-224l6 19h251l-5 -18l-186 -156q60 0 93 -25.5t33 -69.5q0 -52 -46.5 -89.5t-109.5 -37.5zM30 0
l338 355l325 345h27l-339 -355l-324 -345h-27z" />
    <glyph glyph-name="twothirds" unicode="&#x2154;" horiz-adv-x="900" 
d="M41 314l5 18l225 163q46 33 65.5 60.5t19.5 60.5q0 32 -24 53.5t-65 21.5q-69 0 -127 -69l-16 10q63 78 145 78q48 0 77.5 -26.5t30.5 -65.5q1 -38 -21 -69t-75 -69l-203 -147h242l-6 -19h-273zM620 -10q-92 0 -133 72l18 11q37 -64 117 -64q53 0 93 32t40 74
q0 37 -28.5 58t-79.5 21h-26l-4 12l191 161h-224l6 19h251l-5 -18l-186 -156q60 0 93 -25.5t33 -69.5q0 -52 -46.5 -89.5t-109.5 -37.5zM105 0l338 355l325 345h27l-339 -355l-324 -345h-27z" />
    <glyph glyph-name="onefifth" unicode="&#x2155;" horiz-adv-x="825" 
d="M161 314l99 370l-112 -36l-1 18l124 41h16l-105 -393h-21zM546 -10q-38 0 -73.5 18t-56.5 52l17 10q39 -61 116 -61q58 0 101 34.5t43 84.5q0 37 -25.5 59t-73.5 22q-50 0 -107 -25l-10 8l65 194h225l-6 -19h-207l-55 -161q53 22 99 22q53 0 84.5 -28t31.5 -69
q0 -60 -50 -100.5t-118 -40.5zM40 0l338 355l325 345h27l-339 -355l-324 -345h-27z" />
    <glyph glyph-name="twofifths" unicode="&#x2156;" horiz-adv-x="900" 
d="M41 314l5 18l225 163q46 33 65.5 60.5t19.5 60.5q0 32 -24 53.5t-65 21.5q-69 0 -127 -69l-16 10q63 78 145 78q48 0 77.5 -26.5t30.5 -65.5q1 -38 -21 -69t-75 -69l-203 -147h242l-6 -19h-273zM621 -10q-38 0 -73.5 18t-56.5 52l17 10q39 -61 116 -61q58 0 101 34.5
t43 84.5q0 37 -25.5 59t-73.5 22q-50 0 -107 -25l-10 8l65 194h225l-6 -19h-207l-55 -161q53 22 99 22q53 0 84.5 -28t31.5 -69q0 -60 -50 -100.5t-118 -40.5zM115 0l338 355l325 345h27l-339 -355l-324 -345h-27z" />
    <glyph glyph-name="threefifths" unicode="&#x2157;" horiz-adv-x="900" 
d="M183 304q-92 0 -133 72l18 11q37 -64 117 -64q53 0 93 32t40 74q0 37 -28.5 58t-79.5 21h-26l-4 12l191 161h-224l6 19h251l-5 -18l-186 -156q60 0 93 -25.5t33 -69.5q0 -52 -46.5 -89.5t-109.5 -37.5zM621 -10q-38 0 -73.5 18t-56.5 52l17 10q39 -61 116 -61
q58 0 101 34.5t43 84.5q0 37 -25.5 59t-73.5 22q-50 0 -107 -25l-10 8l65 194h225l-6 -19h-207l-55 -161q53 22 99 22q53 0 84.5 -28t31.5 -69q0 -60 -50 -100.5t-118 -40.5zM100 0l338 355l325 345h27l-339 -355l-324 -345h-27z" />
    <glyph glyph-name="fourfifths" unicode="&#x2158;" horiz-adv-x="900" 
d="M248 312l26 99h-203l-4 16l281 279h24l-74 -277h63l-5 -18h-63l-26 -99h-19zM92 429h187l67 251zM621 -10q-38 0 -73.5 18t-56.5 52l17 10q39 -61 116 -61q58 0 101 34.5t43 84.5q0 37 -25.5 59t-73.5 22q-50 0 -107 -25l-10 8l65 194h225l-6 -19h-207l-55 -161
q53 22 99 22q53 0 84.5 -28t31.5 -69q0 -60 -50 -100.5t-118 -40.5zM115 0l338 355l325 345h27l-339 -355l-324 -345h-27z" />
    <glyph glyph-name="onesixth" unicode="&#x2159;" horiz-adv-x="825" 
d="M554 -9q-57 0 -88.5 34t-31.5 94q0 61 24 120.5t65 100.5q56 56 121 56q72 0 110 -53l-19 -13q-32 47 -93 47q-56 0 -104 -48q-65 -65 -85 -175q19 39 56.5 62t82.5 23q51 0 83.5 -29t32.5 -73q0 -60 -48 -103t-106 -43zM553 10q51 0 92.5 36.5t41.5 89.5
q0 37 -27.5 60.5t-72.5 23.5q-56 0 -97 -41q-34 -34 -34 -81q0 -35 24.5 -61.5t72.5 -26.5zM45 0l338 355l325 345h27l-339 -355l-324 -345h-27zM161 314l99 370l-112 -36l-1 18l124 41h16l-105 -393h-21z" />
    <glyph glyph-name="fivesixths" unicode="&#x215a;" horiz-adv-x="900" 
d="M629 -9q-57 0 -88.5 34t-31.5 94q0 61 24 120.5t65 100.5q56 56 121 56q72 0 110 -53l-19 -13q-32 47 -93 47q-56 0 -104 -48q-65 -65 -85 -175q19 39 56.5 62t82.5 23q51 0 83.5 -29t32.5 -73q0 -60 -48 -103t-106 -43zM628 10q51 0 92.5 36.5t41.5 89.5
q0 37 -27.5 60.5t-72.5 23.5q-56 0 -97 -41q-34 -34 -34 -81q0 -35 24.5 -61.5t72.5 -26.5zM184 304q-38 0 -73.5 18t-56.5 52l17 10q39 -61 116 -61q58 0 101 34.5t43 84.5q0 37 -25.5 59t-73.5 22q-50 0 -107 -25l-10 8l65 194h225l-6 -19h-207l-55 -161q53 22 99 22
q53 0 84.5 -28t31.5 -69q0 -60 -50 -100.5t-118 -40.5zM105 0l338 355l325 345h27l-339 -355l-324 -345h-27z" />
    <glyph glyph-name="oneeighth" unicode="&#x215b;" horiz-adv-x="825" 
d="M161 314l99 370l-112 -36l-1 18l124 41h16l-105 -393h-21zM42 0l338 355l325 345h27l-339 -355l-324 -345h-27zM562 -10q-59 0 -96.5 28.5t-37.5 72.5q0 41 32.5 71.5t83.5 39.5q-57 28 -57 82q0 49 40 80.5t100 31.5q54 0 87.5 -28t33.5 -69q0 -42 -31 -70t-73 -37
q71 -28 71 -87q0 -51 -44.5 -83t-108.5 -32zM563 8q55 0 93 27t38 69q0 38 -33 61t-83 23q-57 0 -93 -27.5t-36 -68.5q0 -36 31 -60t83 -24zM608 204q50 0 84.5 26.5t34.5 67.5q0 35 -28 57.5t-74 22.5q-48 0 -82.5 -25.5t-34.5 -66.5q0 -35 27 -58.5t73 -23.5z" />
    <glyph glyph-name="threeeighths" unicode="&#x215c;" horiz-adv-x="900" 
d="M183 304q-92 0 -133 72l18 11q37 -64 117 -64q53 0 93 32t40 74q0 37 -28.5 58t-79.5 21h-26l-4 12l191 161h-224l6 19h251l-5 -18l-186 -156q60 0 93 -25.5t33 -69.5q0 -52 -46.5 -89.5t-109.5 -37.5zM637 -10q-59 0 -96.5 28.5t-37.5 72.5q0 41 32.5 71.5t83.5 39.5
q-57 28 -57 82q0 49 40 80.5t100 31.5q54 0 87.5 -28t33.5 -69q0 -42 -31 -70t-73 -37q71 -28 71 -87q0 -51 -44.5 -83t-108.5 -32zM638 8q55 0 93 27t38 69q0 38 -33 61t-83 23q-57 0 -93 -27.5t-36 -68.5q0 -36 31 -60t83 -24zM683 204q50 0 84.5 26.5t34.5 67.5
q0 35 -28 57.5t-74 22.5q-48 0 -82.5 -25.5t-34.5 -66.5q0 -35 27 -58.5t73 -23.5zM105 0l338 355l325 345h27l-339 -355l-324 -345h-27z" />
    <glyph glyph-name="fiveeighths" unicode="&#x215d;" horiz-adv-x="900" 
d="M184 304q-38 0 -73.5 18t-56.5 52l17 10q39 -61 116 -61q58 0 101 34.5t43 84.5q0 37 -25.5 59t-73.5 22q-50 0 -107 -25l-10 8l65 194h225l-6 -19h-207l-55 -161q53 22 99 22q53 0 84.5 -28t31.5 -69q0 -60 -50 -100.5t-118 -40.5zM637 -10q-59 0 -96.5 28.5t-37.5 72.5
q0 41 32.5 71.5t83.5 39.5q-57 28 -57 82q0 49 40 80.5t100 31.5q54 0 87.5 -28t33.5 -69q0 -42 -31 -70t-73 -37q71 -28 71 -87q0 -51 -44.5 -83t-108.5 -32zM638 8q55 0 93 27t38 69q0 38 -33 61t-83 23q-57 0 -93 -27.5t-36 -68.5q0 -36 31 -60t83 -24zM683 204
q50 0 84.5 26.5t34.5 67.5q0 35 -28 57.5t-74 22.5q-48 0 -82.5 -25.5t-34.5 -66.5q0 -35 27 -58.5t73 -23.5zM105 0l338 355l325 345h27l-339 -355l-324 -345h-27z" />
    <glyph glyph-name="seveneighths" unicode="&#x215e;" horiz-adv-x="900" 
d="M115 312l285 369h-241l5 19h265l-4 -16l-285 -372h-25zM637 -10q-59 0 -96.5 28.5t-37.5 72.5q0 41 32.5 71.5t83.5 39.5q-57 28 -57 82q0 49 40 80.5t100 31.5q54 0 87.5 -28t33.5 -69q0 -42 -31 -70t-73 -37q71 -28 71 -87q0 -51 -44.5 -83t-108.5 -32zM638 8
q55 0 93 27t38 69q0 38 -33 61t-83 23q-57 0 -93 -27.5t-36 -68.5q0 -36 31 -60t83 -24zM683 204q50 0 84.5 26.5t34.5 67.5q0 35 -28 57.5t-74 22.5q-48 0 -82.5 -25.5t-34.5 -66.5q0 -35 27 -58.5t73 -23.5zM75 0l338 355l325 345h27l-339 -355l-324 -345h-27z" />
    <glyph glyph-name="minus" unicode="&#x2212;" 
d="M95 343l5 18h458l-5 -18h-458z" />
    <glyph glyph-name="Q.alt" horiz-adv-x="838" 
d="M494 712q132 0 216 -87t84 -216q0 -84 -34.5 -165t-92.5 -139l-24 -22l70 -79l-15 -13l-71 79q-104 -82 -230 -82q-132 0 -216 87t-84 216q0 85 34 165t94 140q116 116 269 116zM398 8q120 0 216 76l-129 145l16 13l128 -145q8 6 22 20q57 57 89 133t32 158
q0 121 -78 202.5t-201 81.5q-144 0 -252 -108q-58 -58 -90 -134t-32 -158q0 -121 78 -202.5t201 -81.5z" />
    <glyph glyph-name="a.alt" horiz-adv-x="650" 
d="M259 -12q-90 0 -148.5 61.5t-58.5 151.5q0 63 25.5 125t70.5 107q79 79 186 79q95 0 152.5 -54.5t67.5 -127.5l46 170h21l-134 -500h-21l34 126q-26 -49 -93 -93.5t-148 -44.5zM260 8q106 0 188 82q43 43 67 95t24 99q0 91 -56 149.5t-148 58.5q-98 0 -170 -72
q-43 -43 -67 -100.5t-24 -115.5q0 -84 52.5 -140t133.5 -56z" />
    <glyph glyph-name="aacute.alt" horiz-adv-x="650" 
d="M259 -12q-90 0 -148.5 61.5t-58.5 151.5q0 63 25.5 125t70.5 107q79 79 186 79q95 0 152.5 -54.5t67.5 -127.5l46 170h21l-134 -500h-21l34 126q-26 -49 -93 -93.5t-148 -44.5zM260 8q106 0 188 82q43 43 67 95t24 99q0 91 -56 149.5t-148 58.5q-98 0 -170 -72
q-43 -43 -67 -100.5t-24 -115.5q0 -84 52.5 -140t133.5 -56zM397 595l116 113l24 -12l-124 -101h-16z" />
    <glyph glyph-name="abreve.alt" horiz-adv-x="650" 
d="M259 -12q-90 0 -148.5 61.5t-58.5 151.5q0 63 25.5 125t70.5 107q79 79 186 79q95 0 152.5 -54.5t67.5 -127.5l46 170h21l-134 -500h-21l34 126q-26 -49 -93 -93.5t-148 -44.5zM260 8q106 0 188 82q43 43 67 95t24 99q0 91 -56 149.5t-148 58.5q-98 0 -170 -72
q-43 -43 -67 -100.5t-24 -115.5q0 -84 52.5 -140t133.5 -56zM413 594q-53 0 -80 27.5t-22 71.5h16q-2 -38 20 -59t68 -21q88 0 129 80h17q-42 -99 -148 -99z" />
    <glyph glyph-name="acircumflex.alt" horiz-adv-x="650" 
d="M259 -12q-90 0 -148.5 61.5t-58.5 151.5q0 63 25.5 125t70.5 107q79 79 186 79q95 0 152.5 -54.5t67.5 -127.5l46 170h21l-134 -500h-21l34 126q-26 -49 -93 -93.5t-148 -44.5zM260 8q106 0 188 82q43 43 67 95t24 99q0 91 -56 149.5t-148 58.5q-98 0 -170 -72
q-43 -43 -67 -100.5t-24 -115.5q0 -84 52.5 -140t133.5 -56zM295 595l137 112h12l75 -112h-15l-71 86l-118 -86h-20z" />
    <glyph glyph-name="adieresis.alt" horiz-adv-x="650" 
d="M259 -12q-90 0 -148.5 61.5t-58.5 151.5q0 63 25.5 125t70.5 107q79 79 186 79q95 0 152.5 -54.5t67.5 -127.5l46 170h21l-134 -500h-21l34 126q-26 -49 -93 -93.5t-148 -44.5zM260 8q106 0 188 82q43 43 67 95t24 99q0 91 -56 149.5t-148 58.5q-98 0 -170 -72
q-43 -43 -67 -100.5t-24 -115.5q0 -84 52.5 -140t133.5 -56zM332 614l13 50h36l-13 -50h-36zM462 614l13 50h36l-13 -50h-36z" />
    <glyph glyph-name="agrave.alt" horiz-adv-x="650" 
d="M259 -12q-90 0 -148.5 61.5t-58.5 151.5q0 63 25.5 125t70.5 107q79 79 186 79q95 0 152.5 -54.5t67.5 -127.5l46 170h21l-134 -500h-21l34 126q-26 -49 -93 -93.5t-148 -44.5zM260 8q106 0 188 82q43 43 67 95t24 99q0 91 -56 149.5t-148 58.5q-98 0 -170 -72
q-43 -43 -67 -100.5t-24 -115.5q0 -84 52.5 -140t133.5 -56zM393 595l-70 101l26 12l56 -113h-12z" />
    <glyph glyph-name="amacron.alt" horiz-adv-x="650" 
d="M259 -12q-90 0 -148.5 61.5t-58.5 151.5q0 63 25.5 125t70.5 107q79 79 186 79q95 0 152.5 -54.5t67.5 -127.5l46 170h21l-134 -500h-21l34 126q-26 -49 -93 -93.5t-148 -44.5zM260 8q106 0 188 82q43 43 67 95t24 99q0 91 -56 149.5t-148 58.5q-98 0 -170 -72
q-43 -43 -67 -100.5t-24 -115.5q0 -84 52.5 -140t133.5 -56zM287 621l5 19h260l-5 -19h-260z" />
    <glyph glyph-name="aogonek.alt" horiz-adv-x="650" 
d="M475 -143l-4 -16q-42 0 -67.5 16.5t-25.5 43.5q0 50 89 104l33 121q-26 -49 -93 -93.5t-148 -44.5q-90 0 -148.5 61.5t-58.5 151.5q0 63 25.5 125t70.5 107q79 79 186 79q95 0 152.5 -54.5t67.5 -127.5l46 170h21l-134 -500h-3q-82 -53 -82 -96t73 -47zM260 8
q106 0 188 82q43 43 67 95t24 99q0 91 -56 149.5t-148 58.5q-98 0 -170 -72q-43 -43 -67 -100.5t-24 -115.5q0 -84 52.5 -140t133.5 -56z" />
    <glyph glyph-name="aring.alt" horiz-adv-x="650" 
d="M259 -12q-90 0 -148.5 61.5t-58.5 151.5q0 63 25.5 125t70.5 107q79 79 186 79q95 0 152.5 -54.5t67.5 -127.5l46 170h21l-134 -500h-21l34 126q-26 -49 -93 -93.5t-148 -44.5zM260 8q106 0 188 82q43 43 67 95t24 99q0 91 -56 149.5t-148 58.5q-98 0 -170 -72
q-43 -43 -67 -100.5t-24 -115.5q0 -84 52.5 -140t133.5 -56zM531 696q0 -42 -32.5 -72t-72.5 -30t-64.5 23.5t-24.5 60.5q0 42 32.5 72t72.5 30t64.5 -23.5t24.5 -60.5zM355 679q0 -31 19.5 -50t52.5 -19t59.5 25t26.5 60q0 31 -19.5 50t-52.5 19t-59.5 -25t-26.5 -60z" />
    <glyph glyph-name="aring.alt2" horiz-adv-x="566" 
d="M391 0l32 119q-33 -59 -93 -95t-144 -36q-64 0 -112 37t-48 100q0 69 45 114q60 60 180 60q113 0 212 -31l6 23q9 33 9 61q0 66 -49 101t-130 35q-69 0 -140 -25l-6 20q63 24 146 25q-29 21 -29 63t32.5 71.5t72.5 29.5t64.5 -23t24.5 -60q0 -32 -20.5 -58t-50.5 -36
q105 -34 105 -142q0 -29 -9 -65l-77 -288h-21zM360 504q33 0 59.5 24.5t26.5 59.5q0 31 -19.5 49.5t-52.5 18.5t-59.5 -24.5t-26.5 -59.5q0 -31 19.5 -49.5t52.5 -18.5zM190 7q96 0 164.5 56.5t91.5 141.5l12 44q-99 30 -211 30q-107 0 -160 -53q-39 -39 -39 -98
q0 -57 43 -89t99 -32z" />
    <glyph glyph-name="aringacute.alt" horiz-adv-x="650" 
d="M460 822l113 93l22 -11l-117 -82h-18zM259 -12q-90 0 -148.5 61.5t-58.5 151.5q0 63 25.5 125t70.5 107q79 79 186 79q95 0 152.5 -54.5t67.5 -127.5l46 170h21l-134 -500h-21l34 126q-26 -49 -93 -93.5t-148 -44.5zM260 8q106 0 188 82q43 43 67 95t24 99
q0 91 -56 149.5t-148 58.5q-98 0 -170 -72q-43 -43 -67 -100.5t-24 -115.5q0 -84 52.5 -140t133.5 -56zM531 696q0 -42 -32.5 -72t-72.5 -30t-64.5 23.5t-24.5 60.5q0 42 32.5 72t72.5 30t64.5 -23.5t24.5 -60.5zM355 679q0 -31 19.5 -50t52.5 -19t59.5 25t26.5 60
q0 31 -19.5 50t-52.5 19t-59.5 -25t-26.5 -60z" />
    <glyph glyph-name="aringacute.alt2" horiz-adv-x="566" 
d="M391 720l113 93l22 -11l-117 -82h-18zM391 0l32 119q-33 -59 -93 -95t-144 -36q-64 0 -112 37t-48 100q0 69 45 114q60 60 180 60q113 0 212 -31l6 23q9 33 9 61q0 66 -49 101t-130 35q-69 0 -140 -25l-6 20q63 24 146 25q-29 21 -29 63t32.5 71.5t72.5 29.5t64.5 -23
t24.5 -60q0 -32 -20.5 -58t-50.5 -36q105 -34 105 -142q0 -29 -9 -65l-77 -288h-21zM360 504q33 0 59.5 24.5t26.5 59.5q0 31 -19.5 49.5t-52.5 18.5t-59.5 -24.5t-26.5 -59.5q0 -31 19.5 -49.5t52.5 -18.5zM190 7q96 0 164.5 56.5t91.5 141.5l12 44q-99 30 -211 30
q-107 0 -160 -53q-39 -39 -39 -98q0 -57 43 -89t99 -32z" />
    <glyph glyph-name="atilde.alt" horiz-adv-x="650" 
d="M259 -12q-90 0 -148.5 61.5t-58.5 151.5q0 63 25.5 125t70.5 107q79 79 186 79q95 0 152.5 -54.5t67.5 -127.5l46 170h21l-134 -500h-21l34 126q-26 -49 -93 -93.5t-148 -44.5zM260 8q106 0 188 82q43 43 67 95t24 99q0 91 -56 149.5t-148 58.5q-98 0 -170 -72
q-43 -43 -67 -100.5t-24 -115.5q0 -84 52.5 -140t133.5 -56zM551 689l13 -3q-30 -80 -83 -80q-22 0 -67 31q-39 27 -57 27q-37 0 -67 -63l-13 3q30 80 83 80q22 0 67 -31q39 -27 57 -27q37 0 67 63z" />
    <glyph glyph-name="three.alt" horiz-adv-x="568" 
d="M239 -12q-73 0 -139 31.5t-103 89.5l19 11q35 -56 96 -84t128 -28q104 0 167.5 54t63.5 126q0 71 -52.5 113.5t-136.5 42.5h-78l5 20h79q106 0 180 51t74 131q0 64 -53 105t-136 41q-114 0 -202 -80l-14 16q92 84 216 84q94 0 152.5 -47t58.5 -118q0 -82 -62 -131.5
t-154 -62.5q69 -15 107 -59.5t38 -104.5q0 -82 -70 -141.5t-184 -59.5z" />
    <glyph glyph-name="registered.alt" horiz-adv-x="830" 
d="M479 712q144 0 232.5 -91t88.5 -228q0 -80 -31 -156t-88 -133q-116 -116 -279 -116q-144 0 -232.5 91t-88.5 228q0 80 31 156t88 133q116 116 279 116zM404 5q154 0 264 110q114 114 114 280q0 128 -82.5 214t-222.5 86q-154 0 -264 -110q-114 -114 -114 -280
q0 -128 82.5 -214t222.5 -86zM327 332l-42 -155h-20l98 366h131q67 0 98 -31q25 -25 25 -65q0 -44 -29 -73q-36 -36 -111 -41l78 -156h-21l-77 155h-130zM332 350h121q86 0 121 35q24 24 24 62q0 32 -19 51q-27 27 -84 27h-117z" />
    <glyph glyph-name="R_p" horiz-adv-x="1170" 
d="M22 0l188 700h181q109 0 167.5 -46.5t58.5 -130.5q0 -71 -39 -123t-99 -76.5t-133 -27.5l154 -296h-24l-154 295h-199l-79 -295h-22zM563 -160l177 660h21l-34 -126q24 49 83 93.5t128 44.5q81 0 128 -57t47 -148q0 -70 -26 -136t-72 -112q-71 -71 -163 -71
q-83 0 -127 53t-52 129l-89 -330h-21zM128 315h193q120 0 197 54.5t77 151.5q0 76 -53.5 117.5t-152.5 41.5h-162zM851 8q84 0 148 64q43 43 67.5 105t24.5 127q0 85 -41 136.5t-113 51.5q-84 0 -155 -71q-43 -43 -68.5 -99.5t-25.5 -105.5q0 -93 43 -150.5t120 -57.5z" />
    <glyph glyph-name="onehalf.alt" horiz-adv-x="900" 
d="M60 314l5 18h131l94 352l-131 -42l-1 18l143 47h16l-100 -375h123l-5 -18h-275zM478 0l5 18l225 163q46 33 65.5 60.5t19.5 60.5q0 32 -24 53.5t-65 21.5q-69 0 -127 -69l-16 10q63 78 145 78q48 0 77.5 -26.5t30.5 -65.5q1 -38 -21 -69t-75 -69l-203 -147h242l-6 -19
h-273zM125 0l338 355l325 345h27l-339 -355l-324 -345h-27z" />
    <glyph glyph-name="onethird.alt" horiz-adv-x="900" 
d="M60 314l5 18h131l94 352l-131 -42l-1 18l143 47h16l-100 -375h123l-5 -18h-275zM620 -10q-92 0 -133 72l18 11q37 -64 117 -64q53 0 93 32t40 74q0 37 -28.5 58t-79.5 21h-26l-4 12l191 161h-224l6 19h251l-5 -18l-186 -156q60 0 93 -25.5t33 -69.5q0 -52 -46.5 -89.5
t-109.5 -37.5zM115 0l338 355l325 345h27l-339 -355l-324 -345h-27z" />
    <glyph glyph-name="onequarter.alt" horiz-adv-x="900" 
d="M675 -2l26 99h-203l-4 16l281 279h24l-74 -277h63l-5 -18h-63l-26 -99h-19zM519 115h187l67 251zM130 0l338 355l325 345h27l-339 -355l-324 -345h-27zM60 314l5 18h131l94 352l-131 -42l-1 18l143 47h16l-100 -375h123l-5 -18h-275z" />
    <glyph glyph-name="onefifth.alt" horiz-adv-x="900" 
d="M60 314l5 18h131l94 352l-131 -42l-1 18l143 47h16l-100 -375h123l-5 -18h-275zM621 -10q-38 0 -73.5 18t-56.5 52l17 10q39 -61 116 -61q58 0 101 34.5t43 84.5q0 37 -25.5 59t-73.5 22q-50 0 -107 -25l-10 8l65 194h225l-6 -19h-207l-55 -161q53 22 99 22
q53 0 84.5 -28t31.5 -69q0 -60 -50 -100.5t-118 -40.5zM120 0l338 355l325 345h27l-339 -355l-324 -345h-27z" />
    <glyph glyph-name="onesixth.alt" horiz-adv-x="900" 
d="M629 -9q-57 0 -88.5 34t-31.5 94q0 61 24 120.5t65 100.5q56 56 121 56q72 0 110 -53l-19 -13q-32 47 -93 47q-56 0 -104 -48q-65 -65 -85 -175q19 39 56.5 62t82.5 23q51 0 83.5 -29t32.5 -73q0 -60 -48 -103t-106 -43zM628 10q51 0 92.5 36.5t41.5 89.5
q0 37 -27.5 60.5t-72.5 23.5q-56 0 -97 -41q-34 -34 -34 -81q0 -35 24.5 -61.5t72.5 -26.5zM120 0l338 355l325 345h27l-339 -355l-324 -345h-27zM60 314l5 18h131l94 352l-131 -42l-1 18l143 47h16l-100 -375h123l-5 -18h-275z" />
    <glyph glyph-name="oneeighth.alt" horiz-adv-x="900" 
d="M60 314l5 18h131l94 352l-131 -42l-1 18l143 47h16l-100 -375h123l-5 -18h-275zM120 0l338 355l325 345h27l-339 -355l-324 -345h-27zM637 -10q-59 0 -96.5 28.5t-37.5 72.5q0 41 32.5 71.5t83.5 39.5q-57 28 -57 82q0 49 40 80.5t100 31.5q54 0 87.5 -28t33.5 -69
q0 -42 -31 -70t-73 -37q71 -28 71 -87q0 -51 -44.5 -83t-108.5 -32zM638 8q55 0 93 27t38 69q0 38 -33 61t-83 23q-57 0 -93 -27.5t-36 -68.5q0 -36 31 -60t83 -24zM683 204q50 0 84.5 26.5t34.5 67.5q0 35 -28 57.5t-74 22.5q-48 0 -82.5 -25.5t-34.5 -66.5q0 -35 27 -58.5
t73 -23.5z" />
    <glyph glyph-name="one.sup_alt" horiz-adv-x="400" 
d="M122 426l5 18h131l94 352l-131 -42l-1 18l143 47h16l-100 -375h123l-5 -18h-275z" />
    <glyph glyph-name="one.inf_alt" horiz-adv-x="400" 
d="M-27 -132l5 18h131l94 352l-131 -42l-1 18l143 47h16l-100 -375h123l-5 -18h-275z" />
    <glyph glyph-name="zero.tab" 
d="M562 479q0 -115 -42 -226t-113 -182q-83 -83 -180 -83q-88 0 -138.5 64.5t-50.5 168.5q0 115 42 226t113 182q83 83 180 83q88 0 138.5 -64.5t50.5 -168.5zM60 223q0 -97 45.5 -156t124.5 -59q84 0 158 74q68 68 110 176.5t42 218.5q0 97 -45.5 156t-124.5 59
q-84 0 -158 -74q-68 -68 -110 -176.5t-42 -218.5z" />
    <glyph glyph-name="one.tab" 
d="M4 0l5 20h229l178 662l-235 -84l-2 18l247 89h17l-184 -685h206l-5 -20h-456z" />
    <glyph glyph-name="two.tab" 
d="M-29 0l4 16l393 310q90 71 125 122.5t34 102.5q0 57 -43.5 98t-118.5 41q-129 0 -239 -146l-18 10q115 156 259 156q84 0 133 -45.5t49 -112.5q0 -59 -36.5 -113t-132.5 -129l-368 -290h436l-5 -20h-472z" />
    <glyph glyph-name="three.tab" 
d="M224 -11q-167 0 -238 141l20 10q66 -131 218 -131q99 0 169 57t70 140q0 68 -58 111t-159 43h-34l-3 16l360 304h-412l6 20h443l-4 -16l-361 -305q113 0 178.5 -47.5t65.5 -123.5q0 -94 -78 -156.5t-183 -62.5z" />
    <glyph glyph-name="three.tab_alt" 
d="M242 -12q-171 0 -254 142l20 10q76 -132 236 -132q89 0 158.5 51t69.5 133q0 66 -52 109t-138 43h-78l5 20h79q108 0 182 48.5t74 131.5q0 63 -50 105.5t-132 42.5q-125 0 -225 -97l-15 14q108 103 242 103q92 0 147 -47.5t55 -119.5q0 -83 -66 -132.5t-147 -60.5
q61 -14 101 -56.5t40 -103.5q0 -89 -75.5 -146.5t-176.5 -57.5z" />
    <glyph glyph-name="four.tab" 
d="M329 0l49 183h-379l-4 16l521 506h23l-135 -502h125l-5 -20h-125l-49 -183h-21zM28 203h355l125 468z" />
    <glyph glyph-name="five.tab" 
d="M220 -12q-78 0 -140.5 37t-89.5 93l20 9q29 -55 84.5 -87t129.5 -32q104 0 184 68t80 164q0 67 -49 110.5t-129 43.5q-92 0 -197 -54l-14 9l120 351h388l-6 -20h-367l-108 -315q94 49 186 49q89 0 143.5 -49.5t54.5 -122.5q0 -105 -86.5 -179.5t-203.5 -74.5z" />
    <glyph glyph-name="six.tab" 
d="M248 -12q-95 0 -153 58q-59 59 -59 161q0 106 45 222.5t120 191.5q91 91 198 91q115 0 190 -93l-19 -14q-66 87 -175 87q-97 0 -181 -84q-58 -58 -99 -146.5t-57 -185.5q32 71 99 113t148 42q93 0 148.5 -54t55.5 -134q0 -103 -79 -179t-182 -76zM249 8q95 0 166.5 69.5
t71.5 163.5q0 74 -50 122t-137 48q-105 0 -180 -75q-63 -63 -63 -144q0 -75 49.5 -129.5t142.5 -54.5z" />
    <glyph glyph-name="seven.tab" 
d="M71 0l509 680h-438l6 20h465l-4 -13l-512 -687h-26z" />
    <glyph glyph-name="eight.tab" 
d="M244 -11q-110 0 -171.5 54t-61.5 128q0 75 60 130t159 68q-53 19 -84.5 61t-31.5 91q0 78 68 134t176 56q92 0 152 -50t60 -120q0 -73 -58 -125t-142 -62q62 -20 99.5 -65t37.5 -97q0 -84 -74 -143.5t-189 -59.5zM248 9q102 0 169.5 54.5t67.5 128.5q0 68 -61.5 114.5
t-155.5 46.5q-102 0 -168.5 -54.5t-66.5 -125.5q0 -66 56.5 -115t158.5 -49zM327 369q99 0 160 51t61 119q0 64 -53.5 108t-138.5 44q-92 0 -156 -49.5t-64 -117.5q0 -63 55 -109t136 -46z" />
    <glyph glyph-name="nine.tab" 
d="M193 -12q-117 0 -195 99l19 14q70 -93 180 -93q97 0 181 84q58 58 99 145.5t57 183.5q-31 -72 -99 -115t-149 -43q-94 0 -149 54.5t-55 136.5q0 105 79.5 181.5t182.5 76.5q95 0 153 -58q59 -59 59 -161q0 -106 -45 -222.5t-120 -191.5q-91 -91 -198 -91zM290 283
q49 0 98 20.5t84 55.5q63 63 63 146q0 77 -49 132t-143 55q-95 0 -167 -70t-72 -166q0 -76 49.5 -124.5t136.5 -48.5z" />
    <glyph glyph-name="period.tab" horiz-adv-x="300" 
d="M35 0l15 56h42l-15 -56h-42z" />
    <glyph glyph-name="comma.tab" horiz-adv-x="300" 
d="M8 -81l-3 13q38 16 51 68h-20l15 56h40l-14 -50q-18 -68 -69 -87z" />
    <glyph glyph-name="colon.tab" horiz-adv-x="300" 
d="M36 0l15 56h42l-15 -56h-42zM154 444l15 56h42l-15 -56h-42z" />
    <glyph glyph-name="semicolon.tab" horiz-adv-x="300" 
d="M5 -68q39 16 51 68h-20l15 56h40l-13 -50q-18 -68 -69 -87zM154 444l15 56h42l-15 -56h-42z" />
    <glyph glyph-name="twodotleader.tab" 
d="M38 0l13 52h36l-13 -52h-36zM338 0l13 52h36l-13 -52h-36z" />
    <glyph glyph-name="periodcentered.tab" horiz-adv-x="300" 
d="M107 270l15 56h42l-15 -56h-42z" />
    <glyph glyph-name="slash.tab" 
d="M-103 -128l758 926h24l-758 -926h-24z" />
    <glyph glyph-name="bar.tab" horiz-adv-x="300" 
d="M11 -128l249 926h20l-249 -926h-20z" />
    <glyph glyph-name="underscore.tab" 
d="M-136 -149l5 20h604l-5 -20h-604z" />
    <glyph glyph-name="dollar.tab" 
d="M409 779h20l-23 -84q108 -17 179 -103l-17 -13q-68 83 -167 98l-85 -317q96 -42 136.5 -79.5t40.5 -92.5q0 -81 -67.5 -134.5t-166.5 -53.5q-26 0 -39 2l-32 -120h-20l33 123q-131 23 -205 131l17 13q74 -108 193 -127l88 326q-85 37 -124.5 76.5t-39.5 89.5
q0 78 65 131.5t159 53.5q11 0 33 -2zM472 186q0 50 -37 83.5t-124 71.5l-86 -321q22 -2 35 -2q89 0 150.5 48.5t61.5 119.5zM151 516q0 -44 36 -79t112 -69l83 311q-18 2 -29 2q-83 0 -142.5 -48.5t-59.5 -116.5z" />
    <glyph glyph-name="sterling.tab" 
d="M-29 0l3 13l94 8l79 298h-91l6 20h91l35 128q32 120 91 179q64 64 149 64q59 0 105 -31t71 -83l-19 -10q-51 104 -159 104q-75 0 -131 -56q-55 -55 -87 -173l-33 -122h302l-6 -20h-302l-80 -299h375l-5 -20h-488z" />
    <glyph glyph-name="Euro.tab" 
d="M69 439l6 20h77q41 98 105 162q88 88 187 88q113 0 168 -120l-20 -10q-49 110 -151 110q-86 0 -163 -77q-62 -62 -102 -153h279l-6 -20h-282q-34 -86 -41 -171h278l-6 -20h-273v-21q0 -98 41 -157t120 -59q86 0 170 72l14 -15q-90 -77 -184 -77q-90 0 -136 63t-46 171v23
h-86l6 20h81q7 87 39 171h-75z" />
    <glyph glyph-name="yen.tab" 
d="M78 290l6 20h185l-145 390h24l140 -388l348 388h28l-355 -390h186l-6 -20h-194l-40 -150h194l-5 -20h-194l-32 -120h-22l32 120h-195l5 20h195l40 150h-195z" />
    <glyph glyph-name="cent.tab" 
d="M469 706l-39 -97q90 -22 139 -111l-18 -10q-45 82 -127 103l-187 -471q30 -9 61 -9q100 0 181 77l13 -13q-87 -83 -195 -83q-37 0 -67 10l-43 -108h-19l45 114q-60 23 -98 75t-38 125q0 127 93 220q88 88 202 88q20 0 40 -3l37 93h20zM99 309q0 -67 33.5 -114.5
t87.5 -68.5l185 469q-22 2 -33 2q-105 0 -186 -81q-87 -87 -87 -207z" />
    <glyph glyph-name="numbersign.tab" 
d="M47 0l70 201h-99l5 19h101l93 266h-117l5 19h118l68 195h20l-68 -195h220l68 195h20l-68 -195h99l-5 -19h-101l-92 -266h116l-5 -19h-118l-70 -201h-20l70 201h-220l-70 -201h-20zM144 220h220l93 266h-221z" />
    <glyph glyph-name="paragraph.tab" 
d="M347 0l74 277h-70q-128 0 -188 60q-48 48 -48 125q0 92 63 155q83 83 251 83h128l-188 -700h-22z" />
    <glyph glyph-name="section.tab" 
d="M255 -10q-67 0 -125 23.5t-94 56.5l16 15q81 -75 204 -75q63 0 102 26.5t39 68.5q0 31 -26.5 56.5t-57 39t-82.5 31.5q-31 11 -51 19t-45 21t-39 26t-24 31.5t-10 40.5q0 54 56.5 88t157.5 26q-96 43 -96 110q0 50 45.5 83t118.5 33q67 0 125 -23.5t94 -56.5l-16 -15
q-81 75 -204 75q-63 0 -102 -26.5t-39 -68.5q0 -31 26.5 -56.5t57 -39t82.5 -31.5q31 -11 51 -19t45 -21t39 -26t24 -31.5t10 -40.5q0 -54 -56.5 -88t-157.5 -26q96 -43 96 -110q0 -50 -45.5 -83t-118.5 -33zM352 232q78 0 120.5 28t42.5 68q0 35 -32 62.5t-119 56.5
q-62 21 -117 21q-78 0 -120.5 -28t-42.5 -68q0 -35 32 -62.5t119 -56.5q61 -21 117 -21z" />
    <glyph glyph-name="degree.tab" 
d="M363 707q76 0 124.5 -49.5t48.5 -123.5q0 -91 -68 -159q-62 -62 -145 -62q-76 0 -124.5 49.5t-48.5 123.5q0 91 68 159q62 62 145 62zM323 333q73 0 128 55q62 62 62 146q0 66 -41.5 109.5t-108.5 43.5q-73 0 -128 -55q-62 -62 -62 -146q0 -66 41.5 -109.5t108.5 -43.5z
" />
    <glyph glyph-name="percent.tab" 
d="M239 708q40 0 63 -31t23 -77q0 -50 -21 -101.5t-54 -84.5q-40 -40 -83 -40q-40 0 -63 31t-23 77q0 50 21 101.5t54 84.5q40 40 83 40zM362 -8q-40 0 -63 31t-23 77q0 50 21 101.5t54 84.5q40 40 83 40q40 0 63 -31t23 -77q0 -50 -21 -101.5t-54 -84.5q-40 -40 -83 -40z
M363 11q34 0 67 33q31 31 50.5 78.5t19.5 94.5q0 39 -17.5 64.5t-49.5 25.5q-34 0 -67 -33q-31 -31 -50.5 -78.5t-19.5 -94.5q0 -39 17.5 -64.5t49.5 -25.5zM238 689q-34 0 -67 -33q-31 -31 -50.5 -78.5t-19.5 -94.5q0 -39 17.5 -64.5t49.5 -25.5q34 0 67 33
q31 31 50.5 78.5t19.5 94.5q0 39 -17.5 64.5t-49.5 25.5zM578 700h21l-292 -354l-284 -346h-21l293 355z" />
    <glyph glyph-name="quotedbl.tab" 
d="M164 446l133 254h26v-2l-146 -252h-13zM374 446l133 254h26v-2l-146 -252h-13z" />
    <glyph glyph-name="quotesingle.tab" horiz-adv-x="300" 
d="M131 446l133 254h26v-2l-146 -252h-13z" />
    <glyph glyph-name="plus.tab" 
d="M227 120l60 223h-219l5 18h219l60 223h20l-60 -223h219l-5 -18h-219l-60 -223h-20z" />
    <glyph glyph-name="minus.tab" 
d="M68 343l5 18h458l-5 -18h-458z" />
    <glyph glyph-name="divide.tab" 
d="M218 115l14 52h36l-14 -52h-36zM68 343l5 18h458l-5 -18h-458zM331 537l14 52h36l-14 -52h-36z" />
    <glyph glyph-name="equal.tab" 
d="M58 225l6 20h414l-6 -20h-414zM121 460l6 20h414l-6 -20h-414z" />
    <glyph glyph-name="multiply.tab" 
d="M53 145l-11 15l245 193l-140 191l16 12l139 -192l246 195l11 -15l-246 -194l140 -191l-16 -12l-139 192z" />
    <glyph glyph-name="less.tab" 
d="M453 112l-397 235l3 10l523 235l-6 -25l-486 -217l369 -217z" />
    <glyph glyph-name="greater.tab" 
d="M148 592l397 -235l-3 -10l-523 -235l6 25l486 217l-369 217z" />
    <glyph glyph-name="plusminus.tab" 
d="M238 160l58 213h-219l4 18h219l57 213h20l-57 -213h219l-4 -18h-219l-58 -213h-20zM-22 0l4 18h457l-4 -18h-457z" />
    <glyph glyph-name="space.tab" horiz-adv-x="300" 
 />
    <glyph glyph-name="NUL" horiz-adv-x="0" 
 />
    <glyph glyph-name="hfjslug" horiz-adv-x="694" 
d="M255 276h8l11 34h1l11 -34h8l14 47h-8l-10 -35h-1l-11 35h-7l-11 -35h-1l-10 35h-8zM321 388q19 0 29 24h1l12 -24l12 6l-17 32q6 14 13 39l-13 3q-4 -18 -8 -30h-1l-16 31q23 21 23 42q0 31 -27 31q-12 0 -20 -9t-8 -22t14 -39q-23 -18 -23 -47q0 -16 8 -26.5t21 -10.5z
M50 -200v303q14 0 23 9.5t9 22.5t-9.5 22.5t-22.5 9.5v554h100l30 79h334l29 -79h101v-921h-208l-8 14h-163l-8 -14h-207zM523 277h8v12l8 8l15 -20h10l-20 26l18 20h-10l-20 -24h-1v24h-8v-46zM193 277h34v7h-26v13h23v7h-23v12h26v7h-34v-46zM184 391h15v79h47v-79h15v172
h-15v-79h-47v79h-15v-172zM132 277h8v32l25 -32h7v46h-8v-32l-25 32h-7v-46zM400 391h15v78h38v14h-38v66h43v14h-58v-172zM468 277h8v15h12l10 -15h9l-12 17q10 4 10 14q0 15 -17 15h-20v-46zM366 277h8v17l18 29h-9l-13 -22l-13 22h-9l18 -29v-17zM481 390q31 0 31 36v137
h-16v-137q0 -22 -16 -22q-8 0 -20 5v-15q10 -4 21 -4zM476 299v17h11q10 0 10 -8q0 -9 -10 -9h-11zM322 402q-16 0 -16 25q0 19 16 35l20 -39q-8 -21 -20 -21zM327 479q-12 22 -12 32q0 19 14 19q13 0 13 -19q0 -15 -15 -32zM426 283q-16 0 -16 17q0 6 4.5 11.5t11.5 5.5
t11.5 -5.5t4.5 -11.5q0 -17 -16 -17zM426 276q10 0 17 7t7 17q0 9 -7 16.5t-17 7.5t-17 -7.5t-7 -16.5q0 -10 7 -17t17 -7z" />
    <glyph glyph-name="i.dot" horiz-adv-x="220" 
d="M31 0l134 500h21l-134 -500h-21zM198 643l16 57h31l-16 -57h-31z" />
    <glyph glyph-name="zero.num" horiz-adv-x="400" 
d="M392 577q0 -135 -86 -221q-52 -52 -108 -52q-50 0 -78 36.5t-28 96.5q0 135 86 221q52 52 108 52q50 0 78 -36.5t28 -96.5zM113 439q0 -55 23.5 -85.5t62.5 -30.5q46 0 91 45q36 36 58.5 91t22.5 116q0 55 -23.5 85.5t-62.5 30.5q-46 0 -91 -45q-36 -36 -58.5 -91
t-22.5 -116z" />
    <glyph glyph-name="one.num" horiz-adv-x="325" 
d="M166 314l99 370l-112 -36l-1 18l124 41h16l-105 -393h-21z" />
    <glyph glyph-name="one.num_alt" horiz-adv-x="400" 
d="M65 314l5 18h131l94 352l-131 -42l-1 18l143 47h16l-100 -375h123l-5 -18h-275z" />
    <glyph glyph-name="two.num" horiz-adv-x="400" 
d="M51 314l5 18l225 163q46 33 65.5 60.5t19.5 60.5q0 32 -24 53.5t-65 21.5q-69 0 -127 -69l-16 10q63 78 145 78q48 0 77.5 -26.5t30.5 -65.5q1 -38 -21 -69t-75 -69l-203 -147h242l-6 -19h-273z" />
    <glyph glyph-name="three.num" horiz-adv-x="400" 
d="M193 304q-92 0 -133 72l18 11q37 -64 117 -64q53 0 93 32t40 74q0 37 -28.5 58t-79.5 21h-26l-4 12l191 161h-224l6 19h251l-5 -18l-186 -156q60 0 93 -25.5t33 -69.5q0 -52 -46.5 -89.5t-109.5 -37.5z" />
    <glyph glyph-name="four.num" horiz-adv-x="400" 
d="M258 312l26 99h-203l-4 16l281 279h24l-74 -277h63l-5 -18h-63l-26 -99h-19zM102 429h187l67 251z" />
    <glyph glyph-name="five.num" horiz-adv-x="400" 
d="M194 304q-38 0 -73.5 18t-56.5 52l17 10q39 -61 116 -61q58 0 101 34.5t43 84.5q0 37 -25.5 59t-73.5 22q-50 0 -107 -25l-10 8l65 194h225l-6 -19h-207l-55 -161q53 22 99 22q53 0 84.5 -28t31.5 -69q0 -60 -50 -100.5t-118 -40.5z" />
    <glyph glyph-name="six.num" horiz-adv-x="400" 
d="M202 305q-57 0 -88.5 34t-31.5 94q0 61 24 120.5t65 100.5q56 56 121 56q72 0 110 -53l-19 -13q-32 47 -93 47q-56 0 -104 -48q-65 -65 -85 -175q19 39 56.5 62t82.5 23q51 0 83.5 -29t32.5 -73q0 -60 -48 -103t-106 -43zM201 324q51 0 92.5 36.5t41.5 89.5
q0 37 -27.5 60.5t-72.5 23.5q-56 0 -97 -41q-34 -34 -34 -81q0 -35 24.5 -61.5t72.5 -26.5z" />
    <glyph glyph-name="seven.num" horiz-adv-x="400" 
d="M115 312l285 369h-241l5 19h265l-4 -16l-285 -372h-25z" />
    <glyph glyph-name="eight.num" horiz-adv-x="400" 
d="M210 304q-59 0 -96.5 28.5t-37.5 72.5q0 41 32.5 71.5t83.5 39.5q-57 28 -57 82q0 49 40 80.5t100 31.5q54 0 87.5 -28t33.5 -69q0 -42 -31 -70t-73 -37q71 -28 71 -87q0 -51 -44.5 -83t-108.5 -32zM211 322q55 0 93 27t38 69q0 38 -33 61t-83 23q-57 0 -93 -27.5
t-36 -68.5q0 -36 31 -60t83 -24zM256 518q50 0 84.5 26.5t34.5 67.5q0 35 -28 57.5t-74 22.5q-48 0 -82.5 -25.5t-34.5 -66.5q0 -35 27 -58.5t73 -23.5z" />
    <glyph glyph-name="nine.num" horiz-adv-x="400" 
d="M187 304q-72 0 -113 57l19 13q35 -51 96 -51q56 0 106 50q64 64 83 171q-19 -39 -57 -63t-82 -24q-51 0 -83.5 29.5t-32.5 74.5q0 61 48 104.5t106 43.5q57 0 88.5 -34t31.5 -94q0 -62 -24.5 -121.5t-65.5 -100.5q-55 -55 -120 -55zM244 476q55 0 96 41q35 35 35 83
q0 36 -24.5 63t-72.5 27q-51 0 -92.5 -37t-41.5 -91q0 -38 27.5 -62t72.5 -24z" />
    <glyph glyph-name="zero.den" horiz-adv-x="400" 
d="M309 263q0 -135 -86 -221q-52 -52 -108 -52q-50 0 -78 36.5t-28 96.5q0 135 86 221q52 52 108 52q50 0 78 -36.5t28 -96.5zM30 125q0 -55 23.5 -85.5t62.5 -30.5q46 0 91 45q36 36 58.5 91t22.5 116q0 55 -23.5 85.5t-62.5 30.5q-46 0 -91 -45q-36 -36 -58.5 -91
t-22.5 -116z" />
    <glyph glyph-name="one.den" horiz-adv-x="325" 
d="M83 0l99 370l-112 -36l-1 18l124 41h16l-105 -393h-21z" />
    <glyph glyph-name="one.den_alt" horiz-adv-x="400" 
d="M-18 0l5 18h131l94 352l-131 -42l-1 18l143 47h16l-100 -375h123l-5 -18h-275z" />
    <glyph glyph-name="two.den" horiz-adv-x="400" 
d="M-32 0l5 18l225 163q46 33 65.5 60.5t19.5 60.5q0 32 -24 53.5t-65 21.5q-69 0 -127 -69l-16 10q63 78 145 78q48 0 77.5 -26.5t30.5 -65.5q1 -38 -21 -69t-75 -69l-203 -147h242l-6 -19h-273z" />
    <glyph glyph-name="three.den" horiz-adv-x="400" 
d="M110 -10q-92 0 -133 72l18 11q37 -64 117 -64q53 0 93 32t40 74q0 37 -28.5 58t-79.5 21h-26l-4 12l191 161h-224l6 19h251l-5 -18l-186 -156q60 0 93 -25.5t33 -69.5q0 -52 -46.5 -89.5t-109.5 -37.5z" />
    <glyph glyph-name="four.den" horiz-adv-x="400" 
d="M175 -2l26 99h-203l-4 16l281 279h24l-74 -277h63l-5 -18h-63l-26 -99h-19zM19 115h187l67 251z" />
    <glyph glyph-name="five.den" horiz-adv-x="400" 
d="M111 -10q-38 0 -73.5 18t-56.5 52l17 10q39 -61 116 -61q58 0 101 34.5t43 84.5q0 37 -25.5 59t-73.5 22q-50 0 -107 -25l-10 8l65 194h225l-6 -19h-207l-55 -161q53 22 99 22q53 0 84.5 -28t31.5 -69q0 -60 -50 -100.5t-118 -40.5z" />
    <glyph glyph-name="six.den" horiz-adv-x="400" 
d="M119 -9q-57 0 -88.5 34t-31.5 94q0 61 24 120.5t65 100.5q56 56 121 56q72 0 110 -53l-19 -13q-32 47 -93 47q-56 0 -104 -48q-65 -65 -85 -175q19 39 56.5 62t82.5 23q51 0 83.5 -29t32.5 -73q0 -60 -48 -103t-106 -43zM118 10q51 0 92.5 36.5t41.5 89.5
q0 37 -27.5 60.5t-72.5 23.5q-56 0 -97 -41q-34 -34 -34 -81q0 -35 24.5 -61.5t72.5 -26.5z" />
    <glyph glyph-name="seven.den" horiz-adv-x="400" 
d="M32 -2l285 369h-241l5 19h265l-4 -16l-285 -372h-25z" />
    <glyph glyph-name="eight.den" horiz-adv-x="400" 
d="M127 -10q-59 0 -96.5 28.5t-37.5 72.5q0 41 32.5 71.5t83.5 39.5q-57 28 -57 82q0 49 40 80.5t100 31.5q54 0 87.5 -28t33.5 -69q0 -42 -31 -70t-73 -37q71 -28 71 -87q0 -51 -44.5 -83t-108.5 -32zM128 8q55 0 93 27t38 69q0 38 -33 61t-83 23q-57 0 -93 -27.5
t-36 -68.5q0 -36 31 -60t83 -24zM173 204q50 0 84.5 26.5t34.5 67.5q0 35 -28 57.5t-74 22.5q-48 0 -82.5 -25.5t-34.5 -66.5q0 -35 27 -58.5t73 -23.5z" />
    <glyph glyph-name="nine.den" horiz-adv-x="400" 
d="M104 -10q-72 0 -113 57l19 13q35 -51 96 -51q56 0 106 50q64 64 83 171q-19 -39 -57 -63t-82 -24q-51 0 -83.5 29.5t-32.5 74.5q0 61 48 104.5t106 43.5q57 0 88.5 -34t31.5 -94q0 -62 -24.5 -121.5t-65.5 -100.5q-55 -55 -120 -55zM161 162q55 0 96 41q35 35 35 83
q0 36 -24.5 63t-72.5 27q-51 0 -92.5 -37t-41.5 -91q0 -38 27.5 -62t72.5 -24z" />
    <glyph glyph-name="caron.alt" horiz-adv-x="500" 
d="M318 581l56 149h25v-2l-69 -147h-12z" />
    <glyph glyph-name="acute.cap" horiz-adv-x="500" 
d="M340 765l126 99l22 -12l-128 -87h-20z" />
    <glyph glyph-name="hungarumlaut.cap" horiz-adv-x="500" 
d="M261 765l126 99l22 -12l-128 -87h-20zM382 765l126 99l22 -12l-128 -87h-20z" />
    <glyph glyph-name="grave.cap" horiz-adv-x="500" 
d="M413 765l-80 87l24 12l72 -99h-16z" />
    <glyph glyph-name="circumflex.cap" horiz-adv-x="500" 
d="M272 765l131 97h18l81 -97h-19l-74 75l-114 -75h-23z" />
    <glyph glyph-name="caron.cap" horiz-adv-x="500" 
d="M528 862l-131 -97h-18l-81 97h19l74 -75l114 75h23z" />
    <glyph glyph-name="breve.cap" horiz-adv-x="500" 
d="M388 764q-55 0 -82 23.5t-24 60.5h17q2 -64 89 -64q90 0 128 64h18q-41 -84 -146 -84z" />
    <glyph glyph-name="tilde.cap" horiz-adv-x="500" 
d="M265 771l-12 3q30 74 84 74q21 0 65 -27q38 -25 56 -25q38 0 68 57l12 -3q-30 -74 -84 -74q-21 0 -65 27q-38 25 -56 25q-38 0 -68 -57z" />
    <glyph glyph-name="macron.cap" horiz-adv-x="500" 
d="M258 791l5 20h272l-5 -20h-272z" />
    <glyph glyph-name="dieresis.cap" horiz-adv-x="500" 
d="M303 784l13 50h38l-13 -50h-38zM443 784l13 50h38l-13 -50h-38z" />
    <glyph glyph-name="dotaccent.cap" horiz-adv-x="500" 
d="M373 784l13 50h38l-13 -50h-38z" />
    <glyph glyph-name="ring.cap" horiz-adv-x="500" 
d="M421 940q44 0 68.5 -22t24.5 -56q0 -41 -35 -69.5t-80 -28.5q-44 0 -68.5 22t-24.5 56q0 41 35 69.5t80 28.5zM401 780q36 0 65 23t29 58q0 28 -20 45.5t-56 17.5t-65 -23t-29 -58q0 -28 20 -45.5t56 -17.5z" />
    </font>
</defs>
</svg>
